{
.appVersion = "911";
DisplayStrings = (
M
);
copyright = "Copyright (c) 2010, 2011, Brian M Zick (http://21326.info/)";
customParameters = (
{
name = license;
value = "This Font Software is licensed under the SIL Open Font License, Version 1.1. This license is available with a FAQ at: http://scripts.sil.org/OFL";
},
{
name = licenseURL;
value = "http://scripts.sil.org/OFL";
},
{
name = vendorID;
value = PfEd;
},
{
name = panose;
value = (
2,
0,
5,
3,
0,
0,
0,
0,
0,
0
);
},
{
name = unicodeRanges;
value = (
0,
1,
2,
3,
5,
6,
29,
31,
33,
35,
38,
45
);
},
{
name = codePageRanges;
value = (
1252,
1250,
1254,
1257
);
},
{
name = glyphOrder;
value = (
.notdef,
uni0000,
uni000D,
space,
exclam,
quotedbl,
numbersign,
dollar,
percent,
ampersand,
quotesingle,
parenleft,
parenright,
asterisk,
plus,
comma,
hyphen,
period,
slash,
zero,
one,
two,
three,
four,
five,
six,
seven,
eight,
nine,
colon,
semicolon,
less,
equal,
greater,
question,
at,
A,
B,
C,
D,
E,
F,
G,
H,
I,
J,
K,
L,
M,
N,
O,
P,
Q,
R,
S,
T,
U,
V,
W,
X,
Y,
Z,
bracketleft,
backslash,
bracketright,
asciicircum,
underscore,
grave,
a,
b,
c,
d,
e,
f,
g,
h,
i,
j,
k,
l,
m,
n,
o,
p,
q,
r,
s,
t,
u,
v,
w,
x,
y,
z,
braceleft,
bar,
braceright,
asciitilde,
nbspace,
exclamdown,
cent,
sterling,
currency,
yen,
brokenbar,
section,
dieresis,
copyright,
ordfeminine,
guillemotleft,
logicalnot,
softhyphen,
registered,
macron,
degree,
plusminus,
twosuperior,
threesuperior,
acute,
micro,
paragraph,
periodcentered,
cedilla,
onesuperior,
ordmasculine,
guillemotright,
onequarter,
onehalf,
threequarters,
questiondown,
Agrave,
Aacute,
Acircumflex,
Atilde,
Adieresis,
Aring,
AE,
Ccedilla,
Egrave,
Eacute,
Ecircumflex,
Edieresis,
Igrave,
Iacute,
Icircumflex,
Idieresis,
Eth,
Ntilde,
Ograve,
Oacute,
Ocircumflex,
Otilde,
Odieresis,
multiply,
Oslash,
Ugrave,
Uacute,
Ucircumflex,
Udieresis,
Yacute,
Thorn,
germandbls,
agrave,
aacute,
acircumflex,
atilde,
adieresis,
aring,
ae,
ccedilla,
egrave,
eacute,
ecircumflex,
edieresis,
igrave,
iacute,
icircumflex,

glyphs = (
{
glyphname = .notdef;
lastChange = "2016-08-10 08:57:17 +0000";
layers = (
{
layerId = "5ECBA62F-7A11-49B7-B673-3B0F38FC4DA3";
paths = (
{
closed = 1;
nodes = (
"763 1307 LINE",
"84 1307 LINE",
"84 -387 LINE",
"763 -387 LINE"
);
},
{
closed = 1;
nodes = (
"678 1223 LINE",
"678 -303 LINE",
"169 -303 LINE",
"169 1223 LINE"
);
}
);
width = 846;
}
);
note = .notdef;
},
{
glyphname = exclam;
lastChange = "2016-08-10 08:57:17 +0000";
layers = (
{
layerId = "5ECBA62F-7A11-49B7-B673-3B0F38FC4DA3";
paths = (
{
closed = 1;
nodes = (
"171 213 OFFCURVE",
"110 153 OFFCURVE",
"110 73 CURVE SMOOTH",
"110 22 OFFCURVE",
"163 -33 OFFCURVE",
"216 -33 CURVE SMOOTH",
"295 -33 OFFCURVE",
"353 26 OFFCURVE",
"353 106 CURVE SMOOTH",
"353 165 OFFCURVE",
"311 213 OFFCURVE",
"251 213 CURVE SMOOTH"
);
},
{
closed = 1;
nodes = (
"429 823 OFFCURVE",
"494 1121 OFFCURVE",
"515 1256 CURVE",
"515 1261 LINE SMOOTH",
"515 1284 OFFCURVE",
"489 1295 OFFCURVE",
"457 1295 CURVE SMOOTH",
"400 1295 OFFCURVE",
"327 1279 OFFCURVE",
"318 1256 CURVE",
"317 1252 LINE",
"297 1129 OFFCURVE",
"269 838 OFFCURVE",
"232 380 CURVE",
"232 377 LINE",
"318 357 LINE",
"318 364 LINE"
);
}
);
width = 438;
}
);
note = exclam;
unicode = 0021;
},
{
glyphname = quotedbl;
lastChange = "2016-08-10 08:57:17 +0000";
layers = (
{
layerId = "5ECBA62F-7A11-49B7-B673-3B0F38FC4DA3";
paths = (
{
closed = 1;
nodes = (
"553 905 LINE",
"650 1289 LINE",
"468 1305 LINE",
"457 893 LINE"
);
},
{
closed = 1;
nodes = (
"344 905 LINE",
"442 1289 LINE",
"260 1305 LINE",
"248 893 LINE"
);
}
);
width = 513;
}
);
note = quotedbl;
unicode = 0022;
},
{
glyphname = numbersign;
lastChange = "2016-08-10 08:57:17 +0000";
layers = (
{
layerId = "5ECBA62F-7A11-49B7-B673-3B0F38FC4DA3";
paths = (
{
closed = 1;
nodes = (
"550 170 LINE",
"656 179 LINE",
"678 364 LINE",
"834 364 LINE",
"858 465 LINE",
"697 465 LINE",
"728 677 LINE",
"890 677 LINE",
"914 778 LINE",
"745 778 LINE",
"774 961 LINE",
"671 953 LINE",
"643 778 LINE",
"438 778 LINE",
"467 963 LINE",
"365 953 LINE",
"335 778 LINE",
"179 778 LINE",
"156 677 LINE",
"318 677 LINE",
"287 465 LINE",
"125 465 LINE",
"99 364 LINE",
"268 364 LINE",
"242 170 LINE",
"348 179 LINE",
"372 364 LINE",
"576 364 LINE"
);
},
{
closed = 1;
nodes = (
"625 677 LINE",
"593 465 LINE",
"390 465 LINE",
"420 677 LINE"
);
}
);
width = 961;
}
);
note = numbersign;
unicode = 0023;
},
{
glyphname = dollar;
lastChange = "2016-08-10 08:57:17 +0000";
layers = (
{
layerId = "5ECBA62F-7A11-49B7-B673-3B0F38FC4DA3";
paths = (
{
closed = 1;
nodes = (
"644 447 OFFCURVE",
"694 393 OFFCURVE",
"694 317 CURVE",
"693 308 OFFCURVE",
"692 299 OFFCURVE",
"691 289 CURVE",
"672 177 OFFCURVE",
"589 108 OFFCURVE",
"486 85 CURVE",
"553 506 LINE"
);
},
{
closed = 1;
nodes = (
"437 843 OFFCURVE",
"399 902 OFFCURVE",
"399 969 CURVE SMOOTH",
"399 980 OFFCURVE",
"400 991 OFFCURVE",
"401 1002 CURVE",
"418 1111 OFFCURVE",
"486 1172 OFFCURVE",
"575 1188 CURVE",
"512 790 LINE"
);
},
{
closed = 1;
nodes = (
"868 1236 OFFCURVE",
"789 1269 OFFCURVE",
"695 1276 CURVE",
"718 1419 LINE",
"590 1403 LINE",
"568 1268 LINE",
"484 1251 OFFCURVE",
"406 1211 OFFCURVE",
"342 1155 CURVE SMOOTH",
"277 1098 OFFCURVE",
"230 1013 OFFCURVE",
"215 921 CURVE SMOOTH",
"212 902 OFFCURVE",
"211 886 OFFCURVE",
"211 871 CURVE SMOOTH",
"211 840 OFFCURVE",
"216 811 OFFCURVE",
"227 783 CURVE SMOOTH",
"248 727 OFFCURVE",
"273 695 OFFCURVE",
"326 652 CURVE SMOOTH",
"379 609 OFFCURVE",
"404 594 OFFCURVE",
"471 555 CURVE",
"396 79 LINE",
"317 86 OFFCURVE",
"256 132 OFFCURVE",
"229 188 CURVE",
"221 377 LINE",
"120 392 LINE",
"65 123 LINE",
"116 44 OFFCURVE",
"228 -17 OFFCURVE",
"357 -24 CURVE",
"333 -181 LINE",
"467 -165 LINE",
"491 -13 LINE",
"691 27 OFFCURVE",
"858 169 OFFCURVE",
"887 356 CURVE SMOOTH",
"890 376 OFFCURVE",
"891 393 OFFCURVE",
"891 407 CURVE SMOOTH",
"891 424 OFFCURVE",
"889 441 OFFCURVE",
"886 458 CURVE",
"878 490 OFFCURVE",
"870 516 OFFCURVE",
"851 544 CURVE",
"831 571 OFFCURVE",
"819 588 OFFCURVE",
"790 612 CURVE SMOOTH",
"761 635 OFFCURVE",
"748 647 OFFCURVE",
"713 669 CURVE SMOOTH",
"678 691 OFFCURVE",
"668 696 OFFCURVE",
"628 719 CURVE SMOOTH",
"608 730 OFFCURVE",
"594 738 OFFCURVE",
"586 743 CURVE",
"657 1186 LINE",
"712 1171 OFFCURVE",
"759 1129 OFFCURVE",
"770 1096 CURVE",
"766 903 LINE",
"864 892 LINE",
"931 1176 LINE"
);
}
);
width = 868;
}
);
note = dollar;
unicode = 0024;
},
{
glyphname = percent;
lastChange = "2016-08-10 08:57:17 +0000";
layers = (
{
layerId = "5ECBA62F-7A11-49B7-B673-3B0F38FC4DA3";
paths = (
{
closed = 1;
nodes = (
"821 48 OFFCURVE",
"801 88 OFFCURVE",
"801 197 CURVE SMOOTH",
"801 294 OFFCURVE",
"859 382 OFFCURVE",
"939 382 CURVE SMOOTH",
"1006 382 OFFCURVE",
"1026 342 OFFCURVE",
"1026 243 CURVE SMOOTH",
"1026 139 OFFCURVE",
"967 48 OFFCURVE",
"888 48 CURVE SMOOTH"
);
},
{
closed = 1;
nodes = (
"1084 59 OFFCURVE",
"1149 152 OFFCURVE",
"1149 237 CURVE SMOOTH",
"1149 388 OFFCURVE",
"1083 463 OFFCURVE",
"952 463 CURVE SMOOTH",
"912 463 OFFCURVE",
"870 449 OFFCURVE",
"826 422 CURVE SMOOTH",
"738 366 OFFCURVE",
"672 269 OFFCURVE",
"672 185 CURVE SMOOTH",
"672 44 OFFCURVE",
"745 -35 OFFCURVE",
"874 -35 CURVE SMOOTH",
"913 -35 OFFCURVE",
"954 -22 OFFCURVE",
"997 4 CURVE SMOOTH"
);
},
{
closed = 1;
nodes = (
"324 559 OFFCURVE",
"305 600 OFFCURVE",
"305 711 CURVE SMOOTH",
"305 807 OFFCURVE",
"363 893 OFFCURVE",
"443 893 CURVE SMOOTH",
"510 893 OFFCURVE",
"530 853 OFFCURVE",
"530 754 CURVE SMOOTH",
"530 650 OFFCURVE",
"470 559 OFFCURVE",
"391 559 CURVE SMOOTH"
);
},
{
closed = 1;
nodes = (
"587 570 OFFCURVE",
"653 663 OFFCURVE",
"653 748 CURVE SMOOTH",
"653 899 OFFCURVE",
"587 974 OFFCURVE",
"456 974 CURVE SMOOTH",
"415 974 OFFCURVE",
"373 961 OFFCURVE",
"330 934 CURVE SMOOTH",
"242 878 OFFCURVE",
"176 784 OFFCURVE",
"176 700 CURVE SMOOTH",
"176 557 OFFCURVE",
"251 476 OFFCURVE",
"378 476 CURVE SMOOTH",
"416 476 OFFCURVE",
"457 489 OFFCURVE",
"500 515 CURVE SMOOTH"
);
},
{
closed = 1;
nodes = (
"310 -38 LINE",
"1126 969 LINE",
"1015 978 LINE",
"191 -28 LINE"
);
}
);
width = 1173;
}
);
note = percent;
unicode = 0025;
},
{
glyphname = ampersand;
lastChange = "2016-08-10 08:57:17 +0000";
layers = (
{
layerId = "5ECBA62F-7A11-49B7-B673-3B0F38FC4DA3";
paths = (
{
closed = 1;
nodes = (
"1444 839 LINE",
"994 839 LINE",
"973 763 LINE",
"1135 721 LINE",
"918 423 LINE",
"682 706 LINE",
"683 718 LINE",
"818 791 OFFCURVE",
"974 911 OFFCURVE",
"974 1036 CURVE SMOOTH",
"974 1201 OFFCURVE",
"875 1274 OFFCURVE",
"691 1274 CURVE SMOOTH",
"636 1274 OFFCURVE",
"580 1258 OFFCURVE",
"523 1225 CURVE SMOOTH",
"408 1158 OFFCURVE",
"329 1049 OFFCURVE",
"329 950 CURVE SMOOTH",
"329 851 OFFCURVE",
"363 769 OFFCURVE",
"432 703 CURVE",
"404 689 OFFCURVE",
"374 672 OFFCURVE",
"342 652 CURVE SMOOTH",
"278 612 OFFCURVE",
"206 551 OFFCURVE",
"162 496 CURVE SMOOTH",
"106 425 OFFCURVE",
"78 349 OFFCURVE",
"78 268 CURVE SMOOTH",
"78 111 OFFCURVE",
"177 -20 OFFCURVE",
"390 -20 CURVE SMOOTH",
"433 -20 OFFCURVE",
"475 -14 OFFCURVE",
"516 -3 CURVE SMOOTH",
"596 18 OFFCURVE",
"650 47 OFFCURVE",
"711 96 CURVE SMOOTH",
"766 139 OFFCURVE",
"793 166 OFFCURVE",
"837 218 CURVE",
"960 58 OFFCURVE",
"1050 -20 OFFCURVE",
"1145 -20 CURVE SMOOTH",
"1186 -20 OFFCURVE",
"1228 -13 OFFCURVE",
"1269 0 CURVE",
"1294 69 LINE",
"1262 79 LINE",
"1237 88 OFFCURVE",
"1203 112 OFFCURVE",
"1160 151 CURVE SMOOTH",
"1096 210 OFFCURVE",
"1035 278 OFFCURVE",
"978 354 CURVE",
"1246 725 LINE",
"1423 763 LINE"
);
},
{
closed = 1;
nodes = (
"759 256 OFFCURVE",
"724 222 OFFCURVE",
"672 181 CURVE SMOOTH",
"616 137 OFFCURVE",
"537 106 OFFCURVE",
"470 106 CURVE SMOOTH",
"325 106 OFFCURVE",
"276 223 OFFCURVE",
"276 364 CURVE SMOOTH",
"276 461 OFFCURVE",
"363 565 OFFCURVE",
"468 632 CURVE",
"485 630 LINE",
"778 283 LINE"
);
},
{
closed = 1;
nodes = (
"538 856 OFFCURVE",
"494 934 OFFCURVE",
"495 1009 CURVE SMOOTH",
"495 1098 OFFCURVE",
"573 1189 OFFCURVE",
"658 1189 CURVE SMOOTH",
"758 1189 OFFCURVE",
"799 1132 OFFCURVE",
"799 1016 CURVE SMOOTH",
"799 925 OFFCURVE",
"741 845 OFFCURVE",
"625 774 CURVE"
);
}
);
width = 1335;
}
);
note = ampersand;
unicode = 0026;
},
{
glyphname = quotesingle;
lastChange = "2016-08-10 08:57:17 +0000";
layers = (
{
layerId = "5ECBA62F-7A11-49B7-B673-3B0F38FC4DA3";
paths = (
{
closed = 1;
nodes = (
"344 905 LINE",
"442 1289 LINE",
"260 1305 LINE",
"248 893 LINE"
);
}
);
width = 305;
}
);
note = quotesingle;
unicode = 0027;
},
{
glyphname = parenleft;
lastChange = "2016-08-10 08:57:17 +0000";
layers = (
{
layerId = "5ECBA62F-7A11-49B7-B673-3B0F38FC4DA3";
paths = (
{
closed = 1;
nodes = (
"328 -139 OFFCURVE",
"287 35 OFFCURVE",
"287 202 CURVE SMOOTH",
"287 308 OFFCURVE",
"296 410 OFFCURVE",
"314 509 CURVE SMOOTH",
"350 698 OFFCURVE",
"395 824 OFFCURVE",
"468 955 CURVE SMOOTH",
"531 1070 OFFCURVE",
"574 1124 OFFCURVE",
"634 1191 CURVE",
"595 1257 LINE",
"582 1248 OFFCURVE",
"564 1235 OFFCURVE",
"543 1218 CURVE",
"503 1183 OFFCURVE",
"425 1106 OFFCURVE",
"374 1039 CURVE SMOOTH",
"225 846 OFFCURVE",
"115 591 OFFCURVE",
"115 251 CURVE SMOOTH",
"115 176 OFFCURVE",
"122 104 OFFCURVE",
"135 36 CURVE SMOOTH",
"162 -99 OFFCURVE",
"186 -170 OFFCURVE",
"237 -251 CURVE SMOOTH",
"243 -261 OFFCURVE",
"249 -270 OFFCURVE",
"254 -278 CURVE",
"265 -294 OFFCURVE",
"272 -305 OFFCURVE",
"281 -316 CURVE",
"289 -328 OFFCURVE",
"292 -331 OFFCURVE",
"301 -341 CURVE",
"306 -346 OFFCURVE",
"309 -350 OFFCURVE",
"310 -352 CURVE",
"313 -356 OFFCURVE",
"328 -372 OFFCURVE",
"332 -376 CURVE",
"409 -318 LINE"
);
}
);
width = 483;
}
);
note = parenleft;
unicode = 0028;
},
{
glyphname = parenright;
lastChange = "2016-08-10 08:57:17 +0000";
layers = (
{
layerId = "5ECBA62F-7A11-49B7-B673-3B0F38FC4DA3";
paths = (
{
closed = 1;
nodes = (
"62 -353 OFFCURVE",
"77 -339 OFFCURVE",
"81 -335 CURVE SMOOTH",
"118 -300 OFFCURVE",
"195 -217 OFFCURVE",
"250 -144 CURVE SMOOTH",
"314 -59 OFFCURVE",
"388 71 OFFCURVE",
"433 190 CURVE SMOOTH",
"484 322 OFFCURVE",
"517 495 OFFCURVE",
"517 658 CURVE SMOOTH",
"517 757 OFFCURVE",
"502 910 OFFCURVE",
"450 1029 CURVE SMOOTH",
"398 1144 OFFCURVE",
"348 1199 OFFCURVE",
"296 1250 CURVE SMOOTH",
"289 1257 LINE",
"229 1191 LINE",
"306 1063 OFFCURVE",
"345 911 OFFCURVE",
"345 735 CURVE SMOOTH",
"345 714 OFFCURVE",
"345 698 OFFCURVE",
"344 687 CURVE",
"336 396 OFFCURVE",
"255 123 OFFCURVE",
"102 -134 CURVE SMOOTH",
"69 -189 OFFCURVE",
"27 -250 OFFCURVE",
"-24 -318 CURVE",
"36 -376 LINE"
);
}
);
width = 485;
}
);
note = parenright;
unicode = 0029;
},
{
glyphname = asterisk;
lastChange = "2016-08-10 08:57:17 +0000";
layers = (
{
layerId = "5ECBA62F-7A11-49B7-B673-3B0F38FC4DA3";
paths = (
{
closed = 1;
nodes = (
"536 872 LINE",
"684 624 LINE",
"804 693 LINE",
"587 923 LINE"
);
},
{
closed = 1;
nodes = (
"464 905 LINE",
"274 687 LINE",
"376 594 LINE",
"529 872 LINE"
);
},
{
closed = 1;
nodes = (
"476 979 LINE",
"209 1093 LINE",
"156 966 LINE",
"464 908 LINE"
);
},
{
closed = 1;
nodes = (
"551 994 LINE",
"577 1282 LINE",
"441 1295 LINE",
"481 983 LINE"
);
},
{
closed = 1;
nodes = (
"586 926 LINE",
"869 991 LINE",
"840 1125 LINE",
"553 991 LINE"
);
}
);
width = 850;
}
);
note = asterisk;
unicode = 002A;
},
{
glyphname = plus;
lastChange = "2016-08-10 08:57:17 +0000";
layers = (
{
layerId = "5ECBA62F-7A11-49B7-B673-3B0F38FC4DA3";
paths = (
{
closed = 1;
nodes = (
"701 511 LINE",
"481 511 LINE",
"514 731 LINE",
"408 743 LINE",
"371 511 LINE",
"161 511 LINE",
"135 410 LINE",
"356 410 LINE",
"320 185 LINE",
"429 174 LINE",
"466 410 LINE",
"674 410 LINE"
);
}
);
width = 689;
}
);
note = plus;
unicode = 002B;
},
{
glyphname = comma;
lastChange = "2016-08-10 08:57:17 +0000";
layers = (
{
layerId = "5ECBA62F-7A11-49B7-B673-3B0F38FC4DA3";
paths = (
{
closed = 1;
nodes = (
"87 -301 OFFCURVE",
"135 -284 OFFCURVE",
"178 -261 CURVE SMOOTH",
"323 -182 OFFCURVE",
"389 -61 OFFCURVE",
"389 31 CURVE SMOOTH",
"389 176 OFFCURVE",
"317 218 OFFCURVE",
"240 218 CURVE SMOOTH",
"176 218 OFFCURVE",
"98 156 OFFCURVE",
"98 84 CURVE",
"97 69 OFFCURVE",
"99 51 OFFCURVE",
"104 30 CURVE",
"121 34 OFFCURVE",
"131 36 OFFCURVE",
"134 36 CURVE SMOOTH",
"199 36 OFFCURVE",
"235 -1 OFFCURVE",
"235 -61 CURVE SMOOTH",
"235 -132 OFFCURVE",
"149 -213 OFFCURVE",
"25 -245 CURVE",
"36 -314 LINE"
);
}
);
width = 447;
}
);
note = comma;
unicode = 002C;
},
{
glyphname = hyphen;
lastChange = "2016-08-10 08:57:17 +0000";
layers = (
{
layerId = "5ECBA62F-7A11-49B7-B673-3B0F38FC4DA3";
paths = (
{
closed = 1;
nodes = (
"573 417 LINE",
"585 518 LINE",
"176 500 LINE",
"165 399 LINE"
);
}
);
width = 604;
}
);
note = hyphen;
unicode = 002D;
},
{
glyphname = period;
lastChange = "2016-08-10 08:57:17 +0000";
layers = (
{
layerId = "5ECBA62F-7A11-49B7-B673-3B0F38FC4DA3";
paths = (
{
closed = 1;
nodes = (
"160 213 OFFCURVE",
"99 153 OFFCURVE",
"99 73 CURVE SMOOTH",
"99 22 OFFCURVE",
"152 -33 OFFCURVE",
"205 -33 CURVE SMOOTH",
"284 -33 OFFCURVE",
"342 26 OFFCURVE",
"342 106 CURVE SMOOTH",
"342 165 OFFCURVE",
"300 213 OFFCURVE",
"240 213 CURVE SMOOTH"
);
}
);
width = 404;
}
);
note = period;
unicode = 002E;
},
{
glyphname = slash;
lastChange = "2016-08-10 08:57:17 +0000";
layers = (
{
layerId = "5ECBA62F-7A11-49B7-B673-3B0F38FC4DA3";
paths = (
{
closed = 1;
nodes = (
"160 -356 LINE",
"626 1246 LINE",
"494 1237 LINE",
"31 -364 LINE"
);
}
);
width = 516;
}
);
note = slash;
unicode = 002F;
},
{
glyphname = zero;
lastChange = "2016-08-10 08:57:17 +0000";
layers = (
{
layerId = "5ECBA62F-7A11-49B7-B673-3B0F38FC4DA3";
paths = (
{
closed = 1;
nodes = (
"341 471 OFFCURVE",
"342 514 OFFCURVE",
"344 543 CURVE SMOOTH",
"359 764 OFFCURVE",
"409 957 OFFCURVE",
"546 1044 CURVE SMOOTH",
"583 1066 OFFCURVE",
"625 1077 OFFCURVE",
"673 1077 CURVE SMOOTH",
"732 1077 OFFCURVE",
"777 1047 OFFCURVE",
"808 988 CURVE SMOOTH",
"869 869 OFFCURVE",
"862 597 OFFCURVE",
"827 410 CURVE SMOOTH",
"788 231 OFFCURVE",
"723 73 OFFCURVE",
"534 73 CURVE SMOOTH",
"405 73 OFFCURVE",
"341 186 OFFCURVE",
"341 412 CURVE SMOOTH"
);
},
{
closed = 1;
nodes = (
"1016 771 OFFCURVE",
"1008 837 OFFCURVE",
"993 898 CURVE SMOOTH",
"961 1011 OFFCURVE",
"904 1092 OFFCURVE",
"821 1141 CURVE",
"778 1164 OFFCURVE",
"732 1175 OFFCURVE",
"683 1175 CURVE SMOOTH",
"560 1175 OFFCURVE",
"436 1103 OFFCURVE",
"337 974 CURVE SMOOTH",
"240 846 OFFCURVE",
"175 653 OFFCURVE",
"175 448 CURVE SMOOTH",
"175 369 OFFCURVE",
"184 300 OFFCURVE",
"203 240 CURVE",
"218 182 OFFCURVE",
"243 132 OFFCURVE",
"276 91 CURVE SMOOTH",
"332 18 OFFCURVE",
"427 -26 OFFCURVE",
"519 -26 CURVE SMOOTH",
"628 -26 OFFCURVE",
"757 38 OFFCURVE",
"850 157 CURVE SMOOTH",
"951 286 OFFCURVE",
"1016 476 OFFCURVE",
"1016 700 CURVE SMOOTH"
);
}
);
width = 1012;
}
);
note = zero;
unicode = 0030;
},
{
glyphname = one;
lastChange = "2016-08-10 08:57:17 +0000";
layers = (
{
layerId = "5ECBA62F-7A11-49B7-B673-3B0F38FC4DA3";
paths = (
{
closed = 1;
nodes = (
"658 1158 LINE",
"246 1084 LINE",
"230 1007 LINE",
"495 1007 LINE",
"369 117 LINE",
"86 73 LINE",
"68 0 LINE",
"779 0 LINE",
"799 81 LINE",
"538 111 LINE",
"685 1158 LINE"
);
}
);
width = 786;
}
);
note = one;
unicode = 0031;
},
{
glyphname = two;
lastChange = "2016-08-10 08:57:17 +0000";
layers = (
{
layerId = "5ECBA62F-7A11-49B7-B673-3B0F38FC4DA3";
paths = (
{
closed = 1;
nodes = (
"916 297 LINE",
"849 306 LINE",
"731 136 LINE",
"277 136 LINE",
"362 208 LINE",
"536 341 LINE SMOOTH",
"607 393 OFFCURVE",
"671 446 OFFCURVE",
"726 500 CURVE SMOOTH",
"871 638 OFFCURVE",
"943 774 OFFCURVE",
"943 908 CURVE SMOOTH",
"943 996 OFFCURVE",
"919 1064 OFFCURVE",
"872 1112 CURVE SMOOTH",
"777 1207 OFFCURVE",
"617 1192 OFFCURVE",
"518 1151 CURVE SMOOTH",
"475 1132 OFFCURVE",
"432 1104 OFFCURVE",
"389 1069 CURVE SMOOTH",
"316 1006 OFFCURVE",
"251 913 OFFCURVE",
"220 830 CURVE",
"296 801 LINE",
"325 860 OFFCURVE",
"364 915 OFFCURVE",
"412 968 CURVE",
"435 991 OFFCURVE",
"461 1010 OFFCURVE",
"491 1027 CURVE",
"522 1042 OFFCURVE",
"554 1050 OFFCURVE",
"587 1050 CURVE SMOOTH",
"648 1050 OFFCURVE",
"693 1031 OFFCURVE",
"723 994 CURVE",
"748 959 OFFCURVE",
"761 914 OFFCURVE",
"761 859 CURVE SMOOTH",
"761 800 OFFCURVE",
"748 744 OFFCURVE",
"723 693 CURVE SMOOTH",
"670 592 OFFCURVE",
"593 501 OFFCURVE",
"490 419 CURVE SMOOTH",
"344 303 LINE",
"83 103 LINE",
"74 0 LINE",
"821 0 LINE"
);
}
);
width = 945;
}
);
note = two;
unicode = 0032;
},
{
glyphname = three;
lastChange = "2016-08-10 08:57:17 +0000";
layers = (
{
layerId = "5ECBA62F-7A11-49B7-B673-3B0F38FC4DA3";
paths = (
{
closed = 1;
nodes = (
"125 199 OFFCURVE",
"73 150 OFFCURVE",
"73 99 CURVE SMOOTH",
"73 83 OFFCURVE",
"78 68 OFFCURVE",
"88 53 CURVE SMOOTH",
"107 23 OFFCURVE",
"146 -1 OFFCURVE",
"207 -18 CURVE",
"243 -26 OFFCURVE",
"278 -30 OFFCURVE",
"313 -30 CURVE SMOOTH",
"377 -29 OFFCURVE",
"443 -19 OFFCURVE",
"510 2 CURVE SMOOTH",
"633 44 OFFCURVE",
"725 117 OFFCURVE",
"784 220 CURVE",
"811 272 OFFCURVE",
"825 324 OFFCURVE",
"825 377 CURVE SMOOTH",
"826 501 OFFCURVE",
"742 607 OFFCURVE",
"587 632 CURVE",
"588 644 LINE",
"663 669 OFFCURVE",
"727 708 OFFCURVE",
"778 759 CURVE SMOOTH",
"835 820 OFFCURVE",
"864 889 OFFCURVE",
"864 966 CURVE SMOOTH",
"864 998 OFFCURVE",
"857 1027 OFFCURVE",
"844 1054 CURVE SMOOTH",
"817 1107 OFFCURVE",
"773 1146 OFFCURVE",
"710 1170 CURVE",
"674 1181 OFFCURVE",
"641 1186 OFFCURVE",
"612 1186 CURVE SMOOTH",
"533 1186 OFFCURVE",
"455 1157 OFFCURVE",
"377 1098 CURVE SMOOTH",
"312 1047 OFFCURVE",
"259 978 OFFCURVE",
"248 933 CURVE",
"318 908 LINE",
"370 1004 OFFCURVE",
"435 1057 OFFCURVE",
"534 1057 CURVE SMOOTH",
"631 1057 OFFCURVE",
"682 995 OFFCURVE",
"682 915 CURVE SMOOTH",
"682 884 OFFCURVE",
"675 854 OFFCURVE",
"660 824 CURVE SMOOTH",
"633 771 OFFCURVE",
"593 727 OFFCURVE",
"538 690 CURVE",
"487 659 OFFCURVE",
"441 635 OFFCURVE",
"400 619 CURVE",
"394 617 OFFCURVE",
"389 615 OFFCURVE",
"384 613 CURVE",
"378 610 OFFCURVE",
"374 609 OFFCURVE",
"371 608 CURVE",
"366 607 OFFCURVE",
"363 606 OFFCURVE",
"362 605 CURVE",
"362 541 LINE",
"379 541 LINE SMOOTH",
"456 541 OFFCURVE",
"521 516 OFFCURVE",
"574 467 CURVE",
"617 423 OFFCURVE",
"644 362 OFFCURVE",
"644 311 CURVE SMOOTH",
"644 252 OFFCURVE",
"630 201 OFFCURVE",
"601 157 CURVE SMOOTH",
"554 90 OFFCURVE",
"479 56 OFFCURVE",
"376 56 CURVE SMOOTH",
"350 56 OFFCURVE",
"328 62 OFFCURVE",
"311 74 CURVE",
"271 97 OFFCURVE",
"212 155 OFFCURVE",
"212 208 CURVE"
);
}
);
width = 854;
}
);
note = three;
unicode = 0033;
},
{
glyphname = four;
lastChange = "2016-08-10 08:57:17 +0000";
layers = (
{
layerId = "5ECBA62F-7A11-49B7-B673-3B0F38FC4DA3";
paths = (
{
closed = 1;
nodes = (
"682 15 LINE",
"726 346 LINE",
"958 346 LINE",
"991 468 LINE",
"744 468 LINE",
"773 668 LINE",
"774 673 OFFCURVE",
"780 717 OFFCURVE",
"791 802 CURVE SMOOTH",
"811 933 LINE",
"829 1050 LINE SMOOTH",
"841 1116 OFFCURVE",
"847 1149 OFFCURVE",
"847 1150 CURVE",
"787 1168 LINE",
"78 422 LINE",
"89 349 LINE",
"566 349 LINE",
"513 -12 LINE"
);
},
{
closed = 1;
nodes = (
"250 468 LINE",
"639 890 LINE",
"579 468 LINE"
);
}
);
width = 942;
}
);
note = four;
unicode = 0034;
},
{
glyphname = five;
lastChange = "2016-08-10 08:57:17 +0000";
layers = (
{
layerId = "5ECBA62F-7A11-49B7-B673-3B0F38FC4DA3";
paths = (
{
closed = 1;
nodes = (
"341 -35 OFFCURVE",
"509 29 OFFCURVE",
"614 114 CURVE SMOOTH",
"717 199 OFFCURVE",
"773 310 OFFCURVE",
"773 423 CURVE SMOOTH",
"773 520 OFFCURVE",
"732 611 OFFCURVE",
"657 672 CURVE SMOOTH",
"573 739 OFFCURVE",
"459 777 OFFCURVE",
"314 786 CURVE",
"397 999 LINE",
"759 1017 LINE",
"804 1171 LINE",
"366 1144 LINE",
"170 645 LINE",
"446 626 OFFCURVE",
"584 531 OFFCURVE",
"584 359 CURVE SMOOTH",
"584 187 OFFCURVE",
"409 68 OFFCURVE",
"109 41 CURVE",
"114 -48 LINE"
);
}
);
width = 775;
}
);
note = five;
unicode = 0035;
},
{
glyphname = six;
lastChange = "2016-08-10 08:57:17 +0000";
layers = (
{
layerId = "5ECBA62F-7A11-49B7-B673-3B0F38FC4DA3";
paths = (
{
closed = 1;
nodes = (
"384 643 OFFCURVE",
"407 693 OFFCURVE",
"437 744 CURVE SMOOTH",
"493 841 OFFCURVE",
"594 951 OFFCURVE",
"695 1026 CURVE SMOOTH",
"756 1069 OFFCURVE",
"818 1104 OFFCURVE",
"882 1132 CURVE",
"854 1188 LINE",
"734 1149 OFFCURVE",
"621 1086 OFFCURVE",
"514 999 CURVE SMOOTH",
"414 919 OFFCURVE",
"315 805 OFFCURVE",
"250 693 CURVE SMOOTH",
"106 438 OFFCURVE",
"118 203 OFFCURVE",
"217 84 CURVE",
"241 53 OFFCURVE",
"274 28 OFFCURVE",
"316 7 CURVE SMOOTH",
"395 -32 OFFCURVE",
"524 -32 OFFCURVE",
"629 12 CURVE SMOOTH",
"736 55 OFFCURVE",
"817 128 OFFCURVE",
"872 230 CURVE SMOOTH",
"897 280 OFFCURVE",
"910 332 OFFCURVE",
"910 387 CURVE SMOOTH",
"910 426 OFFCURVE",
"904 464 OFFCURVE",
"892 501 CURVE",
"877 539 OFFCURVE",
"859 572 OFFCURVE",
"837 599 CURVE SMOOTH",
"789 658 OFFCURVE",
"717 693 OFFCURVE",
"637 693 CURVE SMOOTH",
"611 693 OFFCURVE",
"585 690 OFFCURVE",
"559 685 CURVE",
"526 676 OFFCURVE",
"501 668 OFFCURVE",
"486 663 CURVE",
"438 643 OFFCURVE",
"402 621 OFFCURVE",
"377 596 CURVE",
"367 596 LINE"
);
},
{
closed = 1;
nodes = (
"430 60 OFFCURVE",
"390 95 OFFCURVE",
"366 144 CURVE SMOOTH",
"339 197 OFFCURVE",
"326 261 OFFCURVE",
"326 336 CURVE SMOOTH",
"326 393 OFFCURVE",
"345 481 OFFCURVE",
"354 516 CURVE",
"360 524 OFFCURVE",
"370 533 OFFCURVE",
"385 543 CURVE",
"414 560 OFFCURVE",
"451 574 OFFCURVE",
"495 586 CURVE",
"523 590 OFFCURVE",
"542 592 OFFCURVE",
"553 592 CURVE SMOOTH",
"608 592 OFFCURVE",
"652 568 OFFCURVE",
"685 519 CURVE",
"714 472 OFFCURVE",
"728 420 OFFCURVE",
"728 362 CURVE SMOOTH",
"728 281 OFFCURVE",
"713 213 OFFCURVE",
"682 159 CURVE",
"639 93 OFFCURVE",
"572 60 OFFCURVE",
"483 60 CURVE SMOOTH"
);
}
);
width = 905;
}
);
note = six;
unicode = 0036;
},
{
glyphname = seven;
lastChange = "2016-08-10 08:57:17 +0000";
layers = (
{
layerId = "5ECBA62F-7A11-49B7-B673-3B0F38FC4DA3";
paths = (
{
closed = 1;
nodes = (
"314 -3 LINE",
"402 -33 LINE",
"983 1105 LINE",
"988 1156 LINE",
"232 1156 LINE",
"170 887 LINE",
"237 873 LINE",
"306 1007 LINE",
"809 1007 LINE"
);
}
);
width = 846;
}
);
note = seven;
unicode = 0037;
},
{
glyphname = eight;
lastChange = "2016-08-10 08:57:17 +0000";
layers = (
{
layerId = "5ECBA62F-7A11-49B7-B673-3B0F38FC4DA3";
paths = (
{
closed = 1;
nodes = (
"588 457 OFFCURVE",
"615 435 OFFCURVE",
"638 414 CURVE",
"685 367 OFFCURVE",
"715 321 OFFCURVE",
"715 273 CURVE SMOOTH",
"715 211 OFFCURVE",
"696 160 OFFCURVE",
"659 121 CURVE SMOOTH",
"622 84 OFFCURVE",
"561 65 OFFCURVE",
"477 65 CURVE SMOOTH",
"450 65 OFFCURVE",
"427 71 OFFCURVE",
"408 83 CURVE",
"387 94 OFFCURVE",
"368 110 OFFCURVE",
"352 129 CURVE",
"317 174 OFFCURVE",
"299 222 OFFCURVE",
"299 275 CURVE",
"298 347 OFFCURVE",
"319 420 OFFCURVE",
"406 493 CURVE SMOOTH",
"469 543 LINE",
"558 478 LINE SMOOTH"
);
},
{
closed = 1;
nodes = (
"132 156 OFFCURVE",
"161 91 OFFCURVE",
"216 43 CURVE",
"265 -3 OFFCURVE",
"334 -26 OFFCURVE",
"421 -26 CURVE SMOOTH",
"561 -26 OFFCURVE",
"676 14 OFFCURVE",
"756 81 CURVE SMOOTH",
"835 148 OFFCURVE",
"879 237 OFFCURVE",
"879 328 CURVE SMOOTH",
"879 427 OFFCURVE",
"812 525 OFFCURVE",
"679 622 CURVE",
"682 632 LINE",
"713 643 OFFCURVE",
"742 659 OFFCURVE",
"770 680 CURVE SMOOTH",
"827 720 OFFCURVE",
"863 773 OFFCURVE",
"892 840 CURVE",
"917 905 OFFCURVE",
"916 968 OFFCURVE",
"892 1029 CURVE",
"879 1058 OFFCURVE",
"861 1082 OFFCURVE",
"840 1103 CURVE SMOOTH",
"789 1151 OFFCURVE",
"723 1175 OFFCURVE",
"643 1175 CURVE SMOOTH",
"592 1175 OFFCURVE",
"543 1165 OFFCURVE",
"497 1145 CURVE SMOOTH",
"400 1103 OFFCURVE",
"332 1042 OFFCURVE",
"292 961 CURVE SMOOTH",
"251 882 OFFCURVE",
"255 806 OFFCURVE",
"275 753 CURVE SMOOTH",
"294 703 OFFCURVE",
"325 660 OFFCURVE",
"368 625 CURVE",
"386 608 OFFCURVE",
"403 595 OFFCURVE",
"419 586 CURVE",
"418 577 LINE",
"225 473 OFFCURVE",
"132 368 OFFCURVE",
"132 237 CURVE SMOOTH"
);
},
{
closed = 1;
nodes = (
"500 737 OFFCURVE",
"418 814 OFFCURVE",
"418 915 CURVE SMOOTH",
"418 962 OFFCURVE",
"434 1004 OFFCURVE",
"466 1039 CURVE",
"507 1080 OFFCURVE",
"554 1100 OFFCURVE",
"608 1100 CURVE SMOOTH",
"697 1100 OFFCURVE",
"765 1020 OFFCURVE",
"765 908 CURVE SMOOTH",
"765 877 OFFCURVE",
"762 848 OFFCURVE",
"757 822 CURVE",
"750 799 OFFCURVE",
"741 777 OFFCURVE",
"730 756 CURVE",
"703 717 OFFCURVE",
"673 691 OFFCURVE",
"621 662 CURVE"
);
}
);
width = 913;
}
);
note = eight;
unicode = 0038;
},
{
glyphname = nine;
lastChange = "2016-08-10 08:57:17 +0000";
layers = (
{
layerId = "5ECBA62F-7A11-49B7-B673-3B0F38FC4DA3";
paths = (
{
closed = 1;
nodes = (
"663 302 OFFCURVE",
"517 131 OFFCURVE",
"210 46 CURVE",
"223 -26 LINE",
"430 9 OFFCURVE",
"610 117 OFFCURVE",
"738 273 CURVE SMOOTH",
"865 426 OFFCURVE",
"936 621 OFFCURVE",
"936 821 CURVE SMOOTH",
"936 913 OFFCURVE",
"910 1014 OFFCURVE",
"862 1075 CURVE SMOOTH",
"805 1148 OFFCURVE",
"724 1184 OFFCURVE",
"620 1184 CURVE SMOOTH",
"524 1184 OFFCURVE",
"415 1137 OFFCURVE",
"323 1052 CURVE SMOOTH",
"226 962 OFFCURVE",
"177 858 OFFCURVE",
"177 741 CURVE SMOOTH",
"177 659 OFFCURVE",
"200 592 OFFCURVE",
"246 539 CURVE SMOOTH",
"296 484 OFFCURVE",
"362 457 OFFCURVE",
"445 457 CURVE SMOOTH",
"494 457 OFFCURVE",
"540 466 OFFCURVE",
"584 485 CURVE",
"625 498 OFFCURVE",
"676 533 OFFCURVE",
"703 562 CURVE",
"720 562 LINE"
);
},
{
closed = 1;
nodes = (
"650 1105 OFFCURVE",
"691 1072 OFFCURVE",
"720 1024 CURVE",
"735 994 OFFCURVE",
"746 965 OFFCURVE",
"753 938 CURVE",
"760 898 OFFCURVE",
"764 865 OFFCURVE",
"764 839 CURVE SMOOTH",
"764 809 OFFCURVE",
"763 783 OFFCURVE",
"760 762 CURVE SMOOTH",
"755 719 OFFCURVE",
"752 708 OFFCURVE",
"733 648 CURVE",
"722 633 OFFCURVE",
"710 621 OFFCURVE",
"695 612 CURVE SMOOTH",
"656 588 OFFCURVE",
"619 574 OFFCURVE",
"586 569 CURVE",
"567 564 OFFCURVE",
"548 562 OFFCURVE",
"531 562 CURVE SMOOTH",
"470 563 OFFCURVE",
"424 586 OFFCURVE",
"392 632 CURVE",
"361 669 OFFCURVE",
"346 726 OFFCURVE",
"346 789 CURVE SMOOTH",
"346 882 OFFCURVE",
"366 957 OFFCURVE",
"407 1012 CURVE",
"449 1074 OFFCURVE",
"514 1105 OFFCURVE",
"602 1105 CURVE SMOOTH"
);
}
);
width = 904;
}
);
note = nine;
unicode = 0039;
},
{
glyphname = colon;
lastChange = "2016-08-10 08:57:17 +0000";
layers = (
{
layerId = "5ECBA62F-7A11-49B7-B673-3B0F38FC4DA3";
paths = (
{
closed = 1;
nodes = (
"294 857 OFFCURVE",
"235 800 OFFCURVE",
"235 725 CURVE SMOOTH",
"235 677 OFFCURVE",
"285 625 OFFCURVE",
"334 625 CURVE SMOOTH",
"407 625 OFFCURVE",
"463 681 OFFCURVE",
"463 756 CURVE SMOOTH",
"463 811 OFFCURVE",
"424 857 OFFCURVE",
"367 857 CURVE SMOOTH"
);
},
{
closed = 1;
nodes = (
"198 230 OFFCURVE",
"139 173 OFFCURVE",
"139 98 CURVE SMOOTH",
"139 50 OFFCURVE",
"191 -3 OFFCURVE",
"240 -3 CURVE SMOOTH",
"313 -3 OFFCURVE",
"369 52 OFFCURVE",
"369 127 CURVE SMOOTH",
"369 183 OFFCURVE",
"328 230 OFFCURVE",
"271 230 CURVE SMOOTH"
);
}
);
width = 468;
}
);
note = colon;
unicode = 003A;
},
{
glyphname = semicolon;
lastChange = "2016-08-10 08:57:17 +0000";
layers = (
{
layerId = "5ECBA62F-7A11-49B7-B673-3B0F38FC4DA3";
paths = (
{
closed = 1;
nodes = (
"110 -285 OFFCURVE",
"154 -268 OFFCURVE",
"193 -247 CURVE SMOOTH",
"330 -174 OFFCURVE",
"390 -61 OFFCURVE",
"390 26 CURVE SMOOTH",
"390 163 OFFCURVE",
"323 202 OFFCURVE",
"251 202 CURVE SMOOTH",
"191 202 OFFCURVE",
"117 143 OFFCURVE",
"117 76 CURVE SMOOTH",
"117 61 OFFCURVE",
"119 44 OFFCURVE",
"124 25 CURVE",
"141 29 OFFCURVE",
"150 31 OFFCURVE",
"152 31 CURVE SMOOTH",
"215 31 OFFCURVE",
"246 -4 OFFCURVE",
"246 -61 CURVE SMOOTH",
"246 -129 OFFCURVE",
"167 -201 OFFCURVE",
"50 -233 CURVE",
"60 -298 LINE"
);
},
{
closed = 1;
nodes = (
"319 857 OFFCURVE",
"260 800 OFFCURVE",
"260 725 CURVE SMOOTH",
"260 677 OFFCURVE",
"310 625 OFFCURVE",
"359 625 CURVE SMOOTH",
"432 625 OFFCURVE",
"488 681 OFFCURVE",
"488 756 CURVE SMOOTH",
"488 811 OFFCURVE",
"449 857 OFFCURVE",
"392 857 CURVE SMOOTH"
);
}
);
width = 493;
}
);
note = semicolon;
unicode = 003B;
},
{
glyphname = less;
lastChange = "2016-08-10 08:57:17 +0000";
layers = (
{
layerId = "5ECBA62F-7A11-49B7-B673-3B0F38FC4DA3";
paths = (
{
closed = 1;
nodes = (
"669 -13 LINE",
"360 455 LINE",
"793 903 LINE",
"749 974 LINE",
"127 457 LINE",
"120 428 LINE",
"595 -83 LINE"
);
}
);
width = 741;
}
);
note = less;
unicode = 003C;
},
{
glyphname = equal;
lastChange = "2016-08-10 08:57:17 +0000";
layers = (
{
layerId = "5ECBA62F-7A11-49B7-B673-3B0F38FC4DA3";
paths = (
{
closed = 1;
nodes = (
"789 319 LINE",
"817 425 LINE",
"202 425 LINE",
"174 319 LINE"
);
},
{
closed = 1;
nodes = (
"830 559 LINE",
"859 665 LINE",
"243 665 LINE",
"215 559 LINE"
);
}
);
width = 878;
}
);
note = equal;
unicode = 003D;
},
{
glyphname = greater;
lastChange = "2016-08-10 08:57:17 +0000";
layers = (
{
layerId = "5ECBA62F-7A11-49B7-B673-3B0F38FC4DA3";
paths = (
{
closed = 1;
nodes = (
"303 974 LINE",
"235 903 LINE",
"526 455 LINE",
"71 -13 LINE",
"122 -83 LINE",
"759 428 LINE",
"763 457 LINE"
);
}
);
width = 743;
}
);
note = greater;
unicode = 003E;
},
{
glyphname = question;
lastChange = "2016-08-10 08:57:17 +0000";
layers = (
{
layerId = "5ECBA62F-7A11-49B7-B673-3B0F38FC4DA3";
paths = (
{
closed = 1;
nodes = (
"251 213 OFFCURVE",
"190 153 OFFCURVE",
"190 73 CURVE SMOOTH",
"190 22 OFFCURVE",
"243 -33 OFFCURVE",
"296 -33 CURVE SMOOTH",
"375 -33 OFFCURVE",
"433 26 OFFCURVE",
"433 106 CURVE SMOOTH",
"433 165 OFFCURVE",
"391 213 OFFCURVE",
"331 213 CURVE SMOOTH"
);
},
{
closed = 1;
nodes = (
"245 1097 OFFCURVE",
"268 1059 OFFCURVE",
"303 1044 CURVE",
"355 1091 OFFCURVE",
"423 1115 OFFCURVE",
"506 1115 CURVE SMOOTH",
"574 1115 OFFCURVE",
"642 1045 OFFCURVE",
"642 958 CURVE SMOOTH",
"642 928 OFFCURVE",
"635 902 OFFCURVE",
"622 880 CURVE SMOOTH",
"601 847 OFFCURVE",
"560 816 OFFCURVE",
"499 789 CURVE SMOOTH",
"364 729 OFFCURVE",
"278 687 OFFCURVE",
"278 543 CURVE SMOOTH",
"278 482 OFFCURVE",
"293 423 OFFCURVE",
"323 367 CURVE",
"399 384 LINE",
"394 419 OFFCURVE",
"392 452 OFFCURVE",
"392 483 CURVE SMOOTH",
"392 508 OFFCURVE",
"399 531 OFFCURVE",
"412 550 CURVE SMOOTH",
"435 586 OFFCURVE",
"471 606 OFFCURVE",
"532 637 CURVE SMOOTH",
"653 698 OFFCURVE",
"748 759 OFFCURVE",
"748 930 CURVE SMOOTH",
"748 1135 OFFCURVE",
"624 1290 OFFCURVE",
"465 1290 CURVE SMOOTH",
"429 1290 OFFCURVE",
"396 1285 OFFCURVE",
"366 1276 CURVE SMOOTH",
"306 1256 OFFCURVE",
"245 1206 OFFCURVE",
"245 1145 CURVE SMOOTH"
);
}
);
width = 684;
}
);
note = question;
unicode = 003F;
},
{
glyphname = at;
lastChange = "2016-08-10 08:57:17 +0000";
layers = (
{
layerId = "5ECBA62F-7A11-49B7-B673-3B0F38FC4DA3";
paths = (
{
closed = 1;
nodes = (
"768 205 OFFCURVE",
"720 180 OFFCURVE",
"671 180 CURVE SMOOTH",
"631 180 OFFCURVE",
"616 191 OFFCURVE",
"604 239 CURVE SMOOTH",
"598 265 OFFCURVE",
"595 302 OFFCURVE",
"595 351 CURVE SMOOTH",
"595 403 OFFCURVE",
"603 456 OFFCURVE",
"620 510 CURVE SMOOTH",
"653 622 OFFCURVE",
"722 705 OFFCURVE",
"793 705 CURVE SMOOTH",
"820 705 OFFCURVE",
"849 701 OFFCURVE",
"881 693 CURVE",
"813 255 LINE"
);
},
{
closed = 1;
nodes = (
"1408 532 OFFCURVE",
"1419 698 OFFCURVE",
"1328 835 CURVE SMOOTH",
"1237 971 OFFCURVE",
"1078 1046 OFFCURVE",
"889 1046 CURVE SMOOTH",
"785 1046 OFFCURVE",
"686 1027 OFFCURVE",
"591 988 CURVE SMOOTH",
"402 911 OFFCURVE",
"265 773 OFFCURVE",
"189 593 CURVE SMOOTH",
"113 412 OFFCURVE",
"119 223 OFFCURVE",
"167 100 CURVE SMOOTH",
"212 -21 OFFCURVE",
"288 -99 OFFCURVE",
"400 -154 CURVE SMOOTH",
"500 -203 OFFCURVE",
"616 -228 OFFCURVE",
"749 -228 CURVE SMOOTH",
"945 -228 OFFCURVE",
"1058 -161 OFFCURVE",
"1170 -88 CURVE",
"1179 -83 LINE",
"1144 -20 LINE",
"1134 -28 LINE",
"1058 -80 OFFCURVE",
"904 -136 OFFCURVE",
"788 -136 CURVE SMOOTH",
"467 -136 OFFCURVE",
"287 38 OFFCURVE",
"287 341 CURVE SMOOTH",
"287 496 OFFCURVE",
"345 651 OFFCURVE",
"444 767 CURVE SMOOTH",
"544 883 OFFCURVE",
"693 956 OFFCURVE",
"849 956 CURVE SMOOTH",
"974 956 OFFCURVE",
"1074 921 OFFCURVE",
"1149 852 CURVE SMOOTH",
"1297 713 OFFCURVE",
"1271 488 OFFCURVE",
"1223 368 CURVE SMOOTH",
"1174 247 OFFCURVE",
"1084 169 OFFCURVE",
"985 169 CURVE",
"970 168 OFFCURVE",
"962 185 OFFCURVE",
"962 218 CURVE SMOOTH",
"962 235 OFFCURVE",
"969 291 OFFCURVE",
"982 385 CURVE SMOOTH",
"1035 753 LINE",
"1018 773 LINE",
"1015 774 LINE",
"964 785 OFFCURVE",
"909 791 OFFCURVE",
"849 791 CURVE SMOOTH",
"765 791 OFFCURVE",
"664 739 OFFCURVE",
"580 658 CURVE SMOOTH",
"493 575 OFFCURVE",
"436 443 OFFCURVE",
"436 308 CURVE SMOOTH",
"436 143 OFFCURVE",
"496 60 OFFCURVE",
"608 60 CURVE SMOOTH",
"675 60 OFFCURVE",
"751 114 OFFCURVE",
"800 187 CURVE",
"808 187 LINE",
"808 184 OFFCURVE",
"808 181 OFFCURVE",
"807 178 CURVE SMOOTH",
"806 175 OFFCURVE",
"806 172 OFFCURVE",
"806 169 CURVE SMOOTH",
"806 106 OFFCURVE",
"845 69 OFFCURVE",
"901 69 CURVE SMOOTH",
"966 69 OFFCURVE",
"1029 84 OFFCURVE",
"1092 114 CURVE SMOOTH",
"1216 173 OFFCURVE",
"1304 274 OFFCURVE",
"1356 403 CURVE SMOOTH"
);
}
);
width = 1391;
}
);
note = at;
unicode = 0040;
},
{
glyphname = A;
lastChange = "2016-08-10 08:57:17 +0000";
layers = (
{
layerId = "5ECBA62F-7A11-49B7-B673-3B0F38FC4DA3";
paths = (
{
closed = 1;
nodes = (
"135 129 LINE",
"-14 74 LINE",
"-32 0 LINE",
"414 0 LINE",
"436 81 LINE",
"266 124 LINE",
"419 433 LINE",
"820 433 LINE",
"876 129 LINE",
"704 74 LINE",
"684 0 LINE",
"1169 0 LINE",
"1187 81 LINE",
"1063 124 LINE",
"874 1270 LINE",
"727 1239 LINE"
);
},
{
closed = 1;
nodes = (
"806 534 LINE",
"471 534 LINE",
"727 1036 LINE"
);
}
);
width = 1159;
}
);
note = A;
unicode = 0041;
},
{
glyphname = B;
lastChange = "2016-08-10 08:57:17 +0000";
layers = (
{
layerId = "5ECBA62F-7A11-49B7-B673-3B0F38FC4DA3";
paths = (
{
closed = 1;
nodes = (
"863 605 OFFCURVE",
"945 514 OFFCURVE",
"945 390 CURVE SMOOTH",
"945 314 OFFCURVE",
"919 248 OFFCURVE",
"867 191 CURVE SMOOTH",
"814 132 OFFCURVE",
"726 96 OFFCURVE",
"622 96 CURVE SMOOTH",
"428 96 LINE",
"518 605 LINE",
"731 605 LINE SMOOTH"
);
},
{
closed = 1;
nodes = (
"1067 747 OFFCURVE",
"1135 889 OFFCURVE",
"1135 1004 CURVE SMOOTH",
"1135 1139 OFFCURVE",
"1022 1259 OFFCURVE",
"766 1259 CURVE SMOOTH",
"650 1259 OFFCURVE",
"489 1244 OFFCURVE",
"283 1213 CURVE",
"263 1136 LINE",
"422 1107 LINE",
"251 121 LINE",
"83 74 LINE",
"65 0 LINE",
"521 0 LINE SMOOTH",
"604 0 OFFCURVE",
"679 9 OFFCURVE",
"747 26 CURVE SMOOTH",
"996 89 OFFCURVE",
"1136 255 OFFCURVE",
"1136 422 CURVE SMOOTH",
"1136 559 OFFCURVE",
"1042 664 OFFCURVE",
"882 673 CURVE",
"883 682 LINE"
);
},
{
closed = 1;
nodes = (
"642 1171 OFFCURVE",
"668 1173 OFFCURVE",
"693 1173 CURVE SMOOTH",
"882 1173 OFFCURVE",
"946 1073 OFFCURVE",
"946 956 CURVE SMOOTH",
"945 795 OFFCURVE",
"861 690 OFFCURVE",
"733 690 CURVE SMOOTH",
"534 690 LINE",
"617 1166 LINE"
);
}
);
width = 1140;
}
);
note = B;
unicode = 0042;
},
{
glyphname = C;
lastChange = "2016-08-10 08:57:17 +0000";
layers = (
{
layerId = "5ECBA62F-7A11-49B7-B673-3B0F38FC4DA3";
paths = (
{
closed = 1;
nodes = (
"420 280 OFFCURVE",
"380 396 OFFCURVE",
"380 539 CURVE SMOOTH",
"380 723 OFFCURVE",
"431 890 OFFCURVE",
"516 1002 CURVE SMOOTH",
"600 1111 OFFCURVE",
"712 1176 OFFCURVE",
"828 1176 CURVE SMOOTH",
"941 1176 OFFCURVE",
"1024 1137 OFFCURVE",
"1061 1072 CURVE",
"1065 852 LINE",
"1146 839 LINE",
"1228 1171 LINE",
"1155 1238 OFFCURVE",
"1046 1272 OFFCURVE",
"901 1272 CURVE SMOOTH",
"834 1272 OFFCURVE",
"769 1263 OFFCURVE",
"706 1246 CURVE SMOOTH",
"594 1213 OFFCURVE",
"494 1152 OFFCURVE",
"406 1063 CURVE SMOOTH",
"254 910 OFFCURVE",
"168 678 OFFCURVE",
"168 483 CURVE SMOOTH",
"168 324 OFFCURVE",
"220 189 OFFCURVE",
"311 105 CURVE SMOOTH",
"403 18 OFFCURVE",
"515 -25 OFFCURVE",
"648 -25 CURVE SMOOTH",
"827 -25 OFFCURVE",
"998 48 OFFCURVE",
"1129 203 CURVE",
"1091 258 LINE",
"982 157 OFFCURVE",
"866 106 OFFCURVE",
"744 106 CURVE SMOOTH",
"643 106 OFFCURVE",
"558 141 OFFCURVE",
"489 211 CURVE SMOOTH"
);
}
);
width = 1148;
}
);
note = C;
unicode = 0043;
},
{
glyphname = D;
lastChange = "2016-08-10 08:57:17 +0000";
layers = (
{
layerId = "5ECBA62F-7A11-49B7-B673-3B0F38FC4DA3";
paths = (
{
closed = 1;
nodes = (
"645 1156 OFFCURVE",
"684 1158 OFFCURVE",
"724 1158 CURVE SMOOTH",
"869 1158 OFFCURVE",
"988 1108 OFFCURVE",
"1060 1023 CURVE SMOOTH",
"1131 939 OFFCURVE",
"1167 832 OFFCURVE",
"1167 703 CURVE SMOOTH",
"1167 547 OFFCURVE",
"1108 397 OFFCURVE",
"1008 285 CURVE SMOOTH",
"907 173 OFFCURVE",
"750 104 OFFCURVE",
"581 104 CURVE SMOOTH",
"441 104 LINE",
"606 1151 LINE"
);
},
{
closed = 1;
nodes = (
"1090 1228 OFFCURVE",
"952 1261 OFFCURVE",
"777 1261 CURVE SMOOTH",
"647 1261 OFFCURVE",
"480 1244 OFFCURVE",
"277 1211 CURVE",
"257 1135 LINE",
"418 1105 LINE",
"264 129 LINE",
"92 74 LINE",
"72 0 LINE",
"525 0 LINE SMOOTH",
"627 0 OFFCURVE",
"723 14 OFFCURVE",
"813 43 CURVE SMOOTH",
"1154 151 OFFCURVE",
"1382 449 OFFCURVE",
"1382 766 CURVE SMOOTH",
"1382 822 OFFCURVE",
"1376 873 OFFCURVE",
"1364 919 CURVE SMOOTH",
"1339 1016 OFFCURVE",
"1278 1104 OFFCURVE",
"1189 1163 CURVE SMOOTH"
);
}
);
width = 1349;
}
);
note = D;
unicode = 0044;
},
{
glyphname = E;
lastChange = "2016-08-10 08:57:17 +0000";
layers = (
{
layerId = "5ECBA62F-7A11-49B7-B673-3B0F38FC4DA3";
paths = (
{
closed = 1;
nodes = (
"422 1128 LINE",
"263 121 LINE",
"98 74 LINE",
"83 0 LINE",
"1046 0 LINE",
"1125 314 LINE",
"1047 326 LINE",
"916 96 LINE",
"442 96 LINE",
"519 584 LINE",
"782 584 LINE",
"787 409 LINE",
"872 422 LINE",
"964 811 LINE",
"873 797 LINE",
"812 678 LINE",
"534 678 LINE",
"609 1155 LINE",
"1060 1155 LINE",
"1065 940 LINE",
"1146 926 LINE",
"1226 1246 LINE",
"271 1246 LINE",
"255 1170 LINE"
);
}
);
width = 1135;
}
);
note = E;
unicode = 0045;
},
{
glyphname = F;
lastChange = "2016-08-10 08:57:17 +0000";
layers = (
{
layerId = "5ECBA62F-7A11-49B7-B673-3B0F38FC4DA3";
paths = (
{
closed = 1;
nodes = (
"422 1128 LINE",
"263 121 LINE",
"98 74 LINE",
"83 0 LINE",
"647 0 LINE",
"667 84 LINE",
"445 122 LINE",
"518 579 LINE",
"779 579 LINE",
"781 399 LINE",
"868 414 LINE",
"955 806 LINE",
"868 792 LINE",
"807 672 LINE",
"533 672 LINE",
"609 1155 LINE",
"1054 1155 LINE",
"1054 938 LINE",
"1135 925 LINE",
"1224 1246 LINE",
"273 1246 LINE",
"255 1170 LINE"
);
}
);
width = 1052;
}
);
note = F;
unicode = 0046;
},
{
glyphname = G;
lastChange = "2016-08-10 08:57:17 +0000";
layers = (
{
layerId = "5ECBA62F-7A11-49B7-B673-3B0F38FC4DA3";
paths = (
{
closed = 1;
nodes = (
"1220 1230 OFFCURVE",
"1089 1262 OFFCURVE",
"912 1262 CURVE SMOOTH",
"839 1262 OFFCURVE",
"768 1251 OFFCURVE",
"699 1229 CURVE SMOOTH",
"554 1183 OFFCURVE",
"430 1095 OFFCURVE",
"329 966 CURVE SMOOTH",
"280 902 OFFCURVE",
"241 827 OFFCURVE",
"213 741 CURVE SMOOTH",
"156 568 OFFCURVE",
"132 306 OFFCURVE",
"281 118 CURVE SMOOTH",
"356 23 OFFCURVE",
"483 -31 OFFCURVE",
"639 -31 CURVE SMOOTH",
"846 -31 OFFCURVE",
"1021 12 OFFCURVE",
"1134 88 CURVE",
"1189 440 LINE",
"1313 481 LINE",
"1331 556 LINE",
"800 556 LINE",
"780 473 LINE",
"1000 435 LINE",
"950 122 LINE",
"915 91 OFFCURVE",
"855 76 OFFCURVE",
"772 76 CURVE SMOOTH",
"515 76 OFFCURVE",
"385 235 OFFCURVE",
"385 539 CURVE SMOOTH",
"385 628 OFFCURVE",
"394 708 OFFCURVE",
"412 780 CURVE SMOOTH",
"477 1043 OFFCURVE",
"653 1163 OFFCURVE",
"848 1163 CURVE SMOOTH",
"999 1163 OFFCURVE",
"1102 1116 OFFCURVE",
"1142 1049 CURVE",
"1146 857 LINE",
"1227 842 LINE",
"1304 1165 LINE"
);
}
);
width = 1285;
}
);
note = G;
unicode = 0047;
},
{
glyphname = H;
lastChange = "2016-08-10 08:57:17 +0000";
layers = (
{
layerId = "5ECBA62F-7A11-49B7-B673-3B0F38FC4DA3";
paths = (
{
closed = 1;
nodes = (
"437 114 LINE",
"511 591 LINE",
"1082 592 LINE",
"1007 121 LINE",
"852 74 LINE",
"834 0 LINE",
"1327 0 LINE",
"1345 81 LINE",
"1183 114 LINE",
"1343 1132 LINE",
"1502 1170 LINE",
"1519 1246 LINE",
"1024 1246 LINE",
"1006 1170 LINE",
"1166 1128 LINE",
"1098 693 LINE",
"529 693 LINE",
"597 1132 LINE",
"756 1170 LINE",
"773 1246 LINE",
"278 1246 LINE",
"261 1170 LINE",
"420 1128 LINE",
"261 121 LINE",
"104 74 LINE",
"89 0 LINE",
"581 0 LINE",
"602 81 LINE"
);
}
);
width = 1406;
}
);
note = H;
unicode = 0048;
},
{
glyphname = I;
lastChange = "2016-08-10 08:57:17 +0000";
layers = (
{
layerId = "5ECBA62F-7A11-49B7-B673-3B0F38FC4DA3";
paths = (
{
closed = 1;
nodes = (
"445 114 LINE",
"605 1132 LINE",
"774 1170 LINE",
"791 1246 LINE",
"271 1246 LINE",
"255 1170 LINE",
"422 1128 LINE",
"263 121 LINE",
"98 74 LINE",
"83 0 LINE",
"596 0 LINE",
"615 81 LINE"
);
}
);
width = 670;
}
);
note = I;
unicode = 0049;
},
{
glyphname = J;
lastChange = "2016-08-10 08:57:17 +0000";
layers = (
{
layerId = "5ECBA62F-7A11-49B7-B673-3B0F38FC4DA3";
paths = (
{
closed = 1;
nodes = (
"765 1170 LINE",
"778 1246 LINE",
"259 1246 LINE",
"244 1170 LINE",
"409 1128 LINE",
"261 197 LINE SMOOTH",
"236 44 OFFCURVE",
"148 -83 OFFCURVE",
"-31 -238 CURVE",
"-23 -271 OFFCURVE",
"-10 -300 OFFCURVE",
"7 -326 CURVE",
"120 -257 OFFCURVE",
"183 -210 OFFCURVE",
"248 -149 CURVE SMOOTH",
"315 -86 OFFCURVE",
"353 -28 OFFCURVE",
"392 60 CURVE SMOOTH",
"425 135 OFFCURVE",
"453 243 OFFCURVE",
"476 385 CURVE SMOOTH",
"596 1132 LINE"
);
}
);
width = 635;
}
);
note = J;
unicode = 004A;
},
{
glyphname = K;
lastChange = "2016-08-10 08:57:17 +0000";
layers = (
{
layerId = "5ECBA62F-7A11-49B7-B673-3B0F38FC4DA3";
paths = (
{
closed = 1;
nodes = (
"836 86 OFFCURVE",
"933 -22 OFFCURVE",
"1086 -22 CURVE SMOOTH",
"1128 -22 OFFCURVE",
"1170 -15 OFFCURVE",
"1212 0 CURVE",
"1233 73 LINE",
"1200 84 LINE SMOOTH",
"1092 123 OFFCURVE",
"1034 184 OFFCURVE",
"906 380 CURVE SMOOTH",
"732 650 LINE",
"1169 1123 LINE",
"1346 1170 LINE",
"1364 1246 LINE",
"889 1246 LINE",
"874 1170 LINE",
"1022 1123 LINE",
"679 738 LINE SMOOTH",
"651 706 OFFCURVE",
"611 670 OFFCURVE",
"558 630 CURVE",
"553 605 LINE",
"568 591 OFFCURVE",
"590 559 OFFCURVE",
"620 510 CURVE",
"747 261 LINE SMOOTH"
);
},
{
closed = 1;
nodes = (
"778 1170 LINE",
"795 1246 LINE",
"270 1246 LINE",
"251 1170 LINE",
"423 1120 LINE",
"267 129 LINE",
"93 74 LINE",
"79 0 LINE",
"606 0 LINE",
"624 81 LINE",
"451 124 LINE",
"606 1123 LINE"
);
}
);
width = 1210;
}
);
note = K;
unicode = 004B;
},
{
glyphname = L;
lastChange = "2016-08-10 08:57:17 +0000";
layers = (
{
layerId = "5ECBA62F-7A11-49B7-B673-3B0F38FC4DA3";
paths = (
{
closed = 1;
nodes = (
"249 1170 LINE",
"421 1120 LINE",
"264 121 LINE",
"97 74 LINE",
"84 0 LINE",
"1022 0 LINE",
"1109 331 LINE",
"1028 344 LINE",
"864 96 LINE",
"443 96 LINE",
"605 1123 LINE",
"777 1170 LINE",
"793 1246 LINE",
"269 1246 LINE"
);
}
);
width = 1076;
}
);
note = L;
unicode = 004C;
},
{
glyphname = M;
lastChange = "2016-08-10 08:57:17 +0000";
layers = (
{
layerId = "5ECBA62F-7A11-49B7-B673-3B0F38FC4DA3";
paths = (
{
closed = 1;
nodes = (
"1359 1006 LINE",
"1273 121 LINE",
"1109 74 LINE",
"1091 0 LINE",
"1601 0 LINE",
"1619 81 LINE",
"1450 114 LINE",
"1559 1132 LINE",
"1726 1170 LINE",
"1743 1246 LINE",
"1366 1246 LINE",
"1280 1085 LINE",
"861 309 LINE",
"729 1052 LINE",
"686 1246 LINE",
"304 1246 LINE",
"285 1170 LINE",
"454 1128 LINE",
"226 121 LINE",
"60 74 LINE",
"42 0 LINE",
"500 0 LINE",
"522 81 LINE",
"348 114 LINE",
"543 968 LINE",
"725 31 LINE",
"845 51 LINE"
);
}
);
width = 1647;
}
);
note = M;
unicode = 004D;
},
{
glyphname = N;
lastChange = "2016-08-10 08:57:17 +0000";
layers = (
{
layerId = "5ECBA62F-7A11-49B7-B673-3B0F38FC4DA3";
paths = (
{
closed = 1;
nodes = (
"1318 1132 LINE",
"1483 1170 LINE",
"1501 1246 LINE",
"1048 1246 LINE",
"1030 1170 LINE",
"1200 1128 LINE",
"1066 273 LINE",
"606 1246 LINE",
"272 1246 LINE",
"256 1170 LINE",
"421 1120 LINE",
"264 121 LINE",
"98 74 LINE",
"84 0 LINE",
"537 0 LINE",
"555 81 LINE",
"383 114 LINE",
"517 963 LINE",
"993 -30 LINE",
"1139 0 LINE"
);
}
);
width = 1359;
}
);
note = N;
unicode = 004E;
},
{
glyphname = O;
lastChange = "2016-08-10 08:57:17 +0000";
layers = (
{
layerId = "5ECBA62F-7A11-49B7-B673-3B0F38FC4DA3";
paths = (
{
closed = 1;
nodes = (
"1126 940 OFFCURVE",
"1149 835 OFFCURVE",
"1150 715 CURVE SMOOTH",
"1150 684 OFFCURVE",
"1149 648 OFFCURVE",
"1146 608 CURVE SMOOTH",
"1139 523 OFFCURVE",
"1122 443 OFFCURVE",
"1096 370 CURVE SMOOTH",
"1032 195 OFFCURVE",
"910 79 OFFCURVE",
"698 79 CURVE SMOOTH",
"594 79 OFFCURVE",
"512 130 OFFCURVE",
"464 217 CURVE SMOOTH",
"417 302 OFFCURVE",
"394 405 OFFCURVE",
"394 528 CURVE SMOOTH",
"394 563 OFFCURVE",
"395 600 OFFCURVE",
"398 640 CURVE SMOOTH",
"410 817 OFFCURVE",
"462 992 OFFCURVE",
"581 1092 CURVE SMOOTH",
"644 1145 OFFCURVE",
"739 1178 OFFCURVE",
"844 1178 CURVE SMOOTH",
"947 1178 OFFCURVE",
"1031 1123 OFFCURVE",
"1079 1031 CURVE SMOOTH"
);
},
{
closed = 1;
nodes = (
"1170 1216 OFFCURVE",
"1049 1275 OFFCURVE",
"905 1275 CURVE SMOOTH",
"696 1275 OFFCURVE",
"506 1193 OFFCURVE",
"377 1056 CURVE SMOOTH",
"249 919 OFFCURVE",
"175 722 OFFCURVE",
"175 506 CURVE SMOOTH",
"175 306 OFFCURVE",
"250 136 OFFCURVE",
"391 44 CURVE SMOOTH",
"532 -49 OFFCURVE",
"727 -41 OFFCURVE",
"882 14 CURVE SMOOTH",
"1029 65 OFFCURVE",
"1147 157 OFFCURVE",
"1236 291 CURVE SMOOTH",
"1405 544 OFFCURVE",
"1403 910 OFFCURVE",
"1247 1115 CURVE SMOOTH"
);
}
);
width = 1341;
}
);
note = O;
unicode = 004F;
},
{
glyphname = P;
lastChange = "2016-08-10 08:57:17 +0000";
layers = (
{
layerId = "5ECBA62F-7A11-49B7-B673-3B0F38FC4DA3";
paths = (
{
closed = 1;
nodes = (
"1167 1357 OFFCURVE",
"656 1273 OFFCURVE",
"279 1213 CURVE",
"257 1136 LINE",
"414 1107 LINE",
"261 121 LINE",
"93 74 LINE",
"77 0 LINE",
"643 0 LINE",
"664 84 LINE",
"443 122 LINE",
"608 1170 LINE",
"711 1175 LINE",
"875 1175 OFFCURVE",
"962 1075 OFFCURVE",
"962 918 CURVE SMOOTH",
"962 699 OFFCURVE",
"843 582 OFFCURVE",
"610 582 CURVE SMOOTH",
"558 582 LINE",
"565 500 LINE",
"603 494 OFFCURVE",
"639 491 OFFCURVE",
"672 491 CURVE SMOOTH",
"797 491 OFFCURVE",
"924 540 OFFCURVE",
"1016 621 CURVE SMOOTH",
"1109 702 OFFCURVE",
"1167 826 OFFCURVE",
"1167 958 CURVE SMOOTH"
);
}
);
width = 1071;
}
);
note = P;
unicode = 0050;
},
{
glyphname = Q;
lastChange = "2016-08-10 08:57:17 +0000";
layers = (
{
layerId = "5ECBA62F-7A11-49B7-B673-3B0F38FC4DA3";
paths = (
{
closed = 1;
nodes = (
"1154 879 OFFCURVE",
"1171 786 OFFCURVE",
"1171 682 CURVE SMOOTH",
"1171 643 OFFCURVE",
"1170 610 OFFCURVE",
"1168 583 CURVE SMOOTH",
"1162 505 OFFCURVE",
"1147 436 OFFCURVE",
"1124 377 CURVE SMOOTH",
"1067 229 OFFCURVE",
"953 117 OFFCURVE",
"756 68 CURVE",
"699 71 OFFCURVE",
"648 84 OFFCURVE",
"605 106 CURVE SMOOTH",
"446 183 OFFCURVE",
"377 368 OFFCURVE",
"377 561 CURVE SMOOTH",
"377 940 OFFCURVE",
"556 1170 OFFCURVE",
"847 1170 CURVE SMOOTH",
"888 1169 OFFCURVE",
"926 1160 OFFCURVE",
"963 1143 CURVE",
"1028 1109 OFFCURVE",
"1080 1048 OFFCURVE",
"1119 960 CURVE SMOOTH"
);
},
{
closed = 1;
nodes = (
"695 -161 OFFCURVE",
"722 -239 OFFCURVE",
"776 -297 CURVE SMOOTH",
"883 -414 OFFCURVE",
"1061 -398 OFFCURVE",
"1158 -351 CURVE",
"1168 -333 OFFCURVE",
"1175 -308 OFFCURVE",
"1180 -276 CURVE",
"1053 -254 OFFCURVE",
"962 -220 OFFCURVE",
"908 -174 CURVE SMOOTH",
"855 -129 OFFCURVE",
"828 -82 OFFCURVE",
"811 -7 CURVE",
"923 20 OFFCURVE",
"1023 71 OFFCURVE",
"1110 145 CURVE SMOOTH",
"1282 290 OFFCURVE",
"1378 505 OFFCURVE",
"1378 738 CURVE SMOOTH",
"1378 891 OFFCURVE",
"1339 1017 OFFCURVE",
"1260 1118 CURVE SMOOTH",
"1183 1218 OFFCURVE",
"1061 1275 OFFCURVE",
"918 1275 CURVE SMOOTH",
"711 1275 OFFCURVE",
"520 1194 OFFCURVE",
"386 1056 CURVE SMOOTH",
"252 918 OFFCURVE",
"174 719 OFFCURVE",
"174 506 CURVE SMOOTH",
"174 405 OFFCURVE",
"192 314 OFFCURVE",
"229 235 CURVE SMOOTH",
"304 72 OFFCURVE",
"452 -26 OFFCURVE",
"635 -26 CURVE SMOOTH",
"668 -27 OFFCURVE",
"688 -25 OFFCURVE",
"696 -22 CURVE",
"695 -35 OFFCURVE",
"695 -48 OFFCURVE",
"695 -63 CURVE SMOOTH"
);
}
);
width = 1354;
}
);
note = Q;
unicode = 0051;
},
{
glyphname = R;
lastChange = "2016-08-10 08:57:17 +0000";
layers = (
{
layerId = "5ECBA62F-7A11-49B7-B673-3B0F38FC4DA3";
paths = (
{
closed = 1;
nodes = (
"1029 1216 OFFCURVE",
"904 1255 OFFCURVE",
"723 1256 CURVE SMOOTH",
"619 1255 OFFCURVE",
"471 1240 OFFCURVE",
"280 1209 CURVE",
"256 1133 LINE",
"417 1103 LINE",
"262 121 LINE",
"94 74 LINE",
"78 0 LINE",
"600 0 LINE",
"619 83 LINE",
"445 126 LINE",
"510 538 LINE",
"675 538 LINE",
"784 253 LINE SMOOTH",
"853 72 OFFCURVE",
"944 -22 OFFCURVE",
"1079 -22 CURVE SMOOTH",
"1116 -22 OFFCURVE",
"1156 -15 OFFCURVE",
"1198 0 CURVE",
"1223 68 LINE",
"1194 78 LINE",
"1181 83 OFFCURVE",
"1166 89 OFFCURVE",
"1150 98 CURVE SMOOTH",
"1119 115 OFFCURVE",
"1095 132 OFFCURVE",
"1080 151 CURVE",
"1032 204 OFFCURVE",
"1003 262 OFFCURVE",
"956 349 CURVE SMOOTH",
"824 599 LINE",
"824 601 LINE",
"927 638 OFFCURVE",
"1009 690 OFFCURVE",
"1068 759 CURVE SMOOTH",
"1184 896 OFFCURVE",
"1173 1051 OFFCURVE",
"1098 1138 CURVE SMOOTH"
);
},
{
closed = 1;
nodes = (
"624 1168 LINE",
"675 1170 OFFCURVE",
"709 1171 OFFCURVE",
"726 1171 CURVE SMOOTH",
"862 1171 OFFCURVE",
"948 1069 OFFCURVE",
"948 926 CURVE SMOOTH",
"948 762 OFFCURVE",
"821 629 OFFCURVE",
"682 629 CURVE SMOOTH",
"523 629 LINE",
"609 1166 LINE"
);
}
);
width = 1167;
}
);
note = R;
unicode = 0052;
},
{
glyphname = S;
lastChange = "2016-08-10 08:57:17 +0000";
layers = (
{
layerId = "5ECBA62F-7A11-49B7-B673-3B0F38FC4DA3";
paths = (
{
closed = 1;
nodes = (
"885 1240 OFFCURVE",
"791 1272 OFFCURVE",
"687 1272 CURVE SMOOTH",
"644 1272 OFFCURVE",
"602 1266 OFFCURVE",
"562 1254 CURVE SMOOTH",
"394 1203 OFFCURVE",
"256 1055 OFFCURVE",
"256 855 CURVE SMOOTH",
"257 722 OFFCURVE",
"363 629 OFFCURVE",
"483 553 CURVE SMOOTH",
"606 474 OFFCURVE",
"710 400 OFFCURVE",
"710 297 CURVE SMOOTH",
"710 267 OFFCURVE",
"704 239 OFFCURVE",
"693 212 CURVE SMOOTH",
"652 119 OFFCURVE",
"545 78 OFFCURVE",
"448 78 CURVE SMOOTH",
"357 78 OFFCURVE",
"294 119 OFFCURVE",
"266 187 CURVE",
"261 376 LINE",
"167 390 LINE",
"111 122 LINE",
"151 39 OFFCURVE",
"276 -25 OFFCURVE",
"409 -25 CURVE SMOOTH",
"533 -25 OFFCURVE",
"645 11 OFFCURVE",
"744 84 CURVE SMOOTH",
"839 155 OFFCURVE",
"898 265 OFFCURVE",
"898 384 CURVE SMOOTH",
"898 532 OFFCURVE",
"804 593 OFFCURVE",
"616 717 CURVE SMOOTH",
"586 736 OFFCURVE",
"556 758 OFFCURVE",
"526 783 CURVE SMOOTH",
"464 834 OFFCURVE",
"433 891 OFFCURVE",
"433 953 CURVE SMOOTH",
"433 1093 OFFCURVE",
"521 1186 OFFCURVE",
"640 1186 CURVE SMOOTH",
"708 1186 OFFCURVE",
"777 1133 OFFCURVE",
"786 1092 CURVE",
"781 900 LINE",
"875 888 LINE",
"940 1171 LINE"
);
}
);
width = 913;
}
);
note = S;
unicode = 0053;
},
{
glyphname = T;
lastChange = "2016-08-10 08:57:17 +0000";
layers = (
{
layerId = "5ECBA62F-7A11-49B7-B673-3B0F38FC4DA3";
paths = (
{
closed = 1;
nodes = (
"271 912 LINE",
"361 1155 LINE",
"642 1155 LINE",
"478 121 LINE",
"311 74 LINE",
"294 0 LINE",
"811 0 LINE",
"830 81 LINE",
"660 114 LINE",
"825 1155 LINE",
"1115 1155 LINE",
"1115 923 LINE",
"1204 908 LINE",
"1289 1246 LINE",
"228 1246 LINE",
"185 925 LINE"
);
}
);
width = 1112;
}
);
note = T;
unicode = 0054;
},
{
glyphname = U;
lastChange = "2016-08-10 08:57:17 +0000";
layers = (
{
layerId = "5ECBA62F-7A11-49B7-B673-3B0F38FC4DA3";
paths = (
{
closed = 1;
nodes = (
"739 1170 LINE",
"754 1246 LINE",
"237 1246 LINE",
"219 1170 LINE",
"390 1128 LINE",
"285 470 LINE SMOOTH",
"278 423 OFFCURVE",
"275 381 OFFCURVE",
"275 344 CURVE SMOOTH",
"275 284 OFFCURVE",
"284 232 OFFCURVE",
"301 187 CURVE SMOOTH",
"333 100 OFFCURVE",
"381 50 OFFCURVE",
"456 15 CURVE SMOOTH",
"515 -12 OFFCURVE",
"582 -26 OFFCURVE",
"659 -26 CURVE SMOOTH",
"982 -26 OFFCURVE",
"1174 149 OFFCURVE",
"1233 500 CURVE SMOOTH",
"1337 1132 LINE",
"1505 1170 LINE",
"1521 1246 LINE",
"1065 1246 LINE",
"1050 1170 LINE",
"1215 1128 LINE",
"1113 481 LINE SMOOTH",
"1108 451 OFFCURVE",
"1103 427 OFFCURVE",
"1099 410 CURVE SMOOTH",
"1086 353 OFFCURVE",
"1068 304 OFFCURVE",
"1046 263 CURVE SMOOTH",
"989 158 OFFCURVE",
"896 93 OFFCURVE",
"740 93 CURVE SMOOTH",
"561 93 OFFCURVE",
"461 189 OFFCURVE",
"461 384 CURVE SMOOTH",
"461 417 OFFCURVE",
"464 454 OFFCURVE",
"471 495 CURVE SMOOTH",
"570 1132 LINE"
);
}
);
width = 1358;
}
);
note = U;
unicode = 0055;
},
{
glyphname = V;
lastChange = "2016-08-10 08:57:17 +0000";
layers = (
{
layerId = "5ECBA62F-7A11-49B7-B673-3B0F38FC4DA3";
paths = (
{
closed = 1;
nodes = (
"1236 1132 LINE",
"1366 1170 LINE",
"1381 1246 LINE",
"946 1246 LINE",
"931 1170 LINE",
"1098 1128 LINE",
"657 251 LINE",
"496 1132 LINE",
"665 1170 LINE",
"680 1246 LINE",
"174 1246 LINE",
"157 1170 LINE",
"288 1128 LINE",
"510 -25 LINE",
"650 5 LINE"
);
}
);
width = 1165;
}
);
note = V;
unicode = 0056;
},
{
glyphname = W;
lastChange = "2016-08-10 08:57:17 +0000";
layers = (
{
layerId = "5ECBA62F-7A11-49B7-B673-3B0F38FC4DA3";
paths = (
{
closed = 1;
nodes = (
"1767 1132 LINE",
"1891 1170 LINE",
"1907 1246 LINE",
"1479 1246 LINE",
"1462 1170 LINE",
"1626 1128 LINE",
"1246 288 LINE",
"1165 1221 LINE",
"999 1196 LINE",
"577 273 LINE",
"480 1132 LINE",
"647 1170 LINE",
"667 1246 LINE",
"182 1246 LINE",
"167 1170 LINE",
"291 1128 LINE",
"425 -25 LINE",
"576 5 LINE",
"1006 953 LINE",
"1095 -25 LINE",
"1241 5 LINE"
);
}
);
width = 1692;
}
);
note = W;
unicode = 0057;
},
{
glyphname = X;
lastChange = "2016-08-10 08:57:17 +0000";
layers = (
{
layerId = "5ECBA62F-7A11-49B7-B673-3B0F38FC4DA3";
paths = (
{
closed = 1;
nodes = (
"1300 1170 LINE",
"1315 1246 LINE",
"883 1246 LINE",
"865 1170 LINE",
"1037 1128 LINE",
"718 744 LINE",
"548 1123 LINE",
"713 1170 LINE",
"731 1246 LINE",
"235 1246 LINE",
"217 1170 LINE",
"334 1120 LINE",
"581 609 LINE",
"152 121 LINE",
"31 74 LINE",
"12 0 LINE",
"443 0 LINE",
"462 81 LINE",
"291 114 LINE",
"637 523 LINE",
"825 121 LINE",
"660 74 LINE",
"640 0 LINE",
"1123 0 LINE",
"1145 81 LINE",
"1016 114 LINE",
"774 652 LINE",
"1173 1132 LINE"
);
}
);
width = 1147;
}
);
note = X;
unicode = 0058;
},
{
glyphname = Y;
lastChange = "2016-08-10 08:57:17 +0000";
layers = (
{
layerId = "5ECBA62F-7A11-49B7-B673-3B0F38FC4DA3";
paths = (
{
closed = 1;
nodes = (
"1256 1170 LINE",
"1270 1246 LINE",
"847 1246 LINE",
"832 1170 LINE",
"998 1128 LINE",
"670 639 LINE",
"478 1132 LINE",
"635 1170 LINE",
"653 1246 LINE",
"175 1246 LINE",
"156 1170 LINE",
"278 1128 LINE",
"519 506 LINE",
"458 121 LINE",
"308 74 LINE",
"291 0 LINE",
"776 0 LINE",
"794 81 LINE",
"640 114 LINE",
"706 529 LINE",
"1130 1132 LINE"
);
}
);
width = 1057;
}
);
note = Y;
unicode = 0059;
},
{
glyphname = Z;
lastChange = "2016-08-10 08:57:17 +0000";
layers = (
{
layerId = "5ECBA62F-7A11-49B7-B673-3B0F38FC4DA3";
paths = (
{
closed = 1;
nodes = (
"341 905 LINE",
"432 1151 LINE",
"969 1151 LINE",
"93 104 LINE",
"86 0 LINE",
"983 0 LINE",
"1065 336 LINE",
"974 351 LINE",
"832 101 LINE",
"298 101 LINE",
"1196 1170 LINE",
"1208 1246 LINE",
"291 1246 LINE",
"253 923 LINE"
);
}
);
width = 1095;
}
);
note = Z;
unicode = 005A;
},
{
glyphname = bracketleft;
lastChange = "2016-08-10 08:57:17 +0000";
layers = (
{
layerId = "5ECBA62F-7A11-49B7-B673-3B0F38FC4DA3";
paths = (
{
closed = 1;
nodes = (
"236 -260 LINE",
"457 1148 LINE",
"601 1168 LINE",
"605 1257 LINE",
"333 1257 LINE",
"72 -377 LINE",
"350 -376 LINE",
"375 -280 LINE"
);
}
);
width = 441;
}
);
note = bracketleft;
unicode = 005B;
},
{
glyphname = backslash;
lastChange = "2016-08-10 08:57:17 +0000";
layers = (
{
layerId = "5ECBA62F-7A11-49B7-B673-3B0F38FC4DA3";
paths = (
{
closed = 1;
nodes = (
"463 -356 LINE",
"592 -364 LINE",
"382 1237 LINE",
"251 1246 LINE"
);
}
);
width = 711;
}
);
note = backslash;
unicode = 005C;
},
{
glyphname = bracketright;
lastChange = "2016-08-10 08:57:17 +0000";
layers = (
{
layerId = "5ECBA62F-7A11-49B7-B673-3B0F38FC4DA3";
paths = (
{
closed = 1;
nodes = (
"509 1257 LINE",
"237 1257 LINE",
"211 1168 LINE",
"348 1148 LINE",
"127 -260 LINE",
"-19 -280 LINE",
"-24 -376 LINE",
"251 -377 LINE"
);
}
);
width = 443;
}
);
note = bracketright;
unicode = 005D;
},
{
glyphname = asciicircum;
lastChange = "2016-08-10 08:57:17 +0000";
layers = (
{
layerId = "5ECBA62F-7A11-49B7-B673-3B0F38FC4DA3";
paths = (
{
closed = 1;
nodes = (
"187 827 LINE",
"232 794 LINE",
"526 1075 LINE",
"536 1075 LINE",
"764 789 LINE",
"827 825 LINE",
"597 1252 LINE",
"541 1239 LINE"
);
}
);
width = 751;
}
);
note = asciicircum;
unicode = 005E;
},
{
glyphname = underscore;
lastChange = "2016-08-10 08:57:17 +0000";
layers = (
{
layerId = "5ECBA62F-7A11-49B7-B673-3B0F38FC4DA3";
paths = (
{
closed = 1;
nodes = (
"810 -132 LINE",
"838 -26 LINE",
"7 -26 LINE",
"-21 -132 LINE"
);
}
);
width = 842;
}
);
note = underscore;
unicode = 005F;
},
{
glyphname = grave;
lastChange = "2016-08-10 08:57:17 +0000";
layers = (
{
layerId = "5ECBA62F-7A11-49B7-B673-3B0F38FC4DA3";
paths = (
{
closed = 1;
nodes = (
"412 1366 LINE",
"280 1701 LINE",
"164 1663 LINE",
"354 1332 LINE"
);
}
);
width = 634;
}
);
note = grave;
unicode = 0060;
},
{
glyphname = a;
lastChange = "2016-08-10 08:57:17 +0000";
layers = (
{
layerId = "5ECBA62F-7A11-49B7-B673-3B0F38FC4DA3";
paths = (
{
closed = 1;
nodes = (
"746 101 OFFCURVE",
"735 117 OFFCURVE",
"735 162 CURVE",
"736 190 OFFCURVE",
"745 262 OFFCURVE",
"762 379 CURVE SMOOTH",
"833 834 LINE",
"816 852 LINE",
"779 875 OFFCURVE",
"718 887 OFFCURVE",
"631 887 CURVE SMOOTH",
"586 887 OFFCURVE",
"540 879 OFFCURVE",
"493 862 CURVE SMOOTH",
"394 826 OFFCURVE",
"309 759 OFFCURVE",
"237 661 CURVE SMOOTH",
"165 562 OFFCURVE",
"120 424 OFFCURVE",
"120 275 CURVE SMOOTH",
"120 90 OFFCURVE",
"198 -22 OFFCURVE",
"322 -22 CURVE SMOOTH",
"415 -22 OFFCURVE",
"507 41 OFFCURVE",
"558 132 CURVE",
"570 132 LINE",
"567 94 LINE",
"567 83 LINE SMOOTH",
"567 19 OFFCURVE",
"615 -15 OFFCURVE",
"686 -15 CURVE SMOOTH",
"733 -15 OFFCURVE",
"780 -5 OFFCURVE",
"826 15 CURVE",
"846 84 LINE",
"778 96 LINE SMOOTH"
);
},
{
closed = 1;
nodes = (
"515 135 OFFCURVE",
"470 106 OFFCURVE",
"403 106 CURVE SMOOTH",
"322 106 OFFCURVE",
"282 178 OFFCURVE",
"282 321 CURVE SMOOTH",
"282 469 OFFCURVE",
"323 621 OFFCURVE",
"406 713 CURVE SMOOTH",
"489 805 OFFCURVE",
"612 795 OFFCURVE",
"661 748 CURVE",
"575 202 LINE"
);
}
);
width = 855;
}
);
note = a;
unicode = 0061;
},
{
glyphname = b;
lastChange = "2016-08-10 08:57:17 +0000";
layers = (
{
layerId = "5ECBA62F-7A11-49B7-B673-3B0F38FC4DA3";
paths = (
{
closed = 1;
nodes = (
"177 6 OFFCURVE",
"276 -23 OFFCURVE",
"360 -23 CURVE SMOOTH",
"457 -23 OFFCURVE",
"545 2 OFFCURVE",
"625 52 CURVE SMOOTH",
"784 152 OFFCURVE",
"879 333 OFFCURVE",
"879 536 CURVE SMOOTH",
"879 599 OFFCURVE",
"870 657 OFFCURVE",
"851 710 CURVE SMOOTH",
"812 819 OFFCURVE",
"736 892 OFFCURVE",
"649 892 CURVE SMOOTH",
"560 892 OFFCURVE",
"448 816 OFFCURVE",
"393 723 CURVE",
"381 723 LINE",
"408 844 LINE",
"471 1246 LINE",
"452 1269 LINE",
"176 1244 LINE",
"170 1168 LINE",
"304 1145 LINE",
"128 50 LINE"
);
},
{
closed = 1;
nodes = (
"545 107 OFFCURVE",
"502 89 OFFCURVE",
"459 89 CURVE SMOOTH",
"387 89 OFFCURVE",
"326 114 OFFCURVE",
"299 154 CURVE",
"385 667 LINE",
"417 696 OFFCURVE",
"447 717 OFFCURVE",
"474 730 CURVE SMOOTH",
"528 755 OFFCURVE",
"604 764 OFFCURVE",
"648 709 CURVE SMOOTH",
"690 658 OFFCURVE",
"711 590 OFFCURVE",
"711 506 CURVE SMOOTH",
"710 381 OFFCURVE",
"686 229 OFFCURVE",
"586 142 CURVE SMOOTH"
);
}
);
width = 866;
}
);
note = b;
unicode = 0062;
},
{
glyphname = c;
lastChange = "2016-08-10 08:57:17 +0000";
layers = (
{
layerId = "5ECBA62F-7A11-49B7-B673-3B0F38FC4DA3";
paths = (
{
closed = 1;
nodes = (
"346 93 OFFCURVE",
"294 182 OFFCURVE",
"294 331 CURVE SMOOTH",
"294 467 OFFCURVE",
"325 598 OFFCURVE",
"372 679 CURVE SMOOTH",
"419 759 OFFCURVE",
"474 807 OFFCURVE",
"523 807 CURVE SMOOTH",
"578 807 OFFCURVE",
"595 727 OFFCURVE",
"602 644 CURVE",
"683 649 OFFCURVE",
"741 694 OFFCURVE",
"741 758 CURVE SMOOTH",
"741 846 OFFCURVE",
"677 902 OFFCURVE",
"572 902 CURVE SMOOTH",
"537 902 OFFCURVE",
"500 893 OFFCURVE",
"460 876 CURVE SMOOTH",
"380 840 OFFCURVE",
"296 768 OFFCURVE",
"232 676 CURVE SMOOTH",
"165 580 OFFCURVE",
"122 445 OFFCURVE",
"122 308 CURVE SMOOTH",
"122 93 OFFCURVE",
"220 -30 OFFCURVE",
"385 -30 CURVE SMOOTH",
"481 -30 OFFCURVE",
"589 26 OFFCURVE",
"653 106 CURVE",
"630 156 LINE",
"562 111 OFFCURVE",
"518 93 OFFCURVE",
"447 93 CURVE SMOOTH"
);
}
);
width = 666;
}
);
note = c;
unicode = 0063;
},
{
glyphname = d;
lastChange = "2016-08-10 08:57:17 +0000";
layers = (
{
layerId = "5ECBA62F-7A11-49B7-B673-3B0F38FC4DA3";
paths = (
{
closed = 1;
nodes = (
"741 103 OFFCURVE",
"731 116 OFFCURVE",
"731 160 CURVE",
"732 183 OFFCURVE",
"741 257 OFFCURVE",
"758 380 CURVE SMOOTH",
"895 1259 LINE",
"875 1282 LINE",
"599 1257 LINE",
"586 1184 LINE",
"728 1158 LINE",
"690 880 LINE",
"683 880 LINE",
"668 885 OFFCURVE",
"645 887 OFFCURVE",
"614 887 CURVE SMOOTH",
"570 887 OFFCURVE",
"525 878 OFFCURVE",
"479 859 CURVE SMOOTH",
"386 821 OFFCURVE",
"303 750 OFFCURVE",
"231 646 CURVE SMOOTH",
"162 547 OFFCURVE",
"119 408 OFFCURVE",
"119 271 CURVE SMOOTH",
"119 76 OFFCURVE",
"185 -22 OFFCURVE",
"318 -22 CURVE SMOOTH",
"411 -22 OFFCURVE",
"503 41 OFFCURVE",
"554 132 CURVE",
"567 132 LINE",
"564 109 OFFCURVE",
"562 89 OFFCURVE",
"562 74 CURVE",
"565 19 OFFCURVE",
"605 -15 OFFCURVE",
"682 -15 CURVE SMOOTH",
"717 -15 OFFCURVE",
"764 -5 OFFCURVE",
"821 15 CURVE",
"840 86 LINE",
"774 98 LINE SMOOTH"
);
},
{
closed = 1;
nodes = (
"509 131 OFFCURVE",
"472 106 OFFCURVE",
"405 106 CURVE SMOOTH",
"321 106 OFFCURVE",
"281 175 OFFCURVE",
"281 331 CURVE SMOOTH",
"281 404 OFFCURVE",
"291 473 OFFCURVE",
"312 540 CURVE SMOOTH",
"352 681 OFFCURVE",
"440 782 OFFCURVE",
"539 782 CURVE SMOOTH",
"589 782 OFFCURVE",
"628 770 OFFCURVE",
"657 746 CURVE",
"569 202 LINE"
);
}
);
width = 854;
}
);
note = d;
unicode = 0064;
},
{
glyphname = e;
lastChange = "2016-08-10 08:57:17 +0000";
layers = (
{
layerId = "5ECBA62F-7A11-49B7-B673-3B0F38FC4DA3";
paths = (
{
closed = 1;
nodes = (
"324 610 OFFCURVE",
"352 682 OFFCURVE",
"389 729 CURVE SMOOTH",
"425 776 OFFCURVE",
"462 799 OFFCURVE",
"501 799 CURVE SMOOTH",
"624 799 OFFCURVE",
"605 594 OFFCURVE",
"576 534 CURVE",
"304 513 LINE"
);
},
{
closed = 1;
nodes = (
"733 518 OFFCURVE",
"749 584 OFFCURVE",
"749 655 CURVE SMOOTH",
"749 807 OFFCURVE",
"686 892 OFFCURVE",
"561 892 CURVE SMOOTH",
"480 892 OFFCURVE",
"406 865 OFFCURVE",
"339 811 CURVE SMOOTH",
"204 703 OFFCURVE",
"126 514 OFFCURVE",
"126 306 CURVE SMOOTH",
"126 215 OFFCURVE",
"145 138 OFFCURVE",
"182 76 CURVE SMOOTH",
"223 9 OFFCURVE",
"298 -30 OFFCURVE",
"397 -30 CURVE SMOOTH",
"518 -30 OFFCURVE",
"651 48 OFFCURVE",
"706 132 CURVE",
"680 177 LINE",
"655 149 OFFCURVE",
"539 103 OFFCURVE",
"491 103 CURVE SMOOTH",
"372 103 OFFCURVE",
"285 176 OFFCURVE",
"285 349 CURVE SMOOTH",
"286 381 OFFCURVE",
"288 411 OFFCURVE",
"293 440 CURVE",
"701 458 LINE"
);
}
);
width = 733;
}
);
note = e;
unicode = 0065;
},
{
glyphname = f;
lastChange = "2016-08-10 08:57:17 +0000";
layers = (
{
layerId = "5ECBA62F-7A11-49B7-B673-3B0F38FC4DA3";
paths = (
{
closed = 1;
nodes = (
"854 1251 OFFCURVE",
"795 1289 OFFCURVE",
"687 1289 CURVE SMOOTH",
"636 1289 OFFCURVE",
"584 1271 OFFCURVE",
"531 1235 CURVE SMOOTH",
"426 1162 OFFCURVE",
"342 1031 OFFCURVE",
"313 890 CURVE",
"194 854 LINE",
"178 786 LINE",
"297 786 LINE",
"191 109 LINE",
"67 76 LINE",
"50 0 LINE",
"545 0 LINE",
"563 79 LINE",
"355 109 LINE",
"462 786 LINE",
"638 786 LINE",
"663 875 LINE",
"476 875 LINE",
"489 958 LINE SMOOTH",
"508 1069 OFFCURVE",
"536 1161 OFFCURVE",
"615 1161 CURVE SMOOTH",
"671 1161 OFFCURVE",
"737 1115 OFFCURVE",
"752 1072 CURVE",
"819 1091 OFFCURVE",
"854 1131 OFFCURVE",
"854 1175 CURVE SMOOTH"
);
}
);
width = 588;
}
);
note = f;
unicode = 0066;
},
{
glyphname = g;
lastChange = "2016-08-10 08:57:17 +0000";
layers = (
{
layerId = "5ECBA62F-7A11-49B7-B673-3B0F38FC4DA3";
paths = (
{
closed = 1;
nodes = (
"347 705 OFFCURVE",
"424 824 OFFCURVE",
"523 824 CURVE SMOOTH",
"580 824 OFFCURVE",
"615 763 OFFCURVE",
"615 662 CURVE SMOOTH",
"615 495 OFFCURVE",
"547 380 OFFCURVE",
"455 380 CURVE SMOOTH",
"394 380 OFFCURVE",
"347 454 OFFCURVE",
"347 553 CURVE SMOOTH"
);
},
{
closed = 1;
nodes = (
"381 151 OFFCURVE",
"337 154 OFFCURVE",
"316 159 CURVE SMOOTH",
"293 165 OFFCURVE",
"281 178 OFFCURVE",
"281 199 CURVE SMOOTH",
"281 211 OFFCURVE",
"283 222 OFFCURVE",
"287 232 CURVE",
"290 236 OFFCURVE",
"293 245 OFFCURVE",
"293 246 CURVE",
"296 255 OFFCURVE",
"301 261 OFFCURVE",
"309 272 CURVE",
"311 275 OFFCURVE",
"318 283 OFFCURVE",
"329 294 CURVE SMOOTH",
"347 313 LINE",
"367 306 OFFCURVE",
"390 303 OFFCURVE",
"417 303 CURVE SMOOTH",
"466 303 OFFCURVE",
"518 318 OFFCURVE",
"572 347 CURVE SMOOTH",
"683 407 OFFCURVE",
"764 520 OFFCURVE",
"764 632 CURVE SMOOTH",
"764 670 OFFCURVE",
"759 706 OFFCURVE",
"749 739 CURVE",
"751 756 LINE",
"870 716 LINE",
"887 716 LINE",
"941 827 LINE",
"925 850 LINE",
"713 835 LINE",
"675 877 OFFCURVE",
"623 898 OFFCURVE",
"556 898 CURVE SMOOTH",
"499 898 OFFCURVE",
"442 882 OFFCURVE",
"385 851 CURVE SMOOTH",
"265 786 OFFCURVE",
"182 667 OFFCURVE",
"182 550 CURVE SMOOTH",
"182 454 OFFCURVE",
"249 352 OFFCURVE",
"309 336 CURVE",
"308 328 LINE",
"219 293 OFFCURVE",
"111 201 OFFCURVE",
"111 146 CURVE SMOOTH",
"112 86 OFFCURVE",
"133 55 OFFCURVE",
"189 26 CURVE",
"189 18 LINE",
"60 -39 OFFCURVE",
"-5 -113 OFFCURVE",
"-5 -202 CURVE SMOOTH",
"-5 -243 OFFCURVE",
"10 -279 OFFCURVE",
"39 -308 CURVE SMOOTH",
"92 -361 OFFCURVE",
"176 -387 OFFCURVE",
"289 -387 CURVE SMOOTH",
"330 -387 OFFCURVE",
"373 -381 OFFCURVE",
"418 -369 CURVE SMOOTH",
"509 -346 OFFCURVE",
"591 -301 OFFCURVE",
"666 -235 CURVE SMOOTH",
"738 -172 OFFCURVE",
"781 -87 OFFCURVE",
"781 0 CURVE",
"780 101 OFFCURVE",
"698 151 OFFCURVE",
"534 151 CURVE SMOOTH",
"447 151 LINE SMOOTH"
);
},
{
closed = 1;
nodes = (
"469 3 OFFCURVE",
"523 -3 OFFCURVE",
"554 -15 CURVE SMOOTH",
"586 -27 OFFCURVE",
"602 -47 OFFCURVE",
"602 -76 CURVE SMOOTH",
"602 -200 OFFCURVE",
"500 -280 OFFCURVE",
"352 -280 CURVE SMOOTH",
"239 -280 OFFCURVE",
"182 -236 OFFCURVE",
"182 -149 CURVE SMOOTH",
"182 -69 OFFCURVE",
"219 -22 OFFCURVE",
"246 -2 CURVE",
"249 0 OFFCURVE",
"252 2 OFFCURVE",
"253 3 CURVE",
"392 3 LINE SMOOTH"
);
}
);
width = 830;
}
);
note = g;
unicode = 0067;
},
{
glyphname = h;
lastChange = "2016-08-10 08:57:17 +0000";
layers = (
{
layerId = "5ECBA62F-7A11-49B7-B673-3B0F38FC4DA3";
paths = (
{
closed = 1;
nodes = (
"856 645 OFFCURVE",
"859 678 OFFCURVE",
"859 715 CURVE SMOOTH",
"859 835 OFFCURVE",
"810 895 OFFCURVE",
"712 895 CURVE SMOOTH",
"609 895 OFFCURVE",
"503 822 OFFCURVE",
"428 723 CURVE",
"416 723 LINE",
"444 847 LINE",
"507 1246 LINE",
"486 1269 LINE",
"211 1244 LINE",
"201 1168 LINE",
"335 1145 LINE",
"170 108 LINE",
"49 74 LINE",
"27 0 LINE",
"433 0 LINE",
"451 71 LINE",
"328 103 LINE",
"418 663 LINE",
"433 677 OFFCURVE",
"448 690 OFFCURVE",
"463 702 CURVE SMOOTH",
"494 726 OFFCURVE",
"550 746 OFFCURVE",
"605 746 CURVE SMOOTH",
"663 746 OFFCURVE",
"692 704 OFFCURVE",
"692 619 CURVE SMOOTH",
"692 594 OFFCURVE",
"689 563 OFFCURVE",
"684 526 CURVE SMOOTH",
"600 0 LINE",
"871 0 LINE",
"892 73 LINE",
"768 101 LINE",
"851 614 LINE SMOOTH"
);
}
);
width = 899;
}
);
note = h;
unicode = 0068;
},
{
glyphname = i;
lastChange = "2016-08-10 08:57:17 +0000";
layers = (
{
layerId = "5ECBA62F-7A11-49B7-B673-3B0F38FC4DA3";
paths = (
{
closed = 1;
nodes = (
"566 1261 OFFCURVE",
"510 1311 OFFCURVE",
"443 1311 CURVE SMOOTH",
"379 1311 OFFCURVE",
"324 1260 OFFCURVE",
"324 1199 CURVE SMOOTH",
"324 1131 OFFCURVE",
"378 1075 OFFCURVE",
"444 1075 CURVE SMOOTH",
"510 1075 OFFCURVE",
"566 1131 OFFCURVE",
"566 1198 CURVE SMOOTH"
);
},
{
closed = 1;
nodes = (
"61 0 LINE",
"470 0 LINE",
"486 71 LINE",
"361 103 LINE",
"476 847 LINE",
"457 870 LINE",
"182 845 LINE",
"172 769 LINE",
"303 748 LINE",
"202 106 LINE",
"79 73 LINE"
);
}
);
width = 497;
}
);
note = i;
unicode = 0069;
},
{
glyphname = j;
lastChange = "2016-08-10 08:57:17 +0000";
layers = (
{
layerId = "5ECBA62F-7A11-49B7-B673-3B0F38FC4DA3";
paths = (
{
closed = 1;
nodes = (
"356 1313 OFFCURVE",
"298 1259 OFFCURVE",
"298 1196 CURVE SMOOTH",
"298 1127 OFFCURVE",
"353 1065 OFFCURVE",
"420 1065 CURVE SMOOTH",
"489 1065 OFFCURVE",
"549 1125 OFFCURVE",
"549 1193 CURVE SMOOTH",
"549 1258 OFFCURVE",
"489 1313 OFFCURVE",
"420 1313 CURVE SMOOTH"
);
},
{
closed = 1;
nodes = (
"-12 -376 OFFCURVE",
"13 -363 OFFCURVE",
"40 -346 CURVE SMOOTH",
"95 -310 OFFCURVE",
"165 -250 OFFCURVE",
"213 -189 CURVE SMOOTH",
"266 -118 OFFCURVE",
"313 -15 OFFCURVE",
"329 86 CURVE SMOOTH",
"450 849 LINE",
"428 872 LINE",
"154 847 LINE",
"144 771 LINE",
"277 749 LINE",
"174 99 LINE SMOOTH",
"150 -64 OFFCURVE",
"64 -200 OFFCURVE",
"-84 -308 CURVE",
"-35 -387 LINE"
);
}
);
width = 441;
}
);
note = j;
unicode = 006A;
},
{
glyphname = k;
lastChange = "2016-08-10 08:57:17 +0000";
layers = (
{
layerId = "5ECBA62F-7A11-49B7-B673-3B0F38FC4DA3";
paths = (
{
closed = 1;
nodes = (
"488 237 OFFCURVE",
"505 198 OFFCURVE",
"519 169 CURVE SMOOTH",
"587 22 OFFCURVE",
"638 -20 OFFCURVE",
"726 -20 CURVE SMOOTH",
"762 -20 OFFCURVE",
"835 -8 OFFCURVE",
"860 0 CURVE",
"882 68 LINE",
"847 73 LINE",
"832 74 OFFCURVE",
"820 77 OFFCURVE",
"811 81 CURVE",
"788 88 OFFCURVE",
"769 99 OFFCURVE",
"754 112 CURVE",
"715 149 OFFCURVE",
"688 195 OFFCURVE",
"668 238 CURVE SMOOTH",
"625 331 LINE SMOOTH",
"614 356 OFFCURVE",
"606 373 OFFCURVE",
"601 384 CURVE SMOOTH",
"551 488 LINE",
"791 766 LINE",
"923 799 LINE",
"945 875 LINE",
"564 875 LINE",
"549 804 LINE",
"672 771 LINE",
"409 452 LINE",
"405 435 LINE",
"467 288 LINE SMOOTH"
);
},
{
closed = 1;
nodes = (
"30 0 LINE",
"438 0 LINE",
"455 73 LINE",
"329 104 LINE",
"510 1244 LINE",
"486 1267 LINE",
"215 1242 LINE",
"203 1166 LINE",
"336 1145 LINE",
"170 108 LINE",
"46 74 LINE"
);
}
);
width = 861;
}
);
note = k;
unicode = 006B;
},
{
glyphname = l;
lastChange = "2016-08-10 08:57:17 +0000";
layers = (
{
layerId = "5ECBA62F-7A11-49B7-B673-3B0F38FC4DA3";
paths = (
{
closed = 1;
nodes = (
"29 0 LINE",
"438 0 LINE",
"456 73 LINE",
"328 104 LINE",
"507 1244 LINE",
"486 1267 LINE",
"214 1242 LINE",
"203 1166 LINE",
"335 1145 LINE",
"170 108 LINE",
"47 74 LINE"
);
}
);
width = 466;
}
);
note = l;
unicode = 006C;
},
{
glyphname = m;
lastChange = "2016-08-10 08:57:17 +0000";
layers = (
{
layerId = "5ECBA62F-7A11-49B7-B673-3B0F38FC4DA3";
paths = (
{
closed = 1;
nodes = (
"1322 654 OFFCURVE",
"1325 689 OFFCURVE",
"1325 718 CURVE SMOOTH",
"1325 838 OFFCURVE",
"1282 895 OFFCURVE",
"1183 895 CURVE SMOOTH",
"1080 895 OFFCURVE",
"988 840 OFFCURVE",
"905 731 CURVE",
"893 731 LINE",
"893 744 LINE SMOOTH",
"893 844 OFFCURVE",
"839 895 OFFCURVE",
"751 895 CURVE SMOOTH",
"719 895 OFFCURVE",
"687 889 OFFCURVE",
"654 876 CURVE SMOOTH",
"588 850 OFFCURVE",
"502 783 OFFCURVE",
"467 723 CURVE",
"455 723 LINE",
"486 849 LINE",
"465 872 LINE",
"184 847 LINE",
"170 764 LINE",
"301 743 LINE",
"205 109 LINE",
"84 76 LINE",
"63 0 LINE",
"473 0 LINE",
"491 73 LINE",
"369 104 LINE",
"457 663 LINE",
"573 776 OFFCURVE",
"723 786 OFFCURVE",
"723 630 CURVE SMOOTH",
"723 599 OFFCURVE",
"720 564 OFFCURVE",
"713 526 CURVE SMOOTH",
"630 15 LINE",
"642 0 LINE",
"905 0 LINE",
"926 74 LINE",
"802 103 LINE",
"842 352 LINE",
"867 510 LINE SMOOTH",
"874 555 OFFCURVE",
"882 606 OFFCURVE",
"890 663 CURVE",
"946 720 OFFCURVE",
"1010 748 OFFCURVE",
"1082 748 CURVE SMOOTH",
"1133 748 OFFCURVE",
"1158 706 OFFCURVE",
"1158 622 CURVE SMOOTH",
"1158 597 OFFCURVE",
"1155 565 OFFCURVE",
"1150 526 CURVE SMOOTH",
"1070 13 LINE",
"1082 0 LINE",
"1345 0 LINE",
"1366 73 LINE",
"1242 101 LINE",
"1317 614 LINE SMOOTH"
);
}
);
width = 1367;
}
);
note = m;
unicode = 006D;
},
{
glyphname = n;
lastChange = "2016-08-10 08:57:17 +0000";
layers = (
{
layerId = "5ECBA62F-7A11-49B7-B673-3B0F38FC4DA3";
paths = (
{
closed = 1;
nodes = (
"885 657 OFFCURVE",
"888 693 OFFCURVE",
"888 723 CURVE SMOOTH",
"888 846 OFFCURVE",
"843 895 OFFCURVE",
"748 895 CURVE SMOOTH",
"653 895 OFFCURVE",
"529 815 OFFCURVE",
"460 723 CURVE",
"448 723 LINE",
"483 849 LINE",
"462 872 LINE",
"184 847 LINE",
"170 764 LINE",
"301 743 LINE",
"205 108 LINE",
"84 74 LINE",
"63 0 LINE",
"467 0 LINE",
"485 74 LINE",
"362 106 LINE",
"452 665 LINE",
"507 718 OFFCURVE",
"568 744 OFFCURVE",
"635 744 CURVE SMOOTH",
"692 744 OFFCURVE",
"718 716 OFFCURVE",
"718 639 CURVE SMOOTH",
"718 620 OFFCURVE",
"714 582 OFFCURVE",
"706 526 CURVE SMOOTH",
"624 15 LINE",
"635 3 LINE",
"902 3 LINE",
"923 76 LINE",
"799 104 LINE",
"878 614 LINE SMOOTH"
);
}
);
width = 927;
}
);
note = n;
unicode = 006E;
},
{
glyphname = o;
lastChange = "2016-08-10 08:57:17 +0000";
layers = (
{
layerId = "5ECBA62F-7A11-49B7-B673-3B0F38FC4DA3";
paths = (
{
closed = 1;
nodes = (
"614 154 OFFCURVE",
"530 48 OFFCURVE",
"438 48 CURVE SMOOTH",
"411 48 OFFCURVE",
"387 62 OFFCURVE",
"366 89 CURVE SMOOTH",
"326 142 OFFCURVE",
"306 220 OFFCURVE",
"306 323 CURVE SMOOTH",
"306 452 OFFCURVE",
"326 566 OFFCURVE",
"365 663 CURVE SMOOTH",
"404 759 OFFCURVE",
"469 817 OFFCURVE",
"548 817 CURVE SMOOTH",
"633 817 OFFCURVE",
"685 717 OFFCURVE",
"685 550 CURVE SMOOTH",
"685 466 OFFCURVE",
"675 386 OFFCURVE",
"655 310 CURVE SMOOTH"
);
},
{
closed = 1;
nodes = (
"807 258 OFFCURVE",
"854 399 OFFCURVE",
"854 536 CURVE SMOOTH",
"854 769 OFFCURVE",
"767 895 OFFCURVE",
"591 895 CURVE SMOOTH",
"526 895 OFFCURVE",
"465 879 OFFCURVE",
"406 847 CURVE SMOOTH",
"288 783 OFFCURVE",
"205 672 OFFCURVE",
"158 535 CURVE SMOOTH",
"110 398 OFFCURVE",
"113 255 OFFCURVE",
"154 148 CURVE SMOOTH",
"197 40 OFFCURVE",
"286 -26 OFFCURVE",
"405 -26 CURVE SMOOTH",
"529 -26 OFFCURVE",
"648 43 OFFCURVE",
"728 151 CURVE SMOOTH"
);
}
);
width = 842;
}
);
note = o;
unicode = 006F;
},
{
glyphname = p;
lastChange = "2016-08-10 08:57:17 +0000";
layers = (
{
layerId = "5ECBA62F-7A11-49B7-B673-3B0F38FC4DA3";
paths = (
{
closed = 1;
nodes = (
"-12 -369 LINE",
"420 -366 LINE",
"438 -294 LINE",
"283 -263 LINE",
"422 662 LINE",
"495 729 OFFCURVE",
"534 748 OFFCURVE",
"609 748 CURVE SMOOTH",
"682 748 OFFCURVE",
"741 642 OFFCURVE",
"741 486 CURVE SMOOTH",
"741 381 OFFCURVE",
"728 251 OFFCURVE",
"661 172 CURVE SMOOTH",
"644 152 OFFCURVE",
"628 137 OFFCURVE",
"612 127 CURVE SMOOTH",
"580 107 OFFCURVE",
"529 89 OFFCURVE",
"457 89 CURVE SMOOTH",
"433 89 OFFCURVE",
"388 99 OFFCURVE",
"369 108 CURVE",
"347 -7 LINE",
"366 -14 OFFCURVE",
"397 -18 OFFCURVE",
"440 -18 CURVE SMOOTH",
"560 -18 OFFCURVE",
"678 34 OFFCURVE",
"767 126 CURVE SMOOTH",
"858 219 OFFCURVE",
"915 368 OFFCURVE",
"915 533 CURVE SMOOTH",
"915 734 OFFCURVE",
"810 892 OFFCURVE",
"678 892 CURVE SMOOTH",
"593 892 OFFCURVE",
"477 808 OFFCURVE",
"432 721 CURVE",
"420 721 LINE",
"452 849 LINE",
"432 872 LINE",
"154 844 LINE",
"142 768 LINE",
"275 746 LINE",
"129 -261 LINE",
"8 -294 LINE"
);
}
);
width = 905;
}
);
note = p;
unicode = 0070;
},
{
glyphname = q;
lastChange = "2016-08-10 08:57:17 +0000";
layers = (
{
layerId = "5ECBA62F-7A11-49B7-B673-3B0F38FC4DA3";
paths = (
{
closed = 1;
nodes = (
"338 -366 LINE",
"785 -366 LINE",
"803 -294 LINE",
"668 -263 LINE",
"836 873 LINE",
"820 880 LINE",
"720 865 LINE",
"693 878 OFFCURVE",
"659 885 OFFCURVE",
"616 885 CURVE SMOOTH",
"569 885 OFFCURVE",
"520 875 OFFCURVE",
"471 854 CURVE SMOOTH",
"376 812 OFFCURVE",
"293 737 OFFCURVE",
"223 628 CURVE SMOOTH",
"155 525 OFFCURVE",
"117 394 OFFCURVE",
"117 265 CURVE SMOOTH",
"117 93 OFFCURVE",
"191 -22 OFFCURVE",
"312 -22 CURVE SMOOTH",
"423 -22 OFFCURVE",
"490 17 OFFCURVE",
"550 96 CURVE",
"542 147 LINE",
"505 118 OFFCURVE",
"458 103 OFFCURVE",
"401 103 CURVE SMOOTH",
"329 103 OFFCURVE",
"285 198 OFFCURVE",
"285 331 CURVE SMOOTH",
"285 434 OFFCURVE",
"307 532 OFFCURVE",
"350 626 CURVE SMOOTH",
"393 719 OFFCURVE",
"465 781 OFFCURVE",
"545 781 CURVE SMOOTH",
"582 781 OFFCURVE",
"620 769 OFFCURVE",
"659 746 CURVE",
"512 -258 LINE",
"358 -291 LINE"
);
}
);
width = 828;
}
);
note = q;
unicode = 0071;
},
{
glyphname = r;
lastChange = "2016-08-10 08:57:17 +0000";
layers = (
{
layerId = "5ECBA62F-7A11-49B7-B673-3B0F38FC4DA3";
paths = (
{
closed = 1;
nodes = (
"63 0 LINE",
"513 0 LINE",
"531 74 LINE",
"357 106 LINE",
"437 569 LINE",
"472 636 OFFCURVE",
"531 698 OFFCURVE",
"571 698 CURVE SMOOTH",
"620 698 OFFCURVE",
"631 698 OFFCURVE",
"658 682 CURVE",
"687 697 OFFCURVE",
"713 758 OFFCURVE",
"713 811 CURVE SMOOTH",
"713 856 OFFCURVE",
"678 893 OFFCURVE",
"635 893 CURVE SMOOTH",
"562 893 OFFCURVE",
"500 815 OFFCURVE",
"447 658 CURVE",
"432 658 LINE",
"478 849 LINE",
"457 872 LINE",
"182 847 LINE",
"170 764 LINE",
"303 743 LINE",
"203 108 LINE",
"84 74 LINE"
);
}
);
width = 621;
}
);
note = r;
unicode = 0072;
},
{
glyphname = s;
lastChange = "2016-08-10 08:57:17 +0000";
layers = (
{
layerId = "5ECBA62F-7A11-49B7-B673-3B0F38FC4DA3";
paths = (
{
closed = 1;
nodes = (
"680 853 OFFCURVE",
"611 903 OFFCURVE",
"500 903 CURVE SMOOTH",
"457 903 OFFCURVE",
"416 895 OFFCURVE",
"376 880 CURVE SMOOTH",
"296 848 OFFCURVE",
"238 791 OFFCURVE",
"205 721 CURVE SMOOTH",
"172 651 OFFCURVE",
"171 569 OFFCURVE",
"212 494 CURVE SMOOTH",
"241 442 OFFCURVE",
"269 410 OFFCURVE",
"377 325 CURVE SMOOTH",
"449 270 OFFCURVE",
"485 222 OFFCURVE",
"485 182 CURVE SMOOTH",
"485 106 OFFCURVE",
"419 55 OFFCURVE",
"346 55 CURVE SMOOTH",
"282 54 OFFCURVE",
"234 119 OFFCURVE",
"203 248 CURVE",
"128 240 OFFCURVE",
"81 189 OFFCURVE",
"81 122 CURVE SMOOTH",
"81 33 OFFCURVE",
"170 -35 OFFCURVE",
"306 -35 CURVE",
"332 -34 OFFCURVE",
"360 -30 OFFCURVE",
"390 -22 CURVE SMOOTH",
"449 -6 OFFCURVE",
"504 25 OFFCURVE",
"553 71 CURVE SMOOTH",
"604 120 OFFCURVE",
"629 178 OFFCURVE",
"629 245 CURVE SMOOTH",
"629 280 OFFCURVE",
"619 315 OFFCURVE",
"598 348 CURVE",
"586 365 OFFCURVE",
"573 384 OFFCURVE",
"557 401 CURVE SMOOTH",
"548 410 OFFCURVE",
"541 417 OFFCURVE",
"535 424 CURVE",
"523 436 OFFCURVE",
"496 460 OFFCURVE",
"485 469 CURVE SMOOTH",
"474 478 OFFCURVE",
"441 506 OFFCURVE",
"433 513 CURVE SMOOTH",
"362 574 OFFCURVE",
"326 635 OFFCURVE",
"326 698 CURVE SMOOTH",
"326 781 OFFCURVE",
"375 827 OFFCURVE",
"448 827 CURVE SMOOTH",
"505 828 OFFCURVE",
"538 765 OFFCURVE",
"548 639 CURVE",
"551 615 LINE",
"634 624 OFFCURVE",
"680 676 OFFCURVE",
"680 764 CURVE SMOOTH"
);
}
);
width = 650;
}
);
note = s;
unicode = 0073;
},
{
glyphname = t;
lastChange = "2016-08-10 08:57:17 +0000";
layers = (
{
layerId = "5ECBA62F-7A11-49B7-B673-3B0F38FC4DA3";
paths = (
{
closed = 1;
nodes = (
"319 957 OFFCURVE",
"254 885 OFFCURVE",
"169 825 CURVE",
"159 778 LINE",
"270 778 LINE",
"187 260 LINE SMOOTH",
"180 223 OFFCURVE",
"177 187 OFFCURVE",
"177 152 CURVE SMOOTH",
"177 39 OFFCURVE",
"230 -22 OFFCURVE",
"326 -22 CURVE SMOOTH",
"411 -22 OFFCURVE",
"508 32 OFFCURVE",
"572 103 CURVE",
"559 154 LINE",
"506 132 OFFCURVE",
"455 121 OFFCURVE",
"404 121 CURVE SMOOTH",
"360 121 OFFCURVE",
"341 166 OFFCURVE",
"341 233 CURVE SMOOTH",
"341 250 OFFCURVE",
"345 288 OFFCURVE",
"354 347 CURVE SMOOTH",
"422 778 LINE",
"637 778 LINE",
"657 873 LINE",
"442 873 LINE",
"476 1082 LINE",
"412 1082 LINE"
);
}
);
width = 564;
}
);
note = t;
unicode = 0074;
},
{
glyphname = u;
lastChange = "2016-08-10 08:57:17 +0000";
layers = (
{
layerId = "5ECBA62F-7A11-49B7-B673-3B0F38FC4DA3";
paths = (
{
closed = 1;
nodes = (
"795 101 OFFCURVE",
"784 118 OFFCURVE",
"784 170 CURVE SMOOTH",
"784 204 OFFCURVE",
"792 271 OFFCURVE",
"807 371 CURVE SMOOTH",
"883 847 LINE",
"864 870 LINE",
"577 845 LINE",
"567 771 LINE",
"701 748 LINE",
"619 200 LINE",
"564 145 OFFCURVE",
"503 117 OFFCURVE",
"438 117 CURVE SMOOTH",
"381 117 OFFCURVE",
"358 148 OFFCURVE",
"358 223 CURVE SMOOTH",
"358 260 OFFCURVE",
"363 311 OFFCURVE",
"374 376 CURVE SMOOTH",
"453 847 LINE",
"433 870 LINE",
"151 845 LINE",
"141 771 LINE",
"271 748 LINE",
"199 265 LINE SMOOTH",
"193 225 OFFCURVE",
"190 191 OFFCURVE",
"190 164 CURVE SMOOTH",
"190 41 OFFCURVE",
"241 -20 OFFCURVE",
"344 -20 CURVE SMOOTH",
"456 -20 OFFCURVE",
"566 56 OFFCURVE",
"607 131 CURVE",
"617 131 LINE",
"616 121 OFFCURVE",
"615 110 OFFCURVE",
"615 99 CURVE SMOOTH",
"615 22 OFFCURVE",
"655 -15 OFFCURVE",
"735 -15 CURVE SMOOTH",
"782 -15 OFFCURVE",
"829 -5 OFFCURVE",
"875 15 CURVE",
"893 84 LINE",
"827 96 LINE SMOOTH"
);
}
);
width = 906;
}
);
note = u;
unicode = 0075;
},
{
glyphname = v;
lastChange = "2016-08-10 08:57:17 +0000";
layers = (
{
layerId = "5ECBA62F-7A11-49B7-B673-3B0F38FC4DA3";
paths = (
{
closed = 1;
nodes = (
"793 766 LINE",
"892 801 LINE",
"912 875 LINE",
"580 875 LINE",
"563 804 LINE",
"686 771 LINE",
"446 215 LINE",
"376 768 LINE",
"499 806 LINE",
"517 875 LINE",
"138 875 LINE",
"120 804 LINE",
"216 773 LINE",
"323 -28 LINE",
"428 -10 LINE"
);
}
);
width = 768;
}
);
note = v;
unicode = 0076;
},
{
glyphname = w;
lastChange = "2016-08-10 08:57:17 +0000";
layers = (
{
layerId = "5ECBA62F-7A11-49B7-B673-3B0F38FC4DA3";
paths = (
{
closed = 1;
nodes = (
"404 362 LINE",
"355 768 LINE",
"476 801 LINE",
"494 875 LINE",
"140 875 LINE",
"122 804 LINE",
"219 773 LINE",
"295 -30 LINE",
"411 -12 LINE",
"671 604 LINE",
"750 -30 LINE",
"856 -12 LINE",
"1194 768 LINE",
"1290 801 LINE",
"1309 875 LINE",
"983 875 LINE",
"967 804 LINE",
"1088 773 LINE",
"858 215 LINE",
"853 347 LINE",
"793 829 LINE",
"659 811 LINE",
"413 227 LINE"
);
}
);
width = 1168;
}
);
note = w;
unicode = 0077;
},
{
glyphname = x;
lastChange = "2016-08-10 08:57:17 +0000";
layers = (
{
layerId = "5ECBA62F-7A11-49B7-B673-3B0F38FC4DA3";
paths = (
{
closed = 1;
nodes = (
"838 766 LINE",
"937 802 LINE",
"959 873 LINE",
"646 873 LINE",
"628 802 LINE",
"732 769 LINE",
"545 536 LINE",
"433 773 LINE",
"550 804 LINE",
"570 873 LINE",
"189 873 LINE",
"171 802 LINE",
"267 773 LINE",
"421 435 LINE",
"133 104 LINE",
"39 69 LINE",
"19 0 LINE",
"366 0 LINE",
"386 71 LINE",
"259 106 LINE",
"459 352 LINE",
"573 104 LINE",
"451 69 LINE",
"431 0 LINE",
"826 0 LINE",
"845 69 LINE",
"750 104 LINE",
"578 465 LINE"
);
}
);
width = 856;
}
);
note = x;
unicode = 0078;
},
{
glyphname = y;
lastChange = "2016-08-10 08:57:17 +0000";
layers = (
{
layerId = "5ECBA62F-7A11-49B7-B673-3B0F38FC4DA3";
paths = (
{
closed = 1;
nodes = (
"506 806 LINE",
"524 875 LINE",
"139 875 LINE",
"122 804 LINE",
"217 773 LINE",
"344 -15 LINE",
"326 -50 LINE SMOOTH",
"295 -107 OFFCURVE",
"268 -146 OFFCURVE",
"243 -165 CURVE SMOOTH",
"194 -205 OFFCURVE",
"106 -214 OFFCURVE",
"15 -141 CURVE",
"-32 -178 OFFCURVE",
"-56 -221 OFFCURVE",
"-56 -268 CURVE SMOOTH",
"-56 -337 OFFCURVE",
"-13 -380 OFFCURVE",
"74 -380 CURVE SMOOTH",
"214 -380 OFFCURVE",
"307 -298 OFFCURVE",
"435 -53 CURVE SMOOTH",
"864 769 LINE",
"959 801 LINE",
"979 875 LINE",
"645 875 LINE",
"625 804 LINE",
"748 771 LINE",
"467 225 LINE",
"382 766 LINE"
);
}
);
width = 832;
}
);
note = y;
unicode = 0079;
},
{
glyphname = z;
lastChange = "2016-08-10 08:57:17 +0000";
layers = (
{
layerId = "5ECBA62F-7A11-49B7-B673-3B0F38FC4DA3";
paths = (
{
closed = 1;
nodes = (
"333 791 LINE",
"619 791 LINE",
"76 79 LINE",
"68 0 LINE",
"647 0 LINE",
"726 243 LINE",
"663 251 LINE",
"548 88 LINE",
"245 88 LINE",
"796 807 LINE",
"806 875 LINE",
"227 875 LINE",
"179 634 LINE",
"245 622 LINE"
);
}
);
width = 746;
}
);
note = z;
unicode = 007A;
},
{
glyphname = braceleft;
lastChange = "2016-08-10 08:57:17 +0000";
layers = (
{
layerId = "5ECBA62F-7A11-49B7-B673-3B0F38FC4DA3";
paths = (
{
closed = 1;
nodes = (
"360 -268 OFFCURVE",
"341 -233 OFFCURVE",
"341 -169 CURVE SMOOTH",
"341 -137 OFFCURVE",
"348 -77 OFFCURVE",
"361 11 CURVE SMOOTH",
"374 100 OFFCURVE",
"380 167 OFFCURVE",
"380 213 CURVE SMOOTH",
"380 337 OFFCURVE",
"345 411 OFFCURVE",
"256 438 CURVE",
"258 445 LINE",
"341 468 OFFCURVE",
"403 533 OFFCURVE",
"436 618 CURVE SMOOTH",
"461 683 OFFCURVE",
"482 773 OFFCURVE",
"499 888 CURVE SMOOTH",
"512 977 OFFCURVE",
"526 1136 OFFCURVE",
"614 1151 CURVE SMOOTH",
"653 1158 LINE",
"678 1257 LINE",
"620 1257 LINE SMOOTH",
"511 1257 OFFCURVE",
"435 1204 OFFCURVE",
"395 1116 CURVE SMOOTH",
"367 1054 OFFCURVE",
"341 955 OFFCURVE",
"316 818 CURVE SMOOTH",
"308 770 OFFCURVE",
"297 721 OFFCURVE",
"283 672 CURVE SMOOTH",
"256 577 OFFCURVE",
"201 511 OFFCURVE",
"124 498 CURVE SMOOTH",
"74 490 LINE",
"60 390 LINE",
"109 382 LINE SMOOTH",
"182 370 OFFCURVE",
"210 313 OFFCURVE",
"210 208 CURVE SMOOTH",
"210 170 OFFCURVE",
"204 109 OFFCURVE",
"192 24 CURVE SMOOTH",
"180 -61 OFFCURVE",
"174 -124 OFFCURVE",
"174 -165 CURVE SMOOTH",
"174 -305 OFFCURVE",
"229 -379 OFFCURVE",
"362 -379 CURVE SMOOTH",
"423 -379 LINE",
"432 -278 LINE",
"399 -273 LINE SMOOTH"
);
}
);
width = 528;
}
);
note = braceleft;
unicode = 007B;
},
{
glyphname = bar;
lastChange = "2016-08-10 08:57:17 +0000";
layers = (
{
layerId = "5ECBA62F-7A11-49B7-B673-3B0F38FC4DA3";
paths = (
{
closed = 1;
nodes = (
"332 1257 LINE",
"77 -351 LINE",
"191 -364 LINE",
"446 1246 LINE"
);
}
);
width = 381;
}
);
note = bar;
unicode = 007C;
},
{
glyphname = braceright;
lastChange = "2016-08-10 08:57:17 +0000";
layers = (
{
layerId = "5ECBA62F-7A11-49B7-B673-3B0F38FC4DA3";
paths = (
{
closed = 1;
nodes = (
"45 -379 LINE SMOOTH",
"89 -379 OFFCURVE",
"128 -371 OFFCURVE",
"162 -354 CURVE SMOOTH",
"274 -301 OFFCURVE",
"312 -175 OFFCURVE",
"349 45 CURVE SMOOTH",
"384 242 OFFCURVE",
"419 363 OFFCURVE",
"540 382 CURVE SMOOTH",
"593 390 LINE",
"608 490 LINE",
"562 498 LINE SMOOTH",
"489 511 OFFCURVE",
"459 566 OFFCURVE",
"459 665 CURVE SMOOTH",
"459 701 OFFCURVE",
"465 762 OFFCURVE",
"476 849 CURVE SMOOTH",
"488 936 OFFCURVE",
"494 999 OFFCURVE",
"494 1039 CURVE SMOOTH",
"494 1167 OFFCURVE",
"456 1257 OFFCURVE",
"309 1257 CURVE SMOOTH",
"249 1257 LINE",
"241 1158 LINE",
"280 1151 LINE SMOOTH",
"319 1144 OFFCURVE",
"332 1113 OFFCURVE",
"332 1046 CURVE SMOOTH",
"332 1015 OFFCURVE",
"325 954 OFFCURVE",
"311 862 CURVE SMOOTH",
"296 769 OFFCURVE",
"289 701 OFFCURVE",
"289 658 CURVE SMOOTH",
"289 540 OFFCURVE",
"330 469 OFFCURVE",
"411 445 CURVE",
"409 438 LINE",
"326 417 OFFCURVE",
"264 350 OFFCURVE",
"232 265 CURVE SMOOTH",
"205 193 OFFCURVE",
"184 102 OFFCURVE",
"167 -8 CURVE SMOOTH",
"150 -116 OFFCURVE",
"138 -258 OFFCURVE",
"42 -273 CURVE SMOOTH",
"9 -278 LINE",
"-16 -379 LINE"
);
}
);
width = 527;
}
);
note = braceright;
unicode = 007D;
},
{
glyphname = asciitilde;
lastChange = "2016-08-10 08:57:17 +0000";
layers = (
{
layerId = "5ECBA62F-7A11-49B7-B673-3B0F38FC4DA3";
paths = (
{
closed = 1;
nodes = (
"230 418 LINE SMOOTH",
"247 445 OFFCURVE",
"278 470 OFFCURVE",
"301 470 CURVE SMOOTH",
"306 470 LINE",
"753 425 LINE",
"756 425 OFFCURVE",
"758 425 OFFCURVE",
"761 424 CURVE",
"763 423 OFFCURVE",
"765 423 OFFCURVE",
"768 423 CURVE SMOOTH",
"813 423 OFFCURVE",
"860 455 OFFCURVE",
"889 495 CURVE SMOOTH",
"913 527 OFFCURVE",
"937 581 OFFCURVE",
"945 605 CURVE",
"946 612 OFFCURVE",
"950 624 OFFCURVE",
"951 627 CURVE",
"887 629 LINE",
"875 614 LINE SMOOTH",
"856 590 OFFCURVE",
"827 567 OFFCURVE",
"806 567 CURVE SMOOTH",
"801 567 LINE",
"354 612 LINE",
"341 612 LINE SMOOTH",
"318 612 OFFCURVE",
"297 605 OFFCURVE",
"276 592 CURVE SMOOTH",
"234 565 OFFCURVE",
"199 522 OFFCURVE",
"170 435 CURVE SMOOTH",
"166 422 OFFCURVE",
"164 415 OFFCURVE",
"164 414 CURVE",
"218 400 LINE"
);
}
);
width = 948;
}
);
note = asciitilde;
unicode = 007E;
},
{
glyphname = exclamdown;
lastChange = "2016-08-10 08:57:17 +0000";
layers = (
{
layerId = "5ECBA62F-7A11-49B7-B673-3B0F38FC4DA3";
paths = (
{
closed = 1;
nodes = (
"397 685 OFFCURVE",
"457 745 OFFCURVE",
"457 825 CURVE SMOOTH",
"457 877 OFFCURVE",
"405 931 OFFCURVE",
"352 931 CURVE SMOOTH",
"273 931 OFFCURVE",
"214 872 OFFCURVE",
"214 792 CURVE SMOOTH",
"214 735 OFFCURVE",
"257 685 OFFCURVE",
"317 685 CURVE SMOOTH"
);
},
{
closed = 1;
nodes = (
"138 75 OFFCURVE",
"73 -222 OFFCURVE",
"52 -357 CURVE",
"52 -362 LINE SMOOTH",
"52 -386 OFFCURVE",
"78 -397 OFFCURVE",
"110 -397 CURVE SMOOTH",
"167 -397 OFFCURVE",
"240 -380 OFFCURVE",
"249 -357 CURVE",
"251 -354 LINE",
"270 -231 OFFCURVE",
"298 60 OFFCURVE",
"335 518 CURVE",
"335 521 LINE",
"249 541 LINE",
"249 534 LINE"
);
}
);
width = 412;
}
);
note = exclamdown;
unicode = 00A1;
},
{
glyphname = cent;
lastChange = "2016-08-10 08:57:17 +0000";
layers = (
{
layerId = "5ECBA62F-7A11-49B7-B673-3B0F38FC4DA3";
paths = (
{
closed = 1;
nodes = (
"583 895 LINE",
"542 888 OFFCURVE",
"502 875 OFFCURVE",
"462 855 CURVE SMOOTH",
"375 812 OFFCURVE",
"302 747 OFFCURVE",
"241 660 CURVE SMOOTH",
"178 572 OFFCURVE",
"141 453 OFFCURVE",
"141 334 CURVE SMOOTH",
"142 199 OFFCURVE",
"186 67 OFFCURVE",
"317 0 CURVE",
"277 -134 LINE",
"400 -114 LINE",
"424 -28 LINE",
"433 -29 OFFCURVE",
"444 -30 OFFCURVE",
"456 -30 CURVE SMOOTH",
"593 -30 OFFCURVE",
"698 10 OFFCURVE",
"797 99 CURVE",
"793 127 OFFCURVE",
"788 146 OFFCURVE",
"783 156 CURVE",
"699 108 OFFCURVE",
"641 86 OFFCURVE",
"565 86 CURVE SMOOTH",
"524 86 OFFCURVE",
"491 92 OFFCURVE",
"464 104 CURVE",
"659 781 LINE",
"699 750 OFFCURVE",
"721 691 OFFCURVE",
"724 642 CURVE",
"807 649 OFFCURVE",
"866 701 OFFCURVE",
"866 761 CURVE SMOOTH",
"866 841 OFFCURVE",
"820 885 OFFCURVE",
"701 897 CURVE",
"742 1037 LINE",
"620 1016 LINE"
);
},
{
closed = 1;
nodes = (
"354 255 OFFCURVE",
"347 295 OFFCURVE",
"347 407 CURVE SMOOTH",
"347 587 OFFCURVE",
"459 776 OFFCURVE",
"567 804 CURVE",
"391 184 LINE"
);
}
);
width = 845;
}
);
note = cent;
unicode = 00A2;
},
{
glyphname = sterling;
lastChange = "2016-08-10 08:57:17 +0000";
layers = (
{
layerId = "5ECBA62F-7A11-49B7-B673-3B0F38FC4DA3";
paths = (
{
closed = 1;
nodes = (
"1058 1239 OFFCURVE",
"982 1252 OFFCURVE",
"889 1252 CURVE SMOOTH",
"657 1252 OFFCURVE",
"468 1106 OFFCURVE",
"408 787 CURVE SMOOTH",
"383 650 LINE",
"211 640 LINE",
"183 539 LINE",
"363 549 LINE",
"348 462 LINE SMOOTH",
"313 277 OFFCURVE",
"295 209 OFFCURVE",
"254 121 CURVE",
"80 74 LINE",
"60 0 LINE",
"1051 0 LINE",
"1141 331 LINE",
"1058 349 LINE",
"888 96 LINE",
"426 99 LINE",
"475 178 OFFCURVE",
"518 317 OFFCURVE",
"553 516 CURVE",
"562 556 LINE",
"773 569 LINE",
"801 670 LINE",
"578 657 LINE",
"586 705 LINE SMOOTH",
"599 772 OFFCURVE",
"611 831 OFFCURVE",
"623 880 CURVE SMOOTH",
"674 1088 OFFCURVE",
"734 1146 OFFCURVE",
"863 1146 CURVE SMOOTH",
"891 1146 OFFCURVE",
"918 1138 OFFCURVE",
"944 1123 CURVE",
"952 910 LINE",
"1035 897 LINE",
"1117 1213 LINE"
);
}
);
width = 1148;
}
);
note = sterling;
unicode = 00A3;
},
{
glyphname = currency;
lastChange = "2016-08-10 08:57:17 +0000";
layers = (
{
layerId = "5ECBA62F-7A11-49B7-B673-3B0F38FC4DA3";
paths = (
{
closed = 1;
nodes = (
"605 672 OFFCURVE",
"646 619 OFFCURVE",
"646 506 CURVE SMOOTH",
"646 403 OFFCURVE",
"555 314 OFFCURVE",
"456 314 CURVE SMOOTH",
"365 314 OFFCURVE",
"327 363 OFFCURVE",
"327 475 CURVE SMOOTH",
"327 583 OFFCURVE",
"413 672 OFFCURVE",
"510 672 CURVE SMOOTH"
);
},
{
closed = 1;
nodes = (
"307 258 LINE",
"349 231 OFFCURVE",
"391 217 OFFCURVE",
"434 217 CURVE SMOOTH",
"485 217 OFFCURVE",
"539 233 OFFCURVE",
"598 265 CURVE",
"663 174 LINE",
"763 256 LINE",
"682 342 LINE",
"723 389 OFFCURVE",
"754 463 OFFCURVE",
"754 536 CURVE SMOOTH",
"754 591 OFFCURVE",
"752 601 OFFCURVE",
"736 637 CURVE",
"833 711 LINE",
"770 799 LINE",
"679 720 LINE",
"644 751 OFFCURVE",
"586 769 OFFCURVE",
"530 769 CURVE SMOOTH",
"481 769 OFFCURVE",
"415 746 OFFCURVE",
"366 710 CURVE",
"304 797 LINE",
"206 715 LINE",
"282 629 LINE",
"253 592 OFFCURVE",
"214 486 OFFCURVE",
"214 443 CURVE SMOOTH",
"214 394 OFFCURVE",
"218 380 OFFCURVE",
"241 333 CURVE",
"145 255 LINE",
"216 169 LINE"
);
}
);
width = 815;
}
);
note = currency;
unicode = 00A4;
},
{
glyphname = yen;
lastChange = "2016-08-10 08:57:17 +0000";
layers = (
{
layerId = "5ECBA62F-7A11-49B7-B673-3B0F38FC4DA3";
paths = (
{
closed = 1;
nodes = (
"223 346 LINE",
"194 240 LINE",
"505 240 LINE",
"486 121 LINE",
"329 74 LINE",
"308 0 LINE",
"816 0 LINE",
"837 81 LINE",
"678 114 LINE",
"698 240 LINE",
"1011 240 LINE",
"1041 346 LINE",
"716 346 LINE",
"736 473 LINE",
"1052 473 LINE",
"1080 579 LINE",
"776 579 LINE",
"1118 1132 LINE",
"1247 1170 LINE",
"1270 1246 LINE",
"873 1246 LINE",
"850 1170 LINE",
"1002 1128 LINE",
"706 642 LINE",
"574 1132 LINE",
"711 1170 LINE",
"736 1246 LINE",
"268 1246 LINE",
"242 1170 LINE",
"374 1128 LINE",
"528 579 LINE",
"263 579 LINE",
"235 473 LINE",
"543 473 LINE",
"523 346 LINE"
);
}
);
width = 1137;
}
);
note = yen;
unicode = 00A5;
},
{
glyphname = brokenbar;
lastChange = "2016-08-10 08:57:17 +0000";
layers = (
{
layerId = "5ECBA62F-7A11-49B7-B673-3B0F38FC4DA3";
paths = (
{
closed = 1;
nodes = (
"311 420 LINE",
"202 432 LINE",
"78 -351 LINE",
"187 -364 LINE"
);
},
{
closed = 1;
nodes = (
"442 1246 LINE",
"333 1257 LINE",
"218 541 LINE",
"323 529 LINE"
);
}
);
width = 377;
}
);
note = brokenbar;
unicode = 00A6;
},
{
glyphname = section;
lastChange = "2016-08-10 08:57:17 +0000";
layers = (
{
layerId = "5ECBA62F-7A11-49B7-B673-3B0F38FC4DA3";
paths = (
{
closed = 1;
nodes = (
"861 1243 OFFCURVE",
"772 1277 OFFCURVE",
"663 1277 CURVE SMOOTH",
"596 1277 OFFCURVE",
"531 1264 OFFCURVE",
"468 1237 CURVE SMOOTH",
"342 1183 OFFCURVE",
"238 1066 OFFCURVE",
"215 921 CURVE",
"212 906 OFFCURVE",
"211 888 OFFCURVE",
"211 869 CURVE SMOOTH",
"211 861 OFFCURVE",
"211 853 OFFCURVE",
"212 845 CURVE SMOOTH",
"227 682 OFFCURVE",
"346 622 OFFCURVE",
"502 530 CURVE SMOOTH",
"874 302 LINE",
"885 333 OFFCURVE",
"891 369 OFFCURVE",
"891 408 CURVE SMOOTH",
"891 492 OFFCURVE",
"851 565 OFFCURVE",
"793 614 CURVE SMOOTH",
"735 663 OFFCURVE",
"661 705 OFFCURVE",
"592 745 CURVE SMOOTH",
"557 765 OFFCURVE",
"526 785 OFFCURVE",
"497 806 CURVE SMOOTH",
"439 847 OFFCURVE",
"399 903 OFFCURVE",
"399 970 CURVE SMOOTH",
"399 981 OFFCURVE",
"400 991 OFFCURVE",
"401 1002 CURVE",
"421 1126 OFFCURVE",
"507 1191 OFFCURVE",
"615 1191 CURVE SMOOTH",
"690 1191 OFFCURVE",
"755 1139 OFFCURVE",
"770 1096 CURVE",
"766 903 LINE",
"864 892 LINE",
"931 1176 LINE"
);
},
{
closed = 1;
nodes = (
"156 575 OFFCURVE",
"151 548 OFFCURVE",
"151 509 CURVE SMOOTH",
"151 434 OFFCURVE",
"182 367 OFFCURVE",
"227 322 CURVE SMOOTH",
"272 277 OFFCURVE",
"332 231 OFFCURVE",
"393 199 CURVE SMOOTH",
"453 166 OFFCURVE",
"514 126 OFFCURVE",
"559 91 CURVE SMOOTH",
"604 56 OFFCURVE",
"634 8 OFFCURVE",
"634 -45 CURVE SMOOTH",
"634 -54 OFFCURVE",
"633 -63 OFFCURVE",
"632 -72 CURVE",
"621 -144 OFFCURVE",
"579 -202 OFFCURVE",
"527 -234 CURVE SMOOTH",
"474 -266 OFFCURVE",
"416 -283 OFFCURVE",
"360 -283 CURVE SMOOTH",
"271 -283 OFFCURVE",
"199 -234 OFFCURVE",
"170 -173 CURVE",
"161 17 LINE",
"60 31 LINE",
"5 -237 LINE",
"60 -321 OFFCURVE",
"183 -385 OFFCURVE",
"320 -385 CURVE SMOOTH",
"435 -385 OFFCURVE",
"553 -347 OFFCURVE",
"646 -282 CURVE SMOOTH",
"738 -218 OFFCURVE",
"810 -117 OFFCURVE",
"827 -5 CURVE",
"830 10 OFFCURVE",
"831 28 OFFCURVE",
"831 47 CURVE SMOOTH",
"831 102 OFFCURVE",
"818 150 OFFCURVE",
"789 190 CURVE SMOOTH",
"760 229 OFFCURVE",
"734 258 OFFCURVE",
"686 291 CURVE SMOOTH",
"638 323 OFFCURVE",
"612 339 OFFCURVE",
"557 371 CURVE SMOOTH",
"529 387 OFFCURVE",
"508 399 OFFCURVE",
"493 408 CURVE SMOOTH",
"167 610 LINE"
);
}
);
width = 801;
}
);
note = section;
unicode = 00A7;
},
{
glyphname = dieresis;
lastChange = "2016-08-10 08:57:17 +0000";
layers = (
{
layerId = "5ECBA62F-7A11-49B7-B673-3B0F38FC4DA3";
paths = (
{
closed = 1;
nodes = (
"564 1511 OFFCURVE",
"524 1545 OFFCURVE",
"476 1545 CURVE SMOOTH",
"432 1545 OFFCURVE",
"392 1512 OFFCURVE",
"392 1467 CURVE SMOOTH",
"392 1422 OFFCURVE",
"429 1386 OFFCURVE",
"476 1386 CURVE SMOOTH",
"524 1386 OFFCURVE",
"564 1420 OFFCURVE",
"564 1467 CURVE SMOOTH"
);
},
{
closed = 1;
nodes = (
"294 1511 OFFCURVE",
"256 1545 OFFCURVE",
"208 1545 CURVE SMOOTH",
"164 1545 OFFCURVE",
"124 1512 OFFCURVE",
"124 1467 CURVE SMOOTH",
"124 1422 OFFCURVE",
"161 1386 OFFCURVE",
"208 1386 CURVE SMOOTH",
"256 1386 OFFCURVE",
"294 1420 OFFCURVE",
"294 1467 CURVE SMOOTH"
);
}
);
width = 687;
}
);
note = dieresis;
unicode = 00A8;
},
{
glyphname = copyright;
lastChange = "2016-08-10 08:57:17 +0000";
layers = (
{
layerId = "5ECBA62F-7A11-49B7-B673-3B0F38FC4DA3";
paths = (
{
closed = 1;
nodes = (
"1348 856 OFFCURVE",
"1336 657 OFFCURVE",
"1291 508 CURVE SMOOTH",
"1206 233 OFFCURVE",
"970 68 OFFCURVE",
"706 68 CURVE SMOOTH",
"585 68 OFFCURVE",
"431 95 OFFCURVE",
"342 252 CURVE SMOOTH",
"259 396 OFFCURVE",
"268 598 OFFCURVE",
"313 749 CURVE SMOOTH",
"397 1025 OFFCURVE",
"628 1193 OFFCURVE",
"887 1193 CURVE SMOOTH",
"1008 1193 OFFCURVE",
"1165 1164 OFFCURVE",
"1261 1001 CURVE SMOOTH"
);
},
{
closed = 1;
nodes = (
"1169 1243 OFFCURVE",
"1044 1284 OFFCURVE",
"900 1284 CURVE SMOOTH",
"775 1284 OFFCURVE",
"657 1252 OFFCURVE",
"544 1187 CURVE SMOOTH",
"320 1058 OFFCURVE",
"164 809 OFFCURVE",
"164 493 CURVE SMOOTH",
"164 439 OFFCURVE",
"170 387 OFFCURVE",
"183 338 CURVE SMOOTH",
"209 232 OFFCURVE",
"262 146 OFFCURVE",
"342 81 CURVE SMOOTH",
"423 14 OFFCURVE",
"543 -26 OFFCURVE",
"683 -26 CURVE SMOOTH",
"760 -26 OFFCURVE",
"836 -15 OFFCURVE",
"910 6 CURVE SMOOTH",
"1057 49 OFFCURVE",
"1188 139 OFFCURVE",
"1284 263 CURVE SMOOTH",
"1381 390 OFFCURVE",
"1439 567 OFFCURVE",
"1439 766 CURVE SMOOTH",
"1439 819 OFFCURVE",
"1433 870 OFFCURVE",
"1420 919 CURVE SMOOTH",
"1392 1024 OFFCURVE",
"1337 1109 OFFCURVE",
"1254 1176 CURVE SMOOTH"
);
},
{
closed = 1;
nodes = (
"689 362 OFFCURVE",
"646 434 OFFCURVE",
"646 557 CURVE SMOOTH",
"646 774 OFFCURVE",
"742 950 OFFCURVE",
"835 950 CURVE",
"850 949 OFFCURVE",
"862 941 OFFCURVE",
"872 926 CURVE SMOOTH",
"888 902 OFFCURVE",
"897 865 OFFCURVE",
"900 816 CURVE",
"967 821 OFFCURVE",
"1016 856 OFFCURVE",
"1016 908 CURVE SMOOTH",
"1016 945 OFFCURVE",
"1004 974 OFFCURVE",
"979 995 CURVE SMOOTH",
"930 1038 OFFCURVE",
"851 1035 OFFCURVE",
"784 1006 CURVE SMOOTH",
"713 975 OFFCURVE",
"651 921 OFFCURVE",
"596 842 CURVE SMOOTH",
"541 762 OFFCURVE",
"506 651 OFFCURVE",
"506 539 CURVE SMOOTH",
"506 366 OFFCURVE",
"587 261 OFFCURVE",
"723 261 CURVE SMOOTH",
"802 261 OFFCURVE",
"892 308 OFFCURVE",
"943 372 CURVE",
"923 415 LINE",
"876 380 OFFCURVE",
"826 362 OFFCURVE",
"773 362 CURVE SMOOTH"
);
}
);
width = 1404;
}
);
note = copyright;
unicode = 00A9;
},
{
glyphname = ordfeminine;
lastChange = "2016-08-10 08:57:17 +0000";
layers = (
{
layerId = "5ECBA62F-7A11-49B7-B673-3B0F38FC4DA3";
paths = (
{
closed = 1;
nodes = (
"490 288 LINE",
"506 346 LINE",
"167 346 LINE",
"151 288 LINE"
);
},
{
closed = 1;
nodes = (
"364 464 OFFCURVE",
"338 450 OFFCURVE",
"311 450 CURVE SMOOTH",
"286 450 OFFCURVE",
"273 463 OFFCURVE",
"273 490 CURVE SMOOTH",
"273 538 OFFCURVE",
"307 564 OFFCURVE",
"400 577 CURVE",
"387 493 LINE"
);
},
{
closed = 1;
nodes = (
"491 455 LINE",
"463 458 OFFCURVE",
"453 467 OFFCURVE",
"453 488 CURVE SMOOTH",
"453 493 OFFCURVE",
"454 500 OFFCURVE",
"455 508 CURVE SMOOTH",
"478 653 LINE",
"480 671 OFFCURVE",
"481 685 OFFCURVE",
"481 695 CURVE SMOOTH",
"481 751 OFFCURVE",
"456 778 OFFCURVE",
"399 778 CURVE SMOOTH",
"332 778 OFFCURVE",
"251 736 OFFCURVE",
"251 693 CURVE SMOOTH",
"251 671 OFFCURVE",
"268 660 OFFCURVE",
"301 660 CURVE",
"304 671 OFFCURVE",
"307 680 OFFCURVE",
"309 688 CURVE",
"322 729 OFFCURVE",
"334 738 OFFCURVE",
"359 738 CURVE SMOOTH",
"394 738 OFFCURVE",
"412 715 OFFCURVE",
"412 670 CURVE SMOOTH",
"412 660 OFFCURVE",
"411 647 OFFCURVE",
"409 632 CURVE",
"404 605 LINE",
"260 580 OFFCURVE",
"200 538 OFFCURVE",
"200 467 CURVE SMOOTH",
"200 430 OFFCURVE",
"225 407 OFFCURVE",
"266 407 CURVE SMOOTH",
"315 407 OFFCURVE",
"368 436 OFFCURVE",
"385 468 CURVE",
"390 468 LINE",
"390 463 LINE SMOOTH",
"390 462 OFFCURVE",
"390 460 OFFCURVE",
"390 458 CURVE",
"389 456 OFFCURVE",
"389 454 OFFCURVE",
"389 453 CURVE SMOOTH",
"389 428 OFFCURVE",
"410 409 OFFCURVE",
"445 409 CURVE SMOOTH",
"456 409 OFFCURVE",
"469 411 OFFCURVE",
"483 414 CURVE",
"487 414 OFFCURVE",
"491 415 OFFCURVE",
"496 416 CURVE",
"498 417 OFFCURVE",
"499 417 OFFCURVE",
"500 417 CURVE",
"511 452 LINE"
);
}
);
width = 541;
}
);
note = ordfeminine;
unicode = 00AA;
},
{
glyphname = guillemotleft;
lastChange = "2016-08-10 08:57:17 +0000";
layers = (
{
layerId = "5ECBA62F-7A11-49B7-B673-3B0F38FC4DA3";
paths = (
{
closed = 1;
nodes = (
"544 78 LINE",
"607 141 LINE",
"490 462 LINE",
"703 763 LINE",
"667 822 LINE",
"342 470 LINE",
"342 450 LINE"
);
},
{
closed = 1;
nodes = (
"296 78 LINE",
"359 141 LINE",
"242 462 LINE",
"455 763 LINE",
"419 822 LINE",
"94 470 LINE",
"94 450 LINE"
);
}
);
width = 652;
}
);
note = guillemotleft;
unicode = 00AB;
},
{
glyphname = logicalnot;
lastChange = "2016-08-10 08:57:17 +0000";
layers = (
{
layerId = "5ECBA62F-7A11-49B7-B673-3B0F38FC4DA3";
paths = (
{
closed = 1;
nodes = (
"841 559 LINE",
"805 333 LINE",
"914 351 LINE",
"962 665 LINE",
"216 665 LINE",
"188 559 LINE"
);
}
);
width = 969;
}
);
note = logicalnot;
unicode = 00AC;
},
{
glyphname = softhyphen;
lastChange = "2016-08-10 08:57:17 +0000";
layers = (
{
layerId = "5ECBA62F-7A11-49B7-B673-3B0F38FC4DA3";
paths = (
{
closed = 1;
nodes = (
"600 467 LINE",
"608 582 LINE",
"199 523 LINE",
"191 407 LINE"
);
}
);
width = 641;
}
);
note = softhyphen;
unicode = 00AD;
},
{
glyphname = registered;
lastChange = "2016-08-10 08:57:17 +0000";
layers = (
{
layerId = "5ECBA62F-7A11-49B7-B673-3B0F38FC4DA3";
paths = (
{
closed = 1;
nodes = (
"696 1230 OFFCURVE",
"624 1310 OFFCURVE",
"500 1310 CURVE SMOOTH",
"454 1310 OFFCURVE",
"412 1299 OFFCURVE",
"373 1277 CURVE SMOOTH",
"292 1232 OFFCURVE",
"236 1135 OFFCURVE",
"236 1019 CURVE SMOOTH",
"236 914 OFFCURVE",
"302 839 OFFCURVE",
"421 839 CURVE SMOOTH",
"574 839 OFFCURVE",
"696 951 OFFCURVE",
"696 1118 CURVE SMOOTH"
);
},
{
closed = 1;
nodes = (
"598 1279 OFFCURVE",
"658 1211 OFFCURVE",
"658 1115 CURVE SMOOTH",
"658 1012 OFFCURVE",
"600 872 OFFCURVE",
"429 872 CURVE SMOOTH",
"332 872 OFFCURVE",
"277 937 OFFCURVE",
"277 1029 CURVE SMOOTH",
"277 1177 OFFCURVE",
"374 1279 OFFCURVE",
"495 1279 CURVE SMOOTH"
);
},
{
closed = 1;
nodes = (
"464 1188 LINE",
"496 1188 OFFCURVE",
"512 1175 OFFCURVE",
"512 1148 CURVE SMOOTH",
"512 1116 OFFCURVE",
"492 1087 OFFCURVE",
"469 1087 CURVE SMOOTH",
"434 1087 LINE",
"449 1186 LINE"
);
},
{
closed = 1;
nodes = (
"563 1196 OFFCURVE",
"537 1211 OFFCURVE",
"462 1211 CURVE SMOOTH",
"449 1211 OFFCURVE",
"420 1209 OFFCURVE",
"373 1204 CURVE",
"368 1186 LINE",
"403 1180 LINE",
"371 981 LINE",
"335 973 LINE",
"330 955 LINE",
"446 955 LINE",
"451 973 LINE",
"418 983 LINE",
"429 1062 LINE",
"461 1062 LINE",
"486 1006 LINE SMOOTH",
"502 969 OFFCURVE",
"524 951 OFFCURVE",
"552 951 CURVE",
"563 952 OFFCURVE",
"571 953 OFFCURVE",
"577 955 CURVE",
"585 973 LINE",
"578 974 LINE",
"560 982 OFFCURVE",
"544 1000 OFFCURVE",
"529 1027 CURVE SMOOTH",
"497 1082 LINE",
"538 1098 OFFCURVE",
"563 1127 OFFCURVE",
"563 1155 CURVE SMOOTH"
);
}
);
width = 598;
}
);
note = registered;
unicode = 00AE;
},
{
glyphname = macron;
lastChange = "2016-08-10 08:57:17 +0000";
layers = (
{
layerId = "5ECBA62F-7A11-49B7-B673-3B0F38FC4DA3";
paths = (
{
closed = 1;
nodes = (
"566 1381 LINE",
"579 1481 LINE",
"137 1481 LINE",
"124 1381 LINE"
);
}
);
width = 702;
}
);
note = macron;
unicode = 00AF;
},
{
glyphname = degree;
lastChange = "2016-08-10 08:57:17 +0000";
layers = (
{
layerId = "5ECBA62F-7A11-49B7-B673-3B0F38FC4DA3";
paths = (
{
closed = 1;
nodes = (
"461 1239 OFFCURVE",
"486 1196 OFFCURVE",
"486 1145 CURVE SMOOTH",
"486 1050 OFFCURVE",
"441 998 OFFCURVE",
"380 998 CURVE SMOOTH",
"329 998 OFFCURVE",
"303 1039 OFFCURVE",
"303 1102 CURVE SMOOTH",
"303 1175 OFFCURVE",
"350 1239 OFFCURVE",
"409 1239 CURVE SMOOTH"
);
},
{
closed = 1;
nodes = (
"325 1287 OFFCURVE",
"228 1192 OFFCURVE",
"228 1079 CURVE SMOOTH",
"228 1003 OFFCURVE",
"277 950 OFFCURVE",
"361 950 CURVE SMOOTH",
"457 950 OFFCURVE",
"559 1061 OFFCURVE",
"559 1160 CURVE SMOOTH",
"559 1255 OFFCURVE",
"525 1287 OFFCURVE",
"428 1287 CURVE SMOOTH"
);
}
);
width = 435;
}
);
note = degree;
unicode = 00B0;
},
{
glyphname = plusminus;
lastChange = "2016-08-10 08:57:17 +0000";
layers = (
{
layerId = "5ECBA62F-7A11-49B7-B673-3B0F38FC4DA3";
paths = (
{
closed = 1;
nodes = (
"722 20 LINE",
"755 124 LINE",
"141 117 LINE",
"108 13 LINE"
);
},
{
closed = 1;
nodes = (
"737 577 LINE",
"517 577 LINE",
"550 797 LINE",
"444 809 LINE",
"408 577 LINE",
"198 577 LINE",
"171 476 LINE",
"393 476 LINE",
"356 251 LINE",
"466 240 LINE",
"502 476 LINE",
"711 476 LINE"
);
}
);
width = 799;
}
);
note = plusminus;
unicode = 00B1;
},
{
glyphname = twosuperior;
lastChange = "2016-08-10 08:57:17 +0000";
layers = (
{
layerId = "5ECBA62F-7A11-49B7-B673-3B0F38FC4DA3";
paths = (
{
closed = 1;
nodes = (
"320 1295 OFFCURVE",
"382 1284 OFFCURVE",
"382 1227 CURVE SMOOTH",
"382 1191 OFFCURVE",
"364 1159 OFFCURVE",
"329 1130 CURVE SMOOTH",
"228 1044 LINE",
"225 1012 LINE",
"402 1012 LINE",
"417 1055 LINE",
"285 1055 LINE",
"329 1090 LINE SMOOTH",
"413 1157 OFFCURVE",
"438 1185 OFFCURVE",
"438 1236 CURVE SMOOTH",
"438 1277 OFFCURVE",
"413 1304 OFFCURVE",
"372 1304 CURVE SMOOTH",
"328 1304 OFFCURVE",
"268 1263 OFFCURVE",
"268 1227 CURVE SMOOTH",
"268 1207 OFFCURVE",
"275 1201 OFFCURVE",
"304 1198 CURVE"
);
}
);
width = 320;
}
);
note = twosuperior;
unicode = 00B2;
},
{
glyphname = threesuperior;
lastChange = "2016-08-10 08:57:17 +0000";
layers = (
{
layerId = "5ECBA62F-7A11-49B7-B673-3B0F38FC4DA3";
paths = (
{
closed = 1;
nodes = (
"276 1122 LINE",
"276 1105 LINE",
"283 1105 OFFCURVE",
"289 1105 OFFCURVE",
"295 1106 CURVE SMOOTH",
"301 1107 OFFCURVE",
"307 1107 OFFCURVE",
"313 1107 CURVE SMOOTH",
"345 1107 OFFCURVE",
"367 1080 OFFCURVE",
"367 1047 CURVE SMOOTH",
"367 1044 OFFCURVE",
"367 1042 OFFCURVE",
"367 1041 CURVE",
"366 1039 OFFCURVE",
"366 1037 OFFCURVE",
"366 1034 CURVE",
"359 997 OFFCURVE",
"336 969 OFFCURVE",
"301 969 CURVE SMOOTH",
"289 969 OFFCURVE",
"280 972 OFFCURVE",
"275 979 CURVE",
"268 988 OFFCURVE",
"265 1006 OFFCURVE",
"265 1031 CURVE",
"245 1027 OFFCURVE",
"223 1015 OFFCURVE",
"220 996 CURVE",
"220 989 LINE SMOOTH",
"220 961 OFFCURVE",
"245 940 OFFCURVE",
"301 940 CURVE SMOOTH",
"360 940 OFFCURVE",
"411 987 OFFCURVE",
"420 1042 CURVE",
"420 1045 OFFCURVE",
"420 1047 OFFCURVE",
"421 1050 CURVE",
"422 1052 OFFCURVE",
"422 1054 OFFCURVE",
"422 1057 CURVE SMOOTH",
"422 1092 OFFCURVE",
"400 1121 OFFCURVE",
"361 1132 CURVE",
"361 1136 LINE",
"400 1156 OFFCURVE",
"429 1195 OFFCURVE",
"433 1232 CURVE",
"433 1235 OFFCURVE",
"433 1237 OFFCURVE",
"434 1239 CURVE",
"435 1240 OFFCURVE",
"435 1242 OFFCURVE",
"435 1244 CURVE SMOOTH",
"435 1277 OFFCURVE",
"408 1304 OFFCURVE",
"369 1304 CURVE SMOOTH",
"326 1304 OFFCURVE",
"267 1271 OFFCURVE",
"260 1231 CURVE",
"260 1226 LINE SMOOTH",
"260 1211 OFFCURVE",
"272 1202 OFFCURVE",
"296 1201 CURVE",
"303 1246 OFFCURVE",
"323 1270 OFFCURVE",
"346 1270 CURVE SMOOTH",
"369 1270 OFFCURVE",
"384 1254 OFFCURVE",
"384 1231 CURVE SMOOTH",
"384 1228 OFFCURVE",
"384 1226 OFFCURVE",
"383 1225 CURVE",
"382 1223 OFFCURVE",
"382 1221 OFFCURVE",
"382 1219 CURVE",
"379 1199 OFFCURVE",
"371 1183 OFFCURVE",
"358 1172 CURVE SMOOTH",
"329 1147 OFFCURVE",
"312 1143 OFFCURVE",
"285 1136 CURVE",
"280 1134 OFFCURVE",
"277 1133 OFFCURVE",
"276 1133 CURVE",
"276 1132 LINE"
);
}
);
width = 320;
}
);
note = threesuperior;
unicode = 00B3;
},
{
glyphname = acute;
lastChange = "2016-08-10 08:57:17 +0000";
layers = (
{
layerId = "5ECBA62F-7A11-49B7-B673-3B0F38FC4DA3";
paths = (
{
closed = 1;
nodes = (
"230 1383 LINE",
"281 1352 LINE",
"465 1669 LINE",
"352 1709 LINE"
);
}
);
width = 619;
}
);
note = acute;
unicode = 00B4;
},
{
glyphname = micro;
lastChange = "2016-08-10 08:57:17 +0000";
layers = (
{
layerId = "5ECBA62F-7A11-49B7-B673-3B0F38FC4DA3";
paths = (
{
closed = 1;
nodes = (
"621 121 OFFCURVE",
"620 110 OFFCURVE",
"620 99 CURVE SMOOTH",
"620 22 OFFCURVE",
"659 -15 OFFCURVE",
"739 -15 CURVE SMOOTH",
"787 -15 OFFCURVE",
"834 -5 OFFCURVE",
"880 15 CURVE",
"898 84 LINE",
"832 96 LINE SMOOTH",
"800 101 OFFCURVE",
"789 118 OFFCURVE",
"789 170 CURVE SMOOTH",
"789 204 OFFCURVE",
"797 271 OFFCURVE",
"812 371 CURVE SMOOTH",
"888 847 LINE",
"868 870 LINE",
"582 845 LINE",
"572 771 LINE",
"706 748 LINE",
"624 200 LINE",
"569 145 OFFCURVE",
"508 117 OFFCURVE",
"443 117 CURVE SMOOTH",
"387 117 OFFCURVE",
"361 151 OFFCURVE",
"361 228 CURVE SMOOTH",
"361 250 OFFCURVE",
"364 279 OFFCURVE",
"369 316 CURVE SMOOTH",
"455 845 LINE",
"433 870 LINE",
"156 849 LINE",
"146 773 LINE",
"278 738 LINE",
"240 495 LINE SMOOTH",
"219 364 OFFCURVE",
"194 224 OFFCURVE",
"164 73 CURVE SMOOTH",
"92 -293 LINE",
"89 -305 OFFCURVE",
"87 -317 OFFCURVE",
"85 -329 CURVE",
"82 -341 OFFCURVE",
"81 -349 OFFCURVE",
"80 -354 CURVE SMOOTH",
"79 -359 OFFCURVE",
"78 -361 OFFCURVE",
"78 -362 CURVE",
"202 -389 LINE",
"228 -101 LINE SMOOTH",
"234 -50 OFFCURVE",
"237 -8 OFFCURVE",
"237 23 CURVE",
"245 23 LINE",
"264 -6 OFFCURVE",
"304 -20 OFFCURVE",
"366 -20 CURVE SMOOTH",
"465 -20 OFFCURVE",
"572 58 OFFCURVE",
"612 131 CURVE",
"622 131 LINE"
);
}
);
width = 911;
}
);
note = micro;
unicode = 00B5;
},
{
glyphname = paragraph;
lastChange = "2016-08-10 08:57:17 +0000";
layers = (
{
layerId = "5ECBA62F-7A11-49B7-B673-3B0F38FC4DA3";
paths = (
{
closed = 1;
nodes = (
"935 121 LINE",
"895 111 LINE",
"873 114 LINE",
"1036 1132 LINE",
"1059 1136 LINE",
"1095 1128 LINE"
);
},
{
closed = 1;
nodes = (
"579 1247 OFFCURVE",
"452 1202 OFFCURVE",
"353 1123 CURVE SMOOTH",
"253 1046 OFFCURVE",
"189 919 OFFCURVE",
"189 787 CURVE SMOOTH",
"188 554 OFFCURVE",
"358 481 OFFCURVE",
"635 481 CURVE SMOOTH",
"679 481 OFFCURVE",
"723 483 OFFCURVE",
"766 486 CURVE",
"708 121 LINE",
"534 74 LINE",
"514 0 LINE",
"1241 0 LINE",
"1262 81 LINE",
"1085 114 LINE",
"1247 1132 LINE",
"1423 1170 LINE",
"1446 1246 LINE",
"700 1247 LINE SMOOTH"
);
},
{
closed = 1;
nodes = (
"668 579 LINE",
"627 579 OFFCURVE",
"590 584 OFFCURVE",
"557 594 CURVE SMOOTH",
"438 630 OFFCURVE",
"400 716 OFFCURVE",
"400 821 CURVE SMOOTH",
"400 1037 OFFCURVE",
"538 1156 OFFCURVE",
"766 1156 CURVE SMOOTH",
"800 1157 OFFCURVE",
"835 1156 OFFCURVE",
"872 1155 CURVE",
"781 581 LINE",
"776 586 LINE"
);
}
);
width = 1325;
}
);
note = paragraph;
unicode = 00B6;
},
{
glyphname = periodcentered;
lastChange = "2016-08-10 08:57:17 +0000";
layers = (
{
layerId = "5ECBA62F-7A11-49B7-B673-3B0F38FC4DA3";
paths = (
{
closed = 1;
nodes = (
"276 619 OFFCURVE",
"244 606 OFFCURVE",
"217 581 CURVE SMOOTH",
"161 530 OFFCURVE",
"143 382 OFFCURVE",
"275 382 CURVE SMOOTH",
"346 382 OFFCURVE",
"414 441 OFFCURVE",
"414 507 CURVE SMOOTH",
"414 573 OFFCURVE",
"376 619 OFFCURVE",
"313 619 CURVE SMOOTH"
);
}
);
width = 430;
}
);
note = periodcentered;
unicode = 00B7;
},
{
glyphname = cedilla;
lastChange = "2016-08-10 08:57:17 +0000";
layers = (
{
layerId = "5ECBA62F-7A11-49B7-B673-3B0F38FC4DA3";
paths = (
{
closed = 1;
nodes = (
"194 3 LINE",
"96 -137 LINE",
"145 -184 OFFCURVE",
"169 -221 OFFCURVE",
"169 -248 CURVE SMOOTH",
"169 -280 OFFCURVE",
"138 -312 OFFCURVE",
"83 -331 CURVE",
"103 -390 LINE",
"370 -310 OFFCURVE",
"332 -180 OFFCURVE",
"213 -76 CURVE",
"268 3 LINE"
);
}
);
width = 384;
}
);
note = cedilla;
unicode = 00B8;
},
{
glyphname = onesuperior;
lastChange = "2016-08-10 08:57:17 +0000";
layers = (
{
layerId = "5ECBA62F-7A11-49B7-B673-3B0F38FC4DA3";
paths = (
{
closed = 1;
nodes = (
"266 1269 LINE",
"261 1246 LINE",
"308 1246 LINE",
"276 1047 LINE",
"223 1034 LINE",
"217 1011 LINE",
"371 1011 LINE",
"379 1036 LINE",
"326 1046 LINE",
"364 1292 LINE",
"356 1292 LINE"
);
}
);
width = 270;
}
);
note = onesuperior;
unicode = 00B9;
},
{
glyphname = ordmasculine;
lastChange = "2016-08-10 08:57:17 +0000";
layers = (
{
layerId = "5ECBA62F-7A11-49B7-B673-3B0F38FC4DA3";
paths = (
{
closed = 1;
nodes = (
"495 288 LINE",
"511 346 LINE",
"172 346 LINE",
"156 288 LINE"
);
},
{
closed = 1;
nodes = (
"285 667 OFFCURVE",
"327 733 OFFCURVE",
"387 733 CURVE SMOOTH",
"434 733 OFFCURVE",
"458 695 OFFCURVE",
"458 619 CURVE SMOOTH",
"458 512 OFFCURVE",
"413 442 OFFCURVE",
"356 442 CURVE SMOOTH",
"308 442 OFFCURVE",
"285 485 OFFCURVE",
"285 550 CURVE SMOOTH"
);
},
{
closed = 1;
nodes = (
"473 764 OFFCURVE",
"446 774 OFFCURVE",
"409 774 CURVE SMOOTH",
"378 774 OFFCURVE",
"348 766 OFFCURVE",
"318 749 CURVE SMOOTH",
"254 714 OFFCURVE",
"208 638 OFFCURVE",
"208 546 CURVE SMOOTH",
"208 450 OFFCURVE",
"252 402 OFFCURVE",
"339 402 CURVE SMOOTH",
"436 402 OFFCURVE",
"516 484 OFFCURVE",
"516 592 CURVE SMOOTH",
"516 633 OFFCURVE",
"517 708 OFFCURVE",
"490 743 CURVE SMOOTH"
);
}
);
width = 551;
}
);
note = ordmasculine;
unicode = 00BA;
},
{
glyphname = guillemotright;
lastChange = "2016-08-10 08:57:17 +0000";
layers = (
{
layerId = "5ECBA62F-7A11-49B7-B673-3B0F38FC4DA3";
paths = (
{
closed = 1;
nodes = (
"192 763 LINE",
"309 462 LINE",
"89 141 LINE",
"132 78 LINE",
"453 450 LINE",
"457 470 LINE",
"245 822 LINE"
);
},
{
closed = 1;
nodes = (
"440 763 LINE",
"557 462 LINE",
"337 141 LINE",
"380 78 LINE",
"701 450 LINE",
"705 470 LINE",
"493 822 LINE"
);
}
);
width = 652;
}
);
note = guillemotright;
unicode = 00BB;
},
{
glyphname = onequarter;
lastChange = "2016-08-10 08:57:17 +0000";
layers = (
{
layerId = "5ECBA62F-7A11-49B7-B673-3B0F38FC4DA3";
paths = (
{
closed = 1;
nodes = (
"870 142 LINE",
"966 142 LINE",
"979 193 LINE",
"876 193 LINE",
"886 275 LINE SMOOTH",
"897 361 OFFCURVE",
"906 427 OFFCURVE",
"914 473 CURVE",
"888 481 LINE",
"602 174 LINE",
"608 144 LINE",
"804 144 LINE",
"786 -5 LINE",
"853 6 LINE"
);
},
{
closed = 1;
nodes = (
"830 366 LINE",
"808 193 LINE",
"672 193 LINE"
);
},
{
closed = 1;
nodes = (
"216 950 LINE",
"210 919 LINE",
"318 919 LINE",
"274 553 LINE",
"157 534 LINE",
"151 505 LINE",
"443 505 LINE",
"451 538 LINE",
"342 551 LINE",
"395 981 LINE",
"385 981 LINE"
);
},
{
closed = 1;
nodes = (
"240 -22 LINE",
"1053 974 LINE",
"971 965 LINE",
"155 -30 LINE"
);
}
);
width = 1050;
}
);
note = onequarter;
unicode = 00BC;
},
{
glyphname = onehalf;
lastChange = "2016-08-10 08:57:17 +0000";
layers = (
{
layerId = "5ECBA62F-7A11-49B7-B673-3B0F38FC4DA3";
paths = (
{
closed = 1;
nodes = (
"960 126 LINE",
"914 56 LINE",
"720 56 LINE",
"762 86 LINE",
"771 94 OFFCURVE",
"787 107 OFFCURVE",
"811 126 CURVE SMOOTH",
"859 163 OFFCURVE",
"885 184 OFFCURVE",
"922 224 CURVE SMOOTH",
"959 263 OFFCURVE",
"983 305 OFFCURVE",
"988 348 CURVE",
"989 361 OFFCURVE",
"989 371 OFFCURVE",
"989 376 CURVE SMOOTH",
"989 449 OFFCURVE",
"950 486 OFFCURVE",
"873 486 CURVE SMOOTH",
"796 486 OFFCURVE",
"718 415 OFFCURVE",
"691 342 CURVE",
"723 329 LINE",
"759 398 OFFCURVE",
"799 432 OFFCURVE",
"843 432 CURVE SMOOTH",
"890 432 OFFCURVE",
"913 407 OFFCURVE",
"913 358 CURVE",
"914 346 OFFCURVE",
"913 337 OFFCURVE",
"912 330 CURVE SMOOTH",
"909 305 OFFCURVE",
"898 279 OFFCURVE",
"879 252 CURVE SMOOTH",
"842 199 OFFCURVE",
"808 171 OFFCURVE",
"748 123 CURVE SMOOTH",
"640 41 LINE",
"637 0 LINE",
"950 0 LINE",
"988 122 LINE"
);
},
{
closed = 1;
nodes = (
"236 950 LINE",
"230 919 LINE",
"338 919 LINE",
"294 553 LINE",
"177 534 LINE",
"170 505 LINE",
"462 505 LINE",
"471 538 LINE",
"362 551 LINE",
"415 981 LINE",
"404 981 LINE"
);
},
{
closed = 1;
nodes = (
"240 -22 LINE",
"1053 974 LINE",
"971 965 LINE",
"155 -30 LINE"
);
}
);
width = 1052;
}
);
note = onehalf;
unicode = 00BD;
},
{
glyphname = threequarters;
lastChange = "2016-08-10 08:57:17 +0000";
layers = (
{
layerId = "5ECBA62F-7A11-49B7-B673-3B0F38FC4DA3";
paths = (
{
closed = 1;
nodes = (
"183 584 OFFCURVE",
"160 566 OFFCURVE",
"160 543 CURVE SMOOTH",
"160 514 OFFCURVE",
"195 490 OFFCURVE",
"258 490 CURVE SMOOTH",
"363 490 OFFCURVE",
"455 558 OFFCURVE",
"466 645 CURVE",
"467 648 OFFCURVE",
"467 653 OFFCURVE",
"467 658 CURVE SMOOTH",
"467 709 OFFCURVE",
"428 753 OFFCURVE",
"367 762 CURVE",
"367 766 LINE",
"424 787 OFFCURVE",
"470 828 OFFCURVE",
"477 888 CURVE",
"478 891 OFFCURVE",
"478 895 OFFCURVE",
"478 900 CURVE SMOOTH",
"478 952 OFFCURVE",
"432 989 OFFCURVE",
"373 989 CURVE SMOOTH",
"306 989 OFFCURVE",
"241 934 OFFCURVE",
"226 886 CURVE",
"254 875 LINE",
"276 916 OFFCURVE",
"305 936 OFFCURVE",
"342 936 CURVE SMOOTH",
"385 936 OFFCURVE",
"404 913 OFFCURVE",
"404 878 CURVE SMOOTH",
"404 873 OFFCURVE",
"404 870 OFFCURVE",
"403 867 CURVE",
"400 845 OFFCURVE",
"389 825 OFFCURVE",
"368 806 CURVE SMOOTH",
"327 769 OFFCURVE",
"298 758 OFFCURVE",
"275 751 CURVE",
"275 725 LINE",
"282 725 LINE SMOOTH",
"349 725 OFFCURVE",
"393 678 OFFCURVE",
"393 630 CURVE SMOOTH",
"393 629 OFFCURVE",
"393 628 OFFCURVE",
"393 626 CURVE",
"392 624 OFFCURVE",
"392 622 OFFCURVE",
"392 621 CURVE",
"383 557 OFFCURVE",
"347 525 OFFCURVE",
"284 525 CURVE SMOOTH",
"249 525 OFFCURVE",
"216 566 OFFCURVE",
"216 587 CURVE"
);
},
{
closed = 1;
nodes = (
"870 142 LINE",
"966 142 LINE",
"979 193 LINE",
"876 193 LINE",
"886 275 LINE SMOOTH",
"897 361 OFFCURVE",
"906 427 OFFCURVE",
"914 473 CURVE",
"888 481 LINE",
"602 174 LINE",
"608 144 LINE",
"804 144 LINE",
"786 -5 LINE",
"853 6 LINE"
);
},
{
closed = 1;
nodes = (
"830 366 LINE",
"808 193 LINE",
"672 193 LINE"
);
},
{
closed = 1;
nodes = (
"240 -22 LINE",
"1053 974 LINE",
"971 965 LINE",
"155 -30 LINE"
);
}
);
width = 1050;
}
);
note = threequarters;
unicode = 00BE;
},
{
glyphname = questiondown;
lastChange = "2016-08-10 08:57:17 +0000";
layers = (
{
layerId = "5ECBA62F-7A11-49B7-B673-3B0F38FC4DA3";
paths = (
{
closed = 1;
nodes = (
"566 690 OFFCURVE",
"627 750 OFFCURVE",
"627 830 CURVE SMOOTH",
"627 881 OFFCURVE",
"574 936 OFFCURVE",
"521 936 CURVE SMOOTH",
"442 936 OFFCURVE",
"384 877 OFFCURVE",
"384 797 CURVE SMOOTH",
"384 740 OFFCURVE",
"426 690 OFFCURVE",
"486 690 CURVE SMOOTH"
);
},
{
closed = 1;
nodes = (
"572 -194 OFFCURVE",
"549 -156 OFFCURVE",
"514 -141 CURVE",
"462 -189 OFFCURVE",
"394 -213 OFFCURVE",
"311 -213 CURVE SMOOTH",
"243 -213 OFFCURVE",
"175 -142 OFFCURVE",
"175 -55 CURVE SMOOTH",
"175 -25 OFFCURVE",
"182 1 OFFCURVE",
"196 23 CURVE SMOOTH",
"220 63 OFFCURVE",
"258 87 OFFCURVE",
"318 114 CURVE SMOOTH",
"385 144 OFFCURVE",
"435 172 OFFCURVE",
"467 197 CURVE SMOOTH",
"563 272 OFFCURVE",
"555 425 OFFCURVE",
"495 536 CURVE",
"419 519 LINE",
"423 484 OFFCURVE",
"425 451 OFFCURVE",
"425 420 CURVE SMOOTH",
"425 369 OFFCURVE",
"401 341 OFFCURVE",
"373 319 CURVE SMOOTH",
"345 297 OFFCURVE",
"326 288 OFFCURVE",
"285 267 CURVE SMOOTH",
"165 208 OFFCURVE",
"69 145 OFFCURVE",
"69 -26 CURVE SMOOTH",
"69 -231 OFFCURVE",
"193 -387 OFFCURVE",
"352 -387 CURVE SMOOTH",
"388 -387 OFFCURVE",
"421 -382 OFFCURVE",
"451 -372 CURVE SMOOTH",
"511 -353 OFFCURVE",
"572 -303 OFFCURVE",
"572 -242 CURVE SMOOTH"
);
}
);
width = 672;
}
);
note = questiondown;
unicode = 00BF;
},
{
glyphname = Agrave;
lastChange = "2016-08-10 08:57:17 +0000";
layers = (
{
layerId = "5ECBA62F-7A11-49B7-B673-3B0F38FC4DA3";
paths = (
{
closed = 1;
nodes = (
"135 129 LINE",
"-14 74 LINE",
"-32 0 LINE",
"414 0 LINE",
"436 81 LINE",
"266 124 LINE",
"419 433 LINE",
"820 433 LINE",
"876 129 LINE",
"704 74 LINE",
"684 0 LINE",
"1169 0 LINE",
"1187 81 LINE",
"1063 124 LINE",
"874 1270 LINE",
"727 1239 LINE"
);
},
{
closed = 1;
nodes = (
"806 534 LINE",
"471 534 LINE",
"727 1036 LINE"
);
},
{
closed = 1;
nodes = (
"859 1366 LINE",
"727 1701 LINE",
"611 1663 LINE",
"801 1332 LINE"
);
}
);
width = 1159;
}
);
note = Agrave;
unicode = 00C0;
},
{
glyphname = Aacute;
lastChange = "2016-08-10 08:57:17 +0000";
layers = (
{
layerId = "5ECBA62F-7A11-49B7-B673-3B0F38FC4DA3";
paths = (
{
closed = 1;
nodes = (
"135 129 LINE",
"-14 74 LINE",
"-32 0 LINE",
"414 0 LINE",
"436 81 LINE",
"266 124 LINE",
"419 433 LINE",
"820 433 LINE",
"876 129 LINE",
"704 74 LINE",
"684 0 LINE",
"1169 0 LINE",
"1187 81 LINE",
"1063 124 LINE",
"874 1270 LINE",
"727 1239 LINE"
);
},
{
closed = 1;
nodes = (
"806 534 LINE",
"471 534 LINE",
"727 1036 LINE"
);
},
{
closed = 1;
nodes = (
"800 1383 LINE",
"851 1352 LINE",
"1035 1669 LINE",
"922 1709 LINE"
);
}
);
width = 1159;
}
);
note = Aacute;
unicode = 00C1;
},
{
glyphname = Acircumflex;
lastChange = "2016-08-10 08:57:17 +0000";
layers = (
{
layerId = "5ECBA62F-7A11-49B7-B673-3B0F38FC4DA3";
paths = (
{
closed = 1;
nodes = (
"135 129 LINE",
"-14 74 LINE",
"-32 0 LINE",
"414 0 LINE",
"436 81 LINE",
"266 124 LINE",
"419 433 LINE",
"820 433 LINE",
"876 129 LINE",
"704 74 LINE",
"684 0 LINE",
"1169 0 LINE",
"1187 81 LINE",
"1063 124 LINE",
"874 1270 LINE",
"727 1239 LINE"
);
},
{
closed = 1;
nodes = (
"806 534 LINE",
"471 534 LINE",
"727 1036 LINE"
);
},
{
closed = 1;
nodes = (
"608 1390 LINE",
"646 1360 LINE",
"787 1471 LINE",
"797 1471 LINE",
"960 1361 LINE",
"1010 1397 LINE",
"831 1583 LINE",
"777 1570 LINE"
);
}
);
width = 1159;
}
);
note = Acircumflex;
unicode = 00C2;
},
{
glyphname = Atilde;
lastChange = "2016-08-10 08:57:17 +0000";
layers = (
{
layerId = "5ECBA62F-7A11-49B7-B673-3B0F38FC4DA3";
paths = (
{
closed = 1;
nodes = (
"135 129 LINE",
"-14 74 LINE",
"-32 0 LINE",
"414 0 LINE",
"436 81 LINE",
"266 124 LINE",
"419 433 LINE",
"820 433 LINE",
"876 129 LINE",
"704 74 LINE",
"684 0 LINE",
"1169 0 LINE",
"1187 81 LINE",
"1063 124 LINE",
"874 1270 LINE",
"727 1239 LINE"
);
},
{
closed = 1;
nodes = (
"806 534 LINE",
"471 534 LINE",
"727 1036 LINE"
);
},
{
closed = 1;
nodes = (
"623 1385 LINE SMOOTH",
"635 1402 OFFCURVE",
"658 1421 OFFCURVE",
"674 1421 CURVE SMOOTH",
"677 1421 LINE",
"901 1390 LINE",
"912 1390 LINE SMOOTH",
"979 1390 OFFCURVE",
"1022 1463 OFFCURVE",
"1039 1518 CURVE",
"1040 1519 OFFCURVE",
"1040 1522 OFFCURVE",
"1041 1526 CURVE SMOOTH",
"1042 1530 OFFCURVE",
"1042 1533 OFFCURVE",
"1043 1534 CURVE",
"995 1535 LINE",
"987 1525 LINE SMOOTH",
"975 1510 OFFCURVE",
"954 1494 OFFCURVE",
"939 1494 CURVE SMOOTH",
"935 1494 LINE",
"712 1524 LINE",
"709 1524 OFFCURVE",
"707 1524 OFFCURVE",
"706 1525 CURVE",
"704 1525 OFFCURVE",
"702 1525 OFFCURVE",
"699 1525 CURVE SMOOTH",
"676 1525 OFFCURVE",
"655 1516 OFFCURVE",
"636 1497 CURVE SMOOTH",
"607 1466 OFFCURVE",
"586 1417 OFFCURVE",
"579 1390 CURVE",
"579 1387 OFFCURVE",
"578 1384 OFFCURVE",
"577 1381 CURVE",
"615 1373 LINE"
);
}
);
width = 1159;
}
);
note = Atilde;
unicode = 00C3;
},
{
glyphname = Adieresis;
lastChange = "2016-08-10 08:57:17 +0000";
layers = (
{
layerId = "5ECBA62F-7A11-49B7-B673-3B0F38FC4DA3";
paths = (
{
closed = 1;
nodes = (
"135 129 LINE",
"-14 74 LINE",
"-32 0 LINE",
"414 0 LINE",
"436 81 LINE",
"266 124 LINE",
"419 433 LINE",
"820 433 LINE",
"876 129 LINE",
"704 74 LINE",
"684 0 LINE",
"1169 0 LINE",
"1187 81 LINE",
"1063 124 LINE",
"874 1270 LINE",
"727 1239 LINE"
);
},
{
closed = 1;
nodes = (
"806 534 LINE",
"471 534 LINE",
"727 1036 LINE"
);
},
{
closed = 1;
nodes = (
"1030 1511 OFFCURVE",
"990 1545 OFFCURVE",
"942 1545 CURVE SMOOTH",
"897 1545 OFFCURVE",
"858 1512 OFFCURVE",
"858 1467 CURVE SMOOTH",
"858 1422 OFFCURVE",
"895 1386 OFFCURVE",
"942 1386 CURVE SMOOTH",
"990 1386 OFFCURVE",
"1030 1420 OFFCURVE",
"1030 1467 CURVE SMOOTH"
);
},
{
closed = 1;
nodes = (
"760 1511 OFFCURVE",
"722 1545 OFFCURVE",
"674 1545 CURVE SMOOTH",
"629 1545 OFFCURVE",
"590 1512 OFFCURVE",
"590 1467 CURVE SMOOTH",
"590 1422 OFFCURVE",
"627 1386 OFFCURVE",
"674 1386 CURVE SMOOTH",
"722 1386 OFFCURVE",
"760 1420 OFFCURVE",
"760 1467 CURVE SMOOTH"
);
}
);
width = 1159;
}
);
note = Adieresis;
unicode = 00C4;
},
{
glyphname = Aring;
lastChange = "2016-08-10 08:57:17 +0000";
layers = (
{
layerId = "5ECBA62F-7A11-49B7-B673-3B0F38FC4DA3";
paths = (
{
closed = 1;
nodes = (
"135 129 LINE",
"-14 74 LINE",
"-32 0 LINE",
"414 0 LINE",
"436 81 LINE",
"266 124 LINE",
"419 433 LINE",
"820 433 LINE",
"876 129 LINE",
"704 74 LINE",
"684 0 LINE",
"1169 0 LINE",
"1187 81 LINE",
"1063 124 LINE",
"874 1270 LINE",
"727 1239 LINE"
);
},
{
closed = 1;
nodes = (
"806 534 LINE",
"471 534 LINE",
"727 1036 LINE"
);
},
{
closed = 1;
nodes = (
"719 1607 OFFCURVE",
"750 1654 OFFCURVE",
"805 1654 CURVE SMOOTH",
"862 1654 OFFCURVE",
"901 1599 OFFCURVE",
"901 1527 CURVE SMOOTH",
"901 1454 OFFCURVE",
"870 1413 OFFCURVE",
"815 1413 CURVE SMOOTH",
"756 1413 OFFCURVE",
"719 1471 OFFCURVE",
"719 1542 CURVE SMOOTH"
);
},
{
closed = 1;
nodes = (
"901 1687 OFFCURVE",
"863 1702 OFFCURVE",
"816 1702 CURVE SMOOTH",
"724 1702 OFFCURVE",
"648 1623 OFFCURVE",
"648 1530 CURVE SMOOTH",
"648 1429 OFFCURVE",
"710 1365 OFFCURVE",
"803 1365 CURVE SMOOTH",
"900 1365 OFFCURVE",
"972 1443 OFFCURVE",
"972 1540 CURVE SMOOTH",
"972 1589 OFFCURVE",
"958 1628 OFFCURVE",
"930 1658 CURVE SMOOTH"
);
}
);
width = 1159;
}
);
note = Aring;
unicode = 00C5;
},
{
glyphname = AE;
lastChange = "2016-08-10 08:57:17 +0000";
layers = (
{
layerId = "5ECBA62F-7A11-49B7-B673-3B0F38FC4DA3";
paths = (
{
closed = 1;
nodes = (
"566 567 LINE",
"936 1060 LINE",
"857 567 LINE"
);
},
{
closed = 1;
nodes = (
"784 119 LINE",
"622 74 LINE",
"602 0 LINE",
"652 0 LINE",
"1074 0 LINE",
"1529 0 LINE",
"1606 314 LINE",
"1532 329 LINE",
"1401 96 LINE",
"958 96 LINE",
"1036 587 LINE",
"1267 587 LINE",
"1270 410 LINE",
"1357 425 LINE",
"1449 811 LINE",
"1357 804 LINE",
"1297 682 LINE",
"1050 682 LINE",
"1127 1155 LINE",
"1543 1155 LINE",
"1548 943 LINE",
"1628 930 LINE",
"1707 1246 LINE",
"968 1246 LINE",
"111 131 LINE",
"-26 76 LINE",
"-45 0 LINE",
"390 0 LINE",
"412 83 LINE",
"241 126 LINE",
"501 473 LINE",
"844 473 LINE",
"789 121 LINE"
);
}
);
width = 1617;
}
);
note = AE;
unicode = 00C6;
},
{
glyphname = Ccedilla;
lastChange = "2016-08-10 08:57:17 +0000";
layers = (
{
layerId = "5ECBA62F-7A11-49B7-B673-3B0F38FC4DA3";
paths = (
{
closed = 1;
nodes = (
"881 -3 OFFCURVE",
"1018 72 OFFCURVE",
"1130 203 CURVE",
"1092 258 LINE",
"982 157 OFFCURVE",
"866 106 OFFCURVE",
"744 106 CURVE SMOOTH",
"643 106 OFFCURVE",
"559 141 OFFCURVE",
"490 211 CURVE SMOOTH",
"421 280 OFFCURVE",
"380 396 OFFCURVE",
"380 539 CURVE SMOOTH",
"380 723 OFFCURVE",
"432 890 OFFCURVE",
"517 1002 CURVE SMOOTH",
"601 1111 OFFCURVE",
"713 1176 OFFCURVE",
"829 1176 CURVE SMOOTH",
"942 1176 OFFCURVE",
"1025 1137 OFFCURVE",
"1062 1072 CURVE",
"1065 852 LINE",
"1146 839 LINE",
"1229 1171 LINE",
"1156 1238 OFFCURVE",
"1047 1272 OFFCURVE",
"902 1272 CURVE SMOOTH",
"834 1272 OFFCURVE",
"769 1263 OFFCURVE",
"706 1246 CURVE SMOOTH",
"595 1213 OFFCURVE",
"495 1152 OFFCURVE",
"407 1063 CURVE SMOOTH",
"255 910 OFFCURVE",
"169 678 OFFCURVE",
"169 483 CURVE SMOOTH",
"169 327 OFFCURVE",
"222 192 OFFCURVE",
"310 108 CURVE SMOOTH",
"399 22 OFFCURVE",
"510 -22 OFFCURVE",
"642 -25 CURVE",
"564 -137 LINE",
"613 -184 OFFCURVE",
"637 -221 OFFCURVE",
"637 -248 CURVE SMOOTH",
"637 -280 OFFCURVE",
"606 -312 OFFCURVE",
"551 -331 CURVE",
"571 -390 LINE",
"704 -350 OFFCURVE",
"771 -296 OFFCURVE",
"771 -227 CURVE SMOOTH",
"771 -179 OFFCURVE",
"741 -129 OFFCURVE",
"682 -76 CURVE",
"720 -22 LINE"
);
}
);
width = 1149;
}
);
note = Ccedilla;
unicode = 00C7;
},
{
glyphname = Egrave;
lastChange = "2016-08-10 08:57:17 +0000";
layers = (
{
layerId = "5ECBA62F-7A11-49B7-B673-3B0F38FC4DA3";
paths = (
{
closed = 1;
nodes = (
"422 1128 LINE",
"263 121 LINE",
"98 74 LINE",
"83 0 LINE",
"1046 0 LINE",
"1125 314 LINE",
"1047 326 LINE",
"916 96 LINE",
"442 96 LINE",
"519 584 LINE",
"782 584 LINE",
"787 409 LINE",
"872 422 LINE",
"964 811 LINE",
"873 797 LINE",
"812 678 LINE",
"534 678 LINE",
"609 1155 LINE",
"1060 1155 LINE",
"1065 940 LINE",
"1146 926 LINE",
"1226 1246 LINE",
"271 1246 LINE",
"255 1170 LINE"
);
},
{
closed = 1;
nodes = (
"925 1366 LINE",
"792 1701 LINE",
"677 1663 LINE",
"867 1332 LINE"
);
}
);
width = 1135;
}
);
note = Egrave;
unicode = 00C8;
},
{
glyphname = Eacute;
lastChange = "2016-08-10 08:57:17 +0000";
layers = (
{
layerId = "5ECBA62F-7A11-49B7-B673-3B0F38FC4DA3";
paths = (
{
closed = 1;
nodes = (
"422 1128 LINE",
"263 121 LINE",
"98 74 LINE",
"83 0 LINE",
"1046 0 LINE",
"1125 314 LINE",
"1047 326 LINE",
"916 96 LINE",
"442 96 LINE",
"519 584 LINE",
"782 584 LINE",
"787 409 LINE",
"872 422 LINE",
"964 811 LINE",
"873 797 LINE",
"812 678 LINE",
"534 678 LINE",
"609 1155 LINE",
"1060 1155 LINE",
"1065 940 LINE",
"1146 926 LINE",
"1226 1246 LINE",
"271 1246 LINE",
"255 1170 LINE"
);
},
{
closed = 1;
nodes = (
"791 1383 LINE",
"842 1352 LINE",
"1026 1669 LINE",
"913 1709 LINE"
);
}
);
width = 1135;
}
);
note = Eacute;
unicode = 00C9;
},
{
glyphname = Ecircumflex;
lastChange = "2016-08-10 08:57:17 +0000";
layers = (
{
layerId = "5ECBA62F-7A11-49B7-B673-3B0F38FC4DA3";
paths = (
{
closed = 1;
nodes = (
"422 1128 LINE",
"263 121 LINE",
"98 74 LINE",
"83 0 LINE",
"1046 0 LINE",
"1125 314 LINE",
"1047 326 LINE",
"916 96 LINE",
"442 96 LINE",
"519 584 LINE",
"782 584 LINE",
"787 409 LINE",
"872 422 LINE",
"964 811 LINE",
"873 797 LINE",
"812 678 LINE",
"534 678 LINE",
"609 1155 LINE",
"1060 1155 LINE",
"1065 940 LINE",
"1146 926 LINE",
"1226 1246 LINE",
"271 1246 LINE",
"255 1170 LINE"
);
},
{
closed = 1;
nodes = (
"599 1390 LINE",
"637 1360 LINE",
"778 1471 LINE",
"787 1471 LINE",
"951 1361 LINE",
"1001 1397 LINE",
"822 1583 LINE",
"768 1570 LINE"
);
}
);
width = 1135;
}
);
note = Ecircumflex;
unicode = 00CA;
},
{
glyphname = Edieresis;
lastChange = "2016-08-10 08:57:17 +0000";
layers = (
{
layerId = "5ECBA62F-7A11-49B7-B673-3B0F38FC4DA3";
paths = (
{
closed = 1;
nodes = (
"422 1128 LINE",
"263 121 LINE",
"98 74 LINE",
"83 0 LINE",
"1046 0 LINE",
"1125 314 LINE",
"1047 326 LINE",
"916 96 LINE",
"442 96 LINE",
"519 584 LINE",
"782 584 LINE",
"787 409 LINE",
"872 422 LINE",
"964 811 LINE",
"873 797 LINE",
"812 678 LINE",
"534 678 LINE",
"609 1155 LINE",
"1060 1155 LINE",
"1065 940 LINE",
"1146 926 LINE",
"1226 1246 LINE",
"271 1246 LINE",
"255 1170 LINE"
);
},
{
closed = 1;
nodes = (
"1020 1511 OFFCURVE",
"981 1545 OFFCURVE",
"933 1545 CURVE SMOOTH",
"888 1545 OFFCURVE",
"849 1512 OFFCURVE",
"849 1467 CURVE SMOOTH",
"849 1422 OFFCURVE",
"886 1386 OFFCURVE",
"933 1386 CURVE SMOOTH",
"981 1386 OFFCURVE",
"1020 1420 OFFCURVE",
"1020 1467 CURVE SMOOTH"
);
},
{
closed = 1;
nodes = (
"751 1511 OFFCURVE",
"713 1545 OFFCURVE",
"665 1545 CURVE SMOOTH",
"620 1545 OFFCURVE",
"581 1512 OFFCURVE",
"581 1467 CURVE SMOOTH",
"581 1422 OFFCURVE",
"618 1386 OFFCURVE",
"665 1386 CURVE SMOOTH",
"713 1386 OFFCURVE",
"751 1420 OFFCURVE",
"751 1467 CURVE SMOOTH"
);
}
);
width = 1135;
}
);
note = Edieresis;
unicode = 00CB;
},
{
glyphname = Igrave;
lastChange = "2016-08-10 08:57:17 +0000";
layers = (
{
layerId = "5ECBA62F-7A11-49B7-B673-3B0F38FC4DA3";
paths = (
{
closed = 1;
nodes = (
"445 114 LINE",
"605 1132 LINE",
"774 1170 LINE",
"791 1246 LINE",
"271 1246 LINE",
"255 1170 LINE",
"422 1128 LINE",
"263 121 LINE",
"98 74 LINE",
"83 0 LINE",
"596 0 LINE",
"615 81 LINE"
);
},
{
closed = 1;
nodes = (
"589 1366 LINE",
"457 1701 LINE",
"341 1663 LINE",
"531 1332 LINE"
);
}
);
width = 670;
}
);
note = Igrave;
unicode = 00CC;
},
{
glyphname = Iacute;
lastChange = "2016-08-10 08:57:17 +0000";
layers = (
{
layerId = "5ECBA62F-7A11-49B7-B673-3B0F38FC4DA3";
paths = (
{
closed = 1;
nodes = (
"445 114 LINE",
"605 1132 LINE",
"774 1170 LINE",
"791 1246 LINE",
"271 1246 LINE",
"255 1170 LINE",
"422 1128 LINE",
"263 121 LINE",
"98 74 LINE",
"83 0 LINE",
"596 0 LINE",
"615 81 LINE"
);
},
{
closed = 1;
nodes = (
"521 1383 LINE",
"572 1352 LINE",
"756 1669 LINE",
"644 1709 LINE"
);
}
);
width = 670;
}
);
note = Iacute;
unicode = 00CD;
},
{
glyphname = Icircumflex;
lastChange = "2016-08-10 08:57:17 +0000";
layers = (
{
layerId = "5ECBA62F-7A11-49B7-B673-3B0F38FC4DA3";
paths = (
{
closed = 1;
nodes = (
"445 114 LINE",
"605 1132 LINE",
"774 1170 LINE",
"791 1246 LINE",
"271 1246 LINE",
"255 1170 LINE",
"422 1128 LINE",
"263 121 LINE",
"98 74 LINE",
"83 0 LINE",
"596 0 LINE",
"615 81 LINE"
);
},
{
closed = 1;
nodes = (
"346 1390 LINE",
"384 1360 LINE",
"524 1471 LINE",
"534 1471 LINE",
"698 1361 LINE",
"748 1397 LINE",
"569 1583 LINE",
"514 1570 LINE"
);
}
);
width = 670;
}
);
note = Icircumflex;
unicode = 00CE;
},
{
glyphname = Idieresis;
lastChange = "2016-08-10 08:57:17 +0000";
layers = (
{
layerId = "5ECBA62F-7A11-49B7-B673-3B0F38FC4DA3";
paths = (
{
closed = 1;
nodes = (
"445 114 LINE",
"605 1132 LINE",
"774 1170 LINE",
"791 1246 LINE",
"271 1246 LINE",
"255 1170 LINE",
"422 1128 LINE",
"263 121 LINE",
"98 74 LINE",
"83 0 LINE",
"596 0 LINE",
"615 81 LINE"
);
},
{
closed = 1;
nodes = (
"768 1511 OFFCURVE",
"728 1545 OFFCURVE",
"680 1545 CURVE SMOOTH",
"635 1545 OFFCURVE",
"596 1512 OFFCURVE",
"596 1467 CURVE SMOOTH",
"596 1422 OFFCURVE",
"633 1386 OFFCURVE",
"680 1386 CURVE SMOOTH",
"727 1386 OFFCURVE",
"768 1420 OFFCURVE",
"768 1467 CURVE SMOOTH"
);
},
{
closed = 1;
nodes = (
"498 1511 OFFCURVE",
"460 1545 OFFCURVE",
"412 1545 CURVE SMOOTH",
"367 1545 OFFCURVE",
"328 1512 OFFCURVE",
"328 1467 CURVE SMOOTH",
"328 1422 OFFCURVE",
"365 1386 OFFCURVE",
"412 1386 CURVE SMOOTH",
"459 1386 OFFCURVE",
"498 1420 OFFCURVE",
"498 1467 CURVE SMOOTH"
);
}
);
width = 670;
}
);
note = Idieresis;
unicode = 00CF;
},
{
glyphname = Eth;
lastChange = "2016-08-10 08:57:17 +0000";
layers = (
{
layerId = "5ECBA62F-7A11-49B7-B673-3B0F38FC4DA3";
paths = (
{
closed = 1;
nodes = (
"817 675 LINE",
"529 662 LINE",
"607 1151 LINE",
"646 1156 OFFCURVE",
"685 1158 OFFCURVE",
"725 1158 CURVE SMOOTH",
"872 1158 OFFCURVE",
"989 1110 OFFCURVE",
"1061 1026 CURVE SMOOTH",
"1132 944 OFFCURVE",
"1168 837 OFFCURVE",
"1168 705 CURVE SMOOTH",
"1168 548 OFFCURVE",
"1109 398 OFFCURVE",
"1009 286 CURVE SMOOTH",
"908 174 OFFCURVE",
"751 104 OFFCURVE",
"582 104 CURVE SMOOTH",
"442 104 LINE",
"514 562 LINE",
"789 574 LINE"
);
},
{
closed = 1;
nodes = (
"1090 1228 OFFCURVE",
"953 1261 OFFCURVE",
"778 1261 CURVE SMOOTH",
"648 1261 OFFCURVE",
"481 1244 OFFCURVE",
"278 1211 CURVE",
"258 1135 LINE",
"419 1105 LINE",
"347 655 LINE",
"207 648 LINE",
"180 548 LINE",
"333 554 LINE",
"265 129 LINE",
"93 74 LINE",
"73 0 LINE",
"526 0 LINE SMOOTH",
"628 0 OFFCURVE",
"724 14 OFFCURVE",
"814 43 CURVE SMOOTH",
"1155 151 OFFCURVE",
"1383 448 OFFCURVE",
"1383 769 CURVE SMOOTH",
"1383 824 OFFCURVE",
"1377 875 OFFCURVE",
"1365 921 CURVE SMOOTH",
"1340 1017 OFFCURVE",
"1277 1104 OFFCURVE",
"1189 1163 CURVE SMOOTH"
);
}
);
width = 1350;
}
);
note = Eth;
unicode = 00D0;
},
{
glyphname = Ntilde;
lastChange = "2016-08-10 08:57:17 +0000";
layers = (
{
layerId = "5ECBA62F-7A11-49B7-B673-3B0F38FC4DA3";
paths = (
{
closed = 1;
nodes = (
"1318 1132 LINE",
"1483 1170 LINE",
"1501 1246 LINE",
"1048 1246 LINE",
"1030 1170 LINE",
"1200 1128 LINE",
"1066 273 LINE",
"606 1246 LINE",
"272 1246 LINE",
"256 1170 LINE",
"421 1120 LINE",
"264 121 LINE",
"98 74 LINE",
"84 0 LINE",
"537 0 LINE",
"555 81 LINE",
"383 114 LINE",
"517 963 LINE",
"993 -30 LINE",
"1139 0 LINE"
);
},
{
closed = 1;
nodes = (
"697 1385 LINE SMOOTH",
"709 1402 OFFCURVE",
"733 1421 OFFCURVE",
"749 1421 CURVE SMOOTH",
"752 1421 LINE",
"975 1390 LINE",
"987 1390 LINE SMOOTH",
"1054 1390 OFFCURVE",
"1096 1463 OFFCURVE",
"1113 1518 CURVE",
"1114 1519 OFFCURVE",
"1114 1522 OFFCURVE",
"1115 1526 CURVE SMOOTH",
"1116 1530 OFFCURVE",
"1116 1533 OFFCURVE",
"1117 1534 CURVE",
"1069 1535 LINE",
"1061 1525 LINE SMOOTH",
"1049 1510 OFFCURVE",
"1028 1494 OFFCURVE",
"1013 1494 CURVE SMOOTH",
"1010 1494 LINE",
"787 1524 LINE",
"784 1524 OFFCURVE",
"781 1524 OFFCURVE",
"780 1525 CURVE",
"778 1525 OFFCURVE",
"776 1525 OFFCURVE",
"773 1525 CURVE SMOOTH",
"750 1525 OFFCURVE",
"730 1516 OFFCURVE",
"711 1497 CURVE SMOOTH",
"682 1466 OFFCURVE",
"660 1417 OFFCURVE",
"653 1390 CURVE",
"653 1387 OFFCURVE",
"652 1384 OFFCURVE",
"651 1381 CURVE",
"689 1373 LINE"
);
}
);
width = 1359;
}
);
note = Ntilde;
unicode = 00D1;
},
{
glyphname = Ograve;
lastChange = "2016-08-10 08:57:17 +0000";
layers = (
{
layerId = "5ECBA62F-7A11-49B7-B673-3B0F38FC4DA3";
paths = (
{
closed = 1;
nodes = (
"1126 940 OFFCURVE",
"1149 835 OFFCURVE",
"1150 715 CURVE SMOOTH",
"1150 684 OFFCURVE",
"1149 648 OFFCURVE",
"1146 608 CURVE SMOOTH",
"1139 523 OFFCURVE",
"1122 443 OFFCURVE",
"1096 370 CURVE SMOOTH",
"1032 195 OFFCURVE",
"910 79 OFFCURVE",
"698 79 CURVE SMOOTH",
"655 79 OFFCURVE",
"616 87 OFFCURVE",
"583 104 CURVE",
"456 163 OFFCURVE",
"394 329 OFFCURVE",
"394 529 CURVE SMOOTH",
"394 564 OFFCURVE",
"395 602 OFFCURVE",
"398 642 CURVE SMOOTH",
"404 731 OFFCURVE",
"420 813 OFFCURVE",
"446 886 CURVE SMOOTH",
"474 965 OFFCURVE",
"522 1043 OFFCURVE",
"581 1092 CURVE SMOOTH",
"644 1145 OFFCURVE",
"739 1178 OFFCURVE",
"844 1178 CURVE SMOOTH",
"947 1178 OFFCURVE",
"1031 1123 OFFCURVE",
"1079 1031 CURVE SMOOTH"
);
},
{
closed = 1;
nodes = (
"1170 1216 OFFCURVE",
"1049 1275 OFFCURVE",
"905 1275 CURVE SMOOTH",
"696 1275 OFFCURVE",
"506 1193 OFFCURVE",
"377 1056 CURVE SMOOTH",
"249 919 OFFCURVE",
"175 722 OFFCURVE",
"175 506 CURVE SMOOTH",
"175 306 OFFCURVE",
"250 136 OFFCURVE",
"391 44 CURVE SMOOTH",
"532 -49 OFFCURVE",
"727 -41 OFFCURVE",
"882 14 CURVE SMOOTH",
"1029 65 OFFCURVE",
"1147 157 OFFCURVE",
"1236 291 CURVE SMOOTH",
"1405 544 OFFCURVE",
"1403 910 OFFCURVE",
"1247 1115 CURVE SMOOTH"
);
},
{
closed = 1;
nodes = (
"1039 1370 LINE",
"907 1704 LINE",
"791 1666 LINE",
"981 1335 LINE"
);
}
);
width = 1341;
}
);
note = Ograve;
unicode = 00D2;
},
{
glyphname = Oacute;
lastChange = "2016-08-10 08:57:17 +0000";
layers = (
{
layerId = "5ECBA62F-7A11-49B7-B673-3B0F38FC4DA3";
paths = (
{
closed = 1;
nodes = (
"1126 940 OFFCURVE",
"1149 835 OFFCURVE",
"1150 715 CURVE SMOOTH",
"1150 684 OFFCURVE",
"1149 648 OFFCURVE",
"1146 608 CURVE SMOOTH",
"1139 523 OFFCURVE",
"1122 443 OFFCURVE",
"1096 370 CURVE SMOOTH",
"1032 195 OFFCURVE",
"910 79 OFFCURVE",
"698 79 CURVE SMOOTH",
"655 79 OFFCURVE",
"616 87 OFFCURVE",
"583 104 CURVE",
"456 163 OFFCURVE",
"394 329 OFFCURVE",
"394 529 CURVE SMOOTH",
"394 564 OFFCURVE",
"395 602 OFFCURVE",
"398 642 CURVE SMOOTH",
"404 731 OFFCURVE",
"420 813 OFFCURVE",
"446 886 CURVE SMOOTH",
"474 965 OFFCURVE",
"522 1043 OFFCURVE",
"581 1092 CURVE SMOOTH",
"644 1145 OFFCURVE",
"739 1178 OFFCURVE",
"844 1178 CURVE SMOOTH",
"947 1178 OFFCURVE",
"1031 1123 OFFCURVE",
"1079 1031 CURVE SMOOTH"
);
},
{
closed = 1;
nodes = (
"1170 1216 OFFCURVE",
"1049 1275 OFFCURVE",
"905 1275 CURVE SMOOTH",
"696 1275 OFFCURVE",
"506 1193 OFFCURVE",
"377 1056 CURVE SMOOTH",
"249 919 OFFCURVE",
"175 722 OFFCURVE",
"175 506 CURVE SMOOTH",
"175 306 OFFCURVE",
"250 136 OFFCURVE",
"391 44 CURVE SMOOTH",
"532 -49 OFFCURVE",
"727 -41 OFFCURVE",
"882 14 CURVE SMOOTH",
"1029 65 OFFCURVE",
"1147 157 OFFCURVE",
"1236 291 CURVE SMOOTH",
"1405 544 OFFCURVE",
"1403 910 OFFCURVE",
"1247 1115 CURVE SMOOTH"
);
},
{
closed = 1;
nodes = (
"938 1386 LINE",
"989 1355 LINE",
"1173 1672 LINE",
"1060 1712 LINE"
);
}
);
width = 1341;
}
);
note = Oacute;
unicode = 00D3;
},
{
glyphname = Ocircumflex;
lastChange = "2016-08-10 08:57:17 +0000";
layers = (
{
layerId = "5ECBA62F-7A11-49B7-B673-3B0F38FC4DA3";
paths = (
{
closed = 1;
nodes = (
"1126 940 OFFCURVE",
"1149 835 OFFCURVE",
"1150 715 CURVE SMOOTH",
"1150 684 OFFCURVE",
"1149 648 OFFCURVE",
"1146 608 CURVE SMOOTH",
"1139 523 OFFCURVE",
"1122 443 OFFCURVE",
"1096 370 CURVE SMOOTH",
"1032 195 OFFCURVE",
"910 79 OFFCURVE",
"698 79 CURVE SMOOTH",
"655 79 OFFCURVE",
"616 87 OFFCURVE",
"583 104 CURVE",
"456 163 OFFCURVE",
"394 329 OFFCURVE",
"394 529 CURVE SMOOTH",
"394 564 OFFCURVE",
"395 602 OFFCURVE",
"398 642 CURVE SMOOTH",
"404 731 OFFCURVE",
"420 813 OFFCURVE",
"446 886 CURVE SMOOTH",
"474 965 OFFCURVE",
"522 1043 OFFCURVE",
"581 1092 CURVE SMOOTH",
"644 1145 OFFCURVE",
"739 1178 OFFCURVE",
"844 1178 CURVE SMOOTH",
"947 1178 OFFCURVE",
"1031 1123 OFFCURVE",
"1079 1031 CURVE SMOOTH"
);
},
{
closed = 1;
nodes = (
"1170 1216 OFFCURVE",
"1049 1275 OFFCURVE",
"905 1275 CURVE SMOOTH",
"696 1275 OFFCURVE",
"506 1193 OFFCURVE",
"377 1056 CURVE SMOOTH",
"249 919 OFFCURVE",
"175 722 OFFCURVE",
"175 506 CURVE SMOOTH",
"175 306 OFFCURVE",
"250 136 OFFCURVE",
"391 44 CURVE SMOOTH",
"532 -49 OFFCURVE",
"727 -41 OFFCURVE",
"882 14 CURVE SMOOTH",
"1029 65 OFFCURVE",
"1147 157 OFFCURVE",
"1236 291 CURVE SMOOTH",
"1405 544 OFFCURVE",
"1403 910 OFFCURVE",
"1247 1115 CURVE SMOOTH"
);
},
{
closed = 1;
nodes = (
"713 1393 LINE",
"751 1363 LINE",
"892 1474 LINE",
"902 1474 LINE",
"1065 1365 LINE",
"1115 1401 LINE",
"936 1586 LINE",
"882 1573 LINE"
);
}
);
width = 1341;
}
);
note = Ocircumflex;
unicode = 00D4;
},
{
glyphname = Otilde;
lastChange = "2016-08-10 08:57:17 +0000";
layers = (
{
layerId = "5ECBA62F-7A11-49B7-B673-3B0F38FC4DA3";
paths = (
{
closed = 1;
nodes = (
"1126 940 OFFCURVE",
"1149 835 OFFCURVE",
"1150 715 CURVE SMOOTH",
"1150 684 OFFCURVE",
"1149 648 OFFCURVE",
"1146 608 CURVE SMOOTH",
"1139 523 OFFCURVE",
"1122 443 OFFCURVE",
"1096 370 CURVE SMOOTH",
"1032 195 OFFCURVE",
"910 79 OFFCURVE",
"698 79 CURVE SMOOTH",
"655 79 OFFCURVE",
"616 87 OFFCURVE",
"583 104 CURVE",
"456 163 OFFCURVE",
"394 329 OFFCURVE",
"394 529 CURVE SMOOTH",
"394 564 OFFCURVE",
"395 602 OFFCURVE",
"398 642 CURVE SMOOTH",
"404 731 OFFCURVE",
"420 813 OFFCURVE",
"446 886 CURVE SMOOTH",
"474 965 OFFCURVE",
"522 1043 OFFCURVE",
"581 1092 CURVE SMOOTH",
"644 1145 OFFCURVE",
"739 1178 OFFCURVE",
"844 1178 CURVE SMOOTH",
"947 1178 OFFCURVE",
"1031 1123 OFFCURVE",
"1079 1031 CURVE SMOOTH"
);
},
{
closed = 1;
nodes = (
"1170 1216 OFFCURVE",
"1049 1275 OFFCURVE",
"905 1275 CURVE SMOOTH",
"696 1275 OFFCURVE",
"506 1193 OFFCURVE",
"377 1056 CURVE SMOOTH",
"249 919 OFFCURVE",
"175 722 OFFCURVE",
"175 506 CURVE SMOOTH",
"175 306 OFFCURVE",
"250 136 OFFCURVE",
"391 44 CURVE SMOOTH",
"532 -49 OFFCURVE",
"727 -41 OFFCURVE",
"882 14 CURVE SMOOTH",
"1029 65 OFFCURVE",
"1147 157 OFFCURVE",
"1236 291 CURVE SMOOTH",
"1405 544 OFFCURVE",
"1403 910 OFFCURVE",
"1247 1115 CURVE SMOOTH"
);
},
{
closed = 1;
nodes = (
"728 1388 LINE SMOOTH",
"740 1405 OFFCURVE",
"763 1424 OFFCURVE",
"779 1424 CURVE SMOOTH",
"782 1424 LINE",
"1006 1393 LINE",
"1017 1393 LINE SMOOTH",
"1084 1393 OFFCURVE",
"1127 1466 OFFCURVE",
"1144 1521 CURVE",
"1145 1523 OFFCURVE",
"1145 1526 OFFCURVE",
"1146 1530 CURVE",
"1147 1533 OFFCURVE",
"1147 1536 OFFCURVE",
"1148 1537 CURVE",
"1100 1538 LINE",
"1092 1529 LINE",
"1080 1513 OFFCURVE",
"1059 1497 OFFCURVE",
"1044 1497 CURVE SMOOTH",
"1041 1497 LINE",
"817 1527 LINE",
"814 1527 OFFCURVE",
"812 1527 OFFCURVE",
"811 1528 CURVE",
"809 1529 OFFCURVE",
"807 1529 OFFCURVE",
"804 1529 CURVE",
"781 1528 OFFCURVE",
"760 1519 OFFCURVE",
"741 1500 CURVE SMOOTH",
"712 1471 OFFCURVE",
"691 1420 OFFCURVE",
"684 1393 CURVE",
"684 1391 OFFCURVE",
"683 1388 OFFCURVE",
"682 1385 CURVE",
"720 1376 LINE"
);
}
);
width = 1341;
}
);
note = Otilde;
unicode = 00D5;
},
{
glyphname = Odieresis;
lastChange = "2016-08-10 08:57:17 +0000";
layers = (
{
layerId = "5ECBA62F-7A11-49B7-B673-3B0F38FC4DA3";
paths = (
{
closed = 1;
nodes = (
"1126 940 OFFCURVE",
"1149 835 OFFCURVE",
"1150 715 CURVE SMOOTH",
"1150 684 OFFCURVE",
"1149 648 OFFCURVE",
"1146 608 CURVE SMOOTH",
"1139 523 OFFCURVE",
"1122 443 OFFCURVE",
"1096 370 CURVE SMOOTH",
"1032 195 OFFCURVE",
"910 79 OFFCURVE",
"698 79 CURVE SMOOTH",
"655 79 OFFCURVE",
"616 87 OFFCURVE",
"583 104 CURVE",
"456 163 OFFCURVE",
"394 329 OFFCURVE",
"394 529 CURVE SMOOTH",
"394 564 OFFCURVE",
"395 602 OFFCURVE",
"398 642 CURVE SMOOTH",
"404 731 OFFCURVE",
"420 813 OFFCURVE",
"446 886 CURVE SMOOTH",
"474 965 OFFCURVE",
"522 1043 OFFCURVE",
"581 1092 CURVE SMOOTH",
"644 1145 OFFCURVE",
"739 1178 OFFCURVE",
"844 1178 CURVE SMOOTH",
"947 1178 OFFCURVE",
"1031 1123 OFFCURVE",
"1079 1031 CURVE SMOOTH"
);
},
{
closed = 1;
nodes = (
"1170 1216 OFFCURVE",
"1049 1275 OFFCURVE",
"905 1275 CURVE SMOOTH",
"696 1275 OFFCURVE",
"506 1193 OFFCURVE",
"377 1056 CURVE SMOOTH",
"249 919 OFFCURVE",
"175 722 OFFCURVE",
"175 506 CURVE SMOOTH",
"175 306 OFFCURVE",
"250 136 OFFCURVE",
"391 44 CURVE SMOOTH",
"532 -49 OFFCURVE",
"727 -41 OFFCURVE",
"882 14 CURVE SMOOTH",
"1029 65 OFFCURVE",
"1147 157 OFFCURVE",
"1236 291 CURVE SMOOTH",
"1405 544 OFFCURVE",
"1403 910 OFFCURVE",
"1247 1115 CURVE SMOOTH"
);
},
{
closed = 1;
nodes = (
"1135 1515 OFFCURVE",
"1095 1548 OFFCURVE",
"1047 1548 CURVE SMOOTH",
"1002 1548 OFFCURVE",
"963 1516 OFFCURVE",
"963 1471 CURVE SMOOTH",
"963 1424 OFFCURVE",
"1000 1390 OFFCURVE",
"1047 1390 CURVE SMOOTH",
"1095 1390 OFFCURVE",
"1135 1424 OFFCURVE",
"1135 1471 CURVE SMOOTH"
);
},
{
closed = 1;
nodes = (
"865 1516 OFFCURVE",
"827 1548 OFFCURVE",
"779 1548 CURVE SMOOTH",
"734 1548 OFFCURVE",
"695 1516 OFFCURVE",
"695 1471 CURVE SMOOTH",
"695 1424 OFFCURVE",
"732 1390 OFFCURVE",
"779 1390 CURVE SMOOTH",
"827 1390 OFFCURVE",
"865 1424 OFFCURVE",
"865 1471 CURVE SMOOTH"
);
}
);
width = 1341;
}
);
note = Odieresis;
unicode = 00D6;
},
{
glyphname = multiply;
lastChange = "2016-08-10 08:57:17 +0000";
layers = (
{
layerId = "5ECBA62F-7A11-49B7-B673-3B0F38FC4DA3";
paths = (
{
closed = 1;
nodes = (
"610 298 LINE",
"476 458 LINE",
"657 609 LINE",
"605 693 LINE",
"414 533 LINE",
"285 687 LINE",
"192 620 LINE",
"321 463 LINE",
"142 311 LINE",
"195 228 LINE",
"385 389 LINE",
"516 232 LINE"
);
}
);
width = 655;
}
);
note = multiply;
unicode = 00D7;
},
{
glyphname = Oslash;
lastChange = "2016-08-10 08:57:17 +0000";
layers = (
{
layerId = "5ECBA62F-7A11-49B7-B673-3B0F38FC4DA3";
paths = (
{
closed = 1;
nodes = (
"417 302 OFFCURVE",
"394 405 OFFCURVE",
"394 528 CURVE SMOOTH",
"394 563 OFFCURVE",
"395 600 OFFCURVE",
"398 640 CURVE SMOOTH",
"410 817 OFFCURVE",
"462 992 OFFCURVE",
"581 1092 CURVE SMOOTH",
"644 1145 OFFCURVE",
"739 1178 OFFCURVE",
"844 1178 CURVE SMOOTH",
"927 1178 OFFCURVE",
"994 1145 OFFCURVE",
"1047 1080 CURVE",
"471 204 LINE",
"464 217 LINE SMOOTH"
);
},
{
closed = 1;
nodes = (
"1129 931 OFFCURVE",
"1150 830 OFFCURVE",
"1150 715 CURVE SMOOTH",
"1150 684 OFFCURVE",
"1149 648 OFFCURVE",
"1146 608 CURVE SMOOTH",
"1139 523 OFFCURVE",
"1122 443 OFFCURVE",
"1096 370 CURVE SMOOTH",
"1032 195 OFFCURVE",
"910 79 OFFCURVE",
"698 79 CURVE SMOOTH",
"463 79 OFFCURVE",
"345 83 OFFCURVE",
"345 91 CURVE SMOOTH",
"345 94 OFFCURVE",
"359 98 OFFCURVE",
"388 104 CURVE SMOOTH",
"416 109 OFFCURVE",
"444 116 OFFCURVE",
"473 124 CURVE SMOOTH",
"502 131 OFFCURVE",
"516 139 OFFCURVE",
"516 146 CURVE SMOOTH",
"516 147 OFFCURVE",
"515 149 OFFCURVE",
"513 151 CURVE",
"1086 1019 LINE"
);
},
{
closed = 1;
nodes = (
"1234 1132 OFFCURVE",
"1220 1147 OFFCURVE",
"1205 1161 CURVE",
"1294 1297 LINE",
"1160 1289 LINE",
"1117 1224 LINE",
"1054 1258 OFFCURVE",
"983 1275 OFFCURVE",
"905 1275 CURVE SMOOTH",
"696 1275 OFFCURVE",
"506 1193 OFFCURVE",
"377 1056 CURVE SMOOTH",
"249 919 OFFCURVE",
"175 722 OFFCURVE",
"175 506 CURVE SMOOTH",
"175 306 OFFCURVE",
"248 155 OFFCURVE",
"356 68 CURVE",
"257 -83 LINE",
"389 -74 LINE",
"446 12 LINE",
"559 -39 OFFCURVE",
"727 -41 OFFCURVE",
"882 14 CURVE SMOOTH",
"1029 65 OFFCURVE",
"1147 157 OFFCURVE",
"1236 291 CURVE SMOOTH",
"1405 544 OFFCURVE",
"1403 910 OFFCURVE",
"1247 1115 CURVE SMOOTH"
);
}
);
width = 1341;
}
);
note = Oslash;
unicode = 00D8;
},
{
glyphname = Ugrave;
lastChange = "2016-08-10 08:57:17 +0000";
layers = (
{
layerId = "5ECBA62F-7A11-49B7-B673-3B0F38FC4DA3";
paths = (
{
closed = 1;
nodes = (
"739 1170 LINE",
"754 1246 LINE",
"237 1246 LINE",
"219 1170 LINE",
"390 1128 LINE",
"285 470 LINE SMOOTH",
"278 423 OFFCURVE",
"275 381 OFFCURVE",
"275 344 CURVE SMOOTH",
"275 284 OFFCURVE",
"284 232 OFFCURVE",
"301 187 CURVE SMOOTH",
"333 100 OFFCURVE",
"381 50 OFFCURVE",
"456 15 CURVE SMOOTH",
"515 -12 OFFCURVE",
"582 -26 OFFCURVE",
"659 -26 CURVE SMOOTH",
"982 -26 OFFCURVE",
"1174 149 OFFCURVE",
"1233 500 CURVE SMOOTH",
"1337 1132 LINE",
"1505 1170 LINE",
"1521 1246 LINE",
"1065 1246 LINE",
"1050 1170 LINE",
"1215 1128 LINE",
"1113 481 LINE SMOOTH",
"1108 451 OFFCURVE",
"1103 427 OFFCURVE",
"1099 410 CURVE SMOOTH",
"1086 353 OFFCURVE",
"1068 304 OFFCURVE",
"1046 263 CURVE SMOOTH",
"989 158 OFFCURVE",
"896 93 OFFCURVE",
"740 93 CURVE SMOOTH",
"561 93 OFFCURVE",
"461 189 OFFCURVE",
"461 384 CURVE SMOOTH",
"461 417 OFFCURVE",
"464 454 OFFCURVE",
"471 495 CURVE SMOOTH",
"570 1132 LINE"
);
},
{
closed = 1;
nodes = (
"1050 1366 LINE",
"917 1701 LINE",
"801 1663 LINE",
"992 1332 LINE"
);
}
);
width = 1358;
}
);
note = Ugrave;
unicode = 00D9;
},
{
glyphname = Uacute;
lastChange = "2016-08-10 08:57:17 +0000";
layers = (
{
layerId = "5ECBA62F-7A11-49B7-B673-3B0F38FC4DA3";
paths = (
{
closed = 1;
nodes = (
"739 1170 LINE",
"754 1246 LINE",
"237 1246 LINE",
"219 1170 LINE",
"390 1128 LINE",
"285 470 LINE SMOOTH",
"278 423 OFFCURVE",
"275 381 OFFCURVE",
"275 344 CURVE SMOOTH",
"275 284 OFFCURVE",
"284 232 OFFCURVE",
"301 187 CURVE SMOOTH",
"333 100 OFFCURVE",
"381 50 OFFCURVE",
"456 15 CURVE SMOOTH",
"515 -12 OFFCURVE",
"582 -26 OFFCURVE",
"659 -26 CURVE SMOOTH",
"982 -26 OFFCURVE",
"1174 149 OFFCURVE",
"1233 500 CURVE SMOOTH",
"1337 1132 LINE",
"1505 1170 LINE",
"1521 1246 LINE",
"1065 1246 LINE",
"1050 1170 LINE",
"1215 1128 LINE",
"1113 481 LINE SMOOTH",
"1108 451 OFFCURVE",
"1103 427 OFFCURVE",
"1099 410 CURVE SMOOTH",
"1086 353 OFFCURVE",
"1068 304 OFFCURVE",
"1046 263 CURVE SMOOTH",
"989 158 OFFCURVE",
"896 93 OFFCURVE",
"740 93 CURVE SMOOTH",
"561 93 OFFCURVE",
"461 189 OFFCURVE",
"461 384 CURVE SMOOTH",
"461 417 OFFCURVE",
"464 454 OFFCURVE",
"471 495 CURVE SMOOTH",
"570 1132 LINE"
);
},
{
closed = 1;
nodes = (
"883 1375 LINE",
"934 1343 LINE",
"1117 1661 LINE",
"1005 1701 LINE"
);
}
);
width = 1358;
}
);
note = Uacute;
unicode = 00DA;
},
{
glyphname = Ucircumflex;
lastChange = "2016-08-10 08:57:17 +0000";
layers = (
{
layerId = "5ECBA62F-7A11-49B7-B673-3B0F38FC4DA3";
paths = (
{
closed = 1;
nodes = (
"739 1170 LINE",
"754 1246 LINE",
"237 1246 LINE",
"219 1170 LINE",
"390 1128 LINE",
"285 470 LINE SMOOTH",
"278 423 OFFCURVE",
"275 381 OFFCURVE",
"275 344 CURVE SMOOTH",
"275 284 OFFCURVE",
"284 232 OFFCURVE",
"301 187 CURVE SMOOTH",
"333 100 OFFCURVE",
"381 50 OFFCURVE",
"456 15 CURVE SMOOTH",
"515 -12 OFFCURVE",
"582 -26 OFFCURVE",
"659 -26 CURVE SMOOTH",
"982 -26 OFFCURVE",
"1174 149 OFFCURVE",
"1233 500 CURVE SMOOTH",
"1337 1132 LINE",
"1505 1170 LINE",
"1521 1246 LINE",
"1065 1246 LINE",
"1050 1170 LINE",
"1215 1128 LINE",
"1113 481 LINE SMOOTH",
"1108 451 OFFCURVE",
"1103 427 OFFCURVE",
"1099 410 CURVE SMOOTH",
"1086 353 OFFCURVE",
"1068 304 OFFCURVE",
"1046 263 CURVE SMOOTH",
"989 158 OFFCURVE",
"896 93 OFFCURVE",
"740 93 CURVE SMOOTH",
"561 93 OFFCURVE",
"461 189 OFFCURVE",
"461 384 CURVE SMOOTH",
"461 417 OFFCURVE",
"464 454 OFFCURVE",
"471 495 CURVE SMOOTH",
"570 1132 LINE"
);
},
{
closed = 1;
nodes = (
"724 1390 LINE",
"762 1360 LINE",
"902 1471 LINE",
"912 1471 LINE",
"1076 1361 LINE",
"1126 1397 LINE",
"947 1583 LINE",
"892 1570 LINE"
);
}
);
width = 1358;
}
);
note = Ucircumflex;
unicode = 00DB;
},
{
glyphname = Udieresis;
lastChange = "2016-08-10 08:57:17 +0000";
layers = (
{
layerId = "5ECBA62F-7A11-49B7-B673-3B0F38FC4DA3";
paths = (
{
closed = 1;
nodes = (
"739 1170 LINE",
"754 1246 LINE",
"237 1246 LINE",
"219 1170 LINE",
"390 1128 LINE",
"285 470 LINE SMOOTH",
"278 423 OFFCURVE",
"275 381 OFFCURVE",
"275 344 CURVE SMOOTH",
"275 284 OFFCURVE",
"284 232 OFFCURVE",
"301 187 CURVE SMOOTH",
"333 100 OFFCURVE",
"381 50 OFFCURVE",
"456 15 CURVE SMOOTH",
"515 -12 OFFCURVE",
"582 -26 OFFCURVE",
"659 -26 CURVE SMOOTH",
"982 -26 OFFCURVE",
"1174 149 OFFCURVE",
"1233 500 CURVE SMOOTH",
"1337 1132 LINE",
"1505 1170 LINE",
"1521 1246 LINE",
"1065 1246 LINE",
"1050 1170 LINE",
"1215 1128 LINE",
"1113 481 LINE SMOOTH",
"1108 451 OFFCURVE",
"1103 427 OFFCURVE",
"1099 410 CURVE SMOOTH",
"1086 353 OFFCURVE",
"1068 304 OFFCURVE",
"1046 263 CURVE SMOOTH",
"989 158 OFFCURVE",
"896 93 OFFCURVE",
"740 93 CURVE SMOOTH",
"561 93 OFFCURVE",
"461 189 OFFCURVE",
"461 384 CURVE SMOOTH",
"461 417 OFFCURVE",
"464 454 OFFCURVE",
"471 495 CURVE SMOOTH",
"570 1132 LINE"
);
},
{
closed = 1;
nodes = (
"1146 1511 OFFCURVE",
"1106 1545 OFFCURVE",
"1058 1545 CURVE SMOOTH",
"1013 1545 OFFCURVE",
"974 1512 OFFCURVE",
"974 1467 CURVE SMOOTH",
"974 1422 OFFCURVE",
"1011 1386 OFFCURVE",
"1058 1386 CURVE SMOOTH",
"1105 1386 OFFCURVE",
"1146 1420 OFFCURVE",
"1146 1467 CURVE SMOOTH"
);
},
{
closed = 1;
nodes = (
"876 1511 OFFCURVE",
"838 1545 OFFCURVE",
"790 1545 CURVE SMOOTH",
"745 1545 OFFCURVE",
"706 1512 OFFCURVE",
"706 1467 CURVE SMOOTH",
"706 1422 OFFCURVE",
"743 1386 OFFCURVE",
"790 1386 CURVE SMOOTH",
"837 1386 OFFCURVE",
"876 1420 OFFCURVE",
"876 1467 CURVE SMOOTH"
);
}
);
width = 1358;
}
);
note = Udieresis;
unicode = 00DC;
},
{
glyphname = Yacute;
lastChange = "2016-08-10 08:57:17 +0000";
layers = (
{
layerId = "5ECBA62F-7A11-49B7-B673-3B0F38FC4DA3";
paths = (
{
closed = 1;
nodes = (
"1256 1170 LINE",
"1270 1246 LINE",
"847 1246 LINE",
"832 1170 LINE",
"998 1128 LINE",
"670 639 LINE",
"478 1132 LINE",
"635 1170 LINE",
"653 1246 LINE",
"175 1246 LINE",
"156 1170 LINE",
"278 1128 LINE",
"519 506 LINE",
"458 121 LINE",
"308 74 LINE",
"291 0 LINE",
"776 0 LINE",
"794 81 LINE",
"640 114 LINE",
"706 529 LINE",
"1130 1132 LINE"
);
},
{
closed = 1;
nodes = (
"756 1383 LINE",
"807 1352 LINE",
"991 1669 LINE",
"878 1709 LINE"
);
}
);
width = 1057;
}
);
note = Yacute;
unicode = 00DD;
},
{
glyphname = Thorn;
lastChange = "2016-08-10 08:57:17 +0000";
layers = (
{
layerId = "5ECBA62F-7A11-49B7-B673-3B0F38FC4DA3";
paths = (
{
closed = 1;
nodes = (
"791 1246 LINE",
"271 1246 LINE",
"255 1170 LINE",
"422 1128 LINE",
"263 121 LINE",
"98 74 LINE",
"83 0 LINE",
"596 0 LINE",
"615 81 LINE",
"445 114 LINE",
"577 951 LINE",
"584 955 LINE",
"687 959 LINE",
"851 959 OFFCURVE",
"938 860 OFFCURVE",
"938 703 CURVE SMOOTH",
"938 483 OFFCURVE",
"819 367 OFFCURVE",
"586 367 CURVE SMOOTH",
"534 367 LINE",
"541 285 LINE",
"579 279 OFFCURVE",
"615 276 OFFCURVE",
"648 276 CURVE SMOOTH",
"773 276 OFFCURVE",
"900 325 OFFCURVE",
"992 406 CURVE SMOOTH",
"1085 487 OFFCURVE",
"1143 611 OFFCURVE",
"1143 743 CURVE SMOOTH",
"1143 789 OFFCURVE",
"1135 829 OFFCURVE",
"1120 864 CURVE SMOOTH",
"1063 993 OFFCURVE",
"913 1042 OFFCURVE",
"718 1042 CURVE SMOOTH",
"677 1042 OFFCURVE",
"634 1040 OFFCURVE",
"591 1037 CURVE",
"605 1132 LINE",
"774 1170 LINE"
);
}
);
width = 1084;
}
);
note = Thorn;
unicode = 00DE;
},
{
glyphname = germandbls;
lastChange = "2016-08-10 08:57:17 +0000";
layers = (
{
layerId = "5ECBA62F-7A11-49B7-B673-3B0F38FC4DA3";
paths = (
{
closed = 1;
nodes = (
"923 989 OFFCURVE",
"939 1034 OFFCURVE",
"939 1084 CURVE SMOOTH",
"939 1187 OFFCURVE",
"878 1289 OFFCURVE",
"711 1289 CURVE SMOOTH",
"658 1289 OFFCURVE",
"604 1271 OFFCURVE",
"548 1235 CURVE SMOOTH",
"435 1162 OFFCURVE",
"342 1027 OFFCURVE",
"313 890 CURVE",
"194 854 LINE",
"178 786 LINE",
"297 786 LINE",
"191 109 LINE",
"67 76 LINE",
"50 0 LINE",
"335 0 LINE",
"484 958 LINE SMOOTH",
"508 1117 OFFCURVE",
"560 1180 OFFCURVE",
"663 1180 CURVE SMOOTH",
"744 1180 OFFCURVE",
"777 1144 OFFCURVE",
"777 1067 CURVE SMOOTH",
"777 1019 OFFCURVE",
"750 961 OFFCURVE",
"696 893 CURVE SMOOTH",
"628 806 LINE SMOOTH",
"574 735 OFFCURVE",
"547 672 OFFCURVE",
"547 615 CURVE SMOOTH",
"547 528 OFFCURVE",
"589 467 OFFCURVE",
"632 420 CURVE",
"653 399 OFFCURVE",
"690 368 OFFCURVE",
"744 325 CURVE SMOOTH",
"815 270 OFFCURVE",
"851 222 OFFCURVE",
"851 182 CURVE SMOOTH",
"851 106 OFFCURVE",
"785 55 OFFCURVE",
"712 55 CURVE SMOOTH",
"649 54 OFFCURVE",
"601 119 OFFCURVE",
"570 248 CURVE",
"495 240 OFFCURVE",
"447 189 OFFCURVE",
"447 122 CURVE SMOOTH",
"447 78 OFFCURVE",
"468 41 OFFCURVE",
"509 11 CURVE SMOOTH",
"591 -50 OFFCURVE",
"743 -59 OFFCURVE",
"883 40 CURVE SMOOTH",
"951 87 OFFCURVE",
"997 165 OFFCURVE",
"997 245 CURVE SMOOTH",
"997 281 OFFCURVE",
"987 315 OFFCURVE",
"966 347 CURVE SMOOTH",
"953 366 OFFCURVE",
"935 389 OFFCURVE",
"920 404 CURVE SMOOTH",
"905 419 OFFCURVE",
"877 445 OFFCURVE",
"865 455 CURVE",
"852 465 OFFCURVE",
"815 494 OFFCURVE",
"806 503 CURVE",
"736 561 OFFCURVE",
"701 621 OFFCURVE",
"701 682 CURVE SMOOTH",
"701 704 OFFCURVE",
"705 725 OFFCURVE",
"714 745 CURVE SMOOTH",
"727 774 OFFCURVE",
"754 809 OFFCURVE",
"795 848 CURVE SMOOTH",
"846 898 OFFCURVE",
"878 932 OFFCURVE",
"892 949 CURVE SMOOTH"
);
}
);
width = 980;
}
);
note = germandbls;
unicode = 00DF;
},
{
glyphname = agrave;
lastChange = "2016-08-10 08:57:17 +0000";
layers = (
{
layerId = "5ECBA62F-7A11-49B7-B673-3B0F38FC4DA3";
paths = (
{
closed = 1;
nodes = (
"746 101 OFFCURVE",
"735 117 OFFCURVE",
"735 162 CURVE",
"736 190 OFFCURVE",
"745 262 OFFCURVE",
"762 379 CURVE SMOOTH",
"833 834 LINE",
"816 852 LINE",
"779 875 OFFCURVE",
"718 887 OFFCURVE",
"631 887 CURVE SMOOTH",
"586 887 OFFCURVE",
"540 879 OFFCURVE",
"493 862 CURVE SMOOTH",
"394 826 OFFCURVE",
"309 759 OFFCURVE",
"237 661 CURVE SMOOTH",
"165 562 OFFCURVE",
"120 424 OFFCURVE",
"120 275 CURVE SMOOTH",
"120 90 OFFCURVE",
"198 -22 OFFCURVE",
"322 -22 CURVE SMOOTH",
"415 -22 OFFCURVE",
"507 41 OFFCURVE",
"558 132 CURVE",
"570 132 LINE",
"567 94 LINE",
"567 83 LINE SMOOTH",
"567 19 OFFCURVE",
"615 -15 OFFCURVE",
"686 -15 CURVE SMOOTH",
"733 -15 OFFCURVE",
"780 -5 OFFCURVE",
"826 15 CURVE",
"846 84 LINE",
"778 96 LINE SMOOTH"
);
},
{
closed = 1;
nodes = (
"515 135 OFFCURVE",
"470 106 OFFCURVE",
"403 106 CURVE SMOOTH",
"322 106 OFFCURVE",
"282 178 OFFCURVE",
"282 321 CURVE SMOOTH",
"282 469 OFFCURVE",
"323 621 OFFCURVE",
"406 713 CURVE SMOOTH",
"489 805 OFFCURVE",
"612 795 OFFCURVE",
"661 748 CURVE",
"575 202 LINE"
);
},
{
closed = 1;
nodes = (
"775 1012 LINE",
"643 1347 LINE",
"527 1309 LINE",
"717 978 LINE"
);
}
);
width = 855;
}
);
note = agrave;
unicode = 00E0;
},
{
glyphname = aacute;
lastChange = "2016-08-10 08:57:17 +0000";
layers = (
{
layerId = "5ECBA62F-7A11-49B7-B673-3B0F38FC4DA3";
paths = (
{
closed = 1;
nodes = (
"746 101 OFFCURVE",
"735 117 OFFCURVE",
"735 162 CURVE",
"736 190 OFFCURVE",
"745 262 OFFCURVE",
"762 379 CURVE SMOOTH",
"833 834 LINE",
"816 852 LINE",
"779 875 OFFCURVE",
"718 887 OFFCURVE",
"631 887 CURVE SMOOTH",
"586 887 OFFCURVE",
"540 879 OFFCURVE",
"493 862 CURVE SMOOTH",
"394 826 OFFCURVE",
"309 759 OFFCURVE",
"237 661 CURVE SMOOTH",
"165 562 OFFCURVE",
"120 424 OFFCURVE",
"120 275 CURVE SMOOTH",
"120 90 OFFCURVE",
"198 -22 OFFCURVE",
"322 -22 CURVE SMOOTH",
"415 -22 OFFCURVE",
"507 41 OFFCURVE",
"558 132 CURVE",
"570 132 LINE",
"567 94 LINE",
"567 83 LINE SMOOTH",
"567 19 OFFCURVE",
"615 -15 OFFCURVE",
"686 -15 CURVE SMOOTH",
"733 -15 OFFCURVE",
"780 -5 OFFCURVE",
"826 15 CURVE",
"846 84 LINE",
"778 96 LINE SMOOTH"
);
},
{
closed = 1;
nodes = (
"515 135 OFFCURVE",
"470 106 OFFCURVE",
"403 106 CURVE SMOOTH",
"322 106 OFFCURVE",
"282 178 OFFCURVE",
"282 321 CURVE SMOOTH",
"282 469 OFFCURVE",
"323 621 OFFCURVE",
"406 713 CURVE SMOOTH",
"489 805 OFFCURVE",
"612 795 OFFCURVE",
"661 748 CURVE",
"575 202 LINE"
);
},
{
closed = 1;
nodes = (
"658 1029 LINE",
"709 998 LINE",
"892 1315 LINE",
"780 1355 LINE"
);
}
);
width = 855;
}
);
note = aacute;
unicode = 00E1;
},
{
glyphname = acircumflex;
lastChange = "2016-08-10 08:57:17 +0000";
layers = (
{
layerId = "5ECBA62F-7A11-49B7-B673-3B0F38FC4DA3";
paths = (
{
closed = 1;
nodes = (
"746 101 OFFCURVE",
"735 117 OFFCURVE",
"735 162 CURVE",
"736 190 OFFCURVE",
"745 262 OFFCURVE",
"762 379 CURVE SMOOTH",
"833 834 LINE",
"816 852 LINE",
"779 875 OFFCURVE",
"718 887 OFFCURVE",
"631 887 CURVE SMOOTH",
"586 887 OFFCURVE",
"540 879 OFFCURVE",
"493 862 CURVE SMOOTH",
"394 826 OFFCURVE",
"309 759 OFFCURVE",
"237 661 CURVE SMOOTH",
"165 562 OFFCURVE",
"120 424 OFFCURVE",
"120 275 CURVE SMOOTH",
"120 90 OFFCURVE",
"198 -22 OFFCURVE",
"322 -22 CURVE SMOOTH",
"415 -22 OFFCURVE",
"507 41 OFFCURVE",
"558 132 CURVE",
"570 132 LINE",
"567 94 LINE",
"567 83 LINE SMOOTH",
"567 19 OFFCURVE",
"615 -15 OFFCURVE",
"686 -15 CURVE SMOOTH",
"733 -15 OFFCURVE",
"780 -5 OFFCURVE",
"826 15 CURVE",
"846 84 LINE",
"778 96 LINE SMOOTH"
);
},
{
closed = 1;
nodes = (
"515 135 OFFCURVE",
"470 106 OFFCURVE",
"403 106 CURVE SMOOTH",
"322 106 OFFCURVE",
"282 178 OFFCURVE",
"282 321 CURVE SMOOTH",
"282 469 OFFCURVE",
"323 621 OFFCURVE",
"406 713 CURVE SMOOTH",
"489 805 OFFCURVE",
"612 795 OFFCURVE",
"661 748 CURVE",
"575 202 LINE"
);
},
{
closed = 1;
nodes = (
"482 1036 LINE",
"520 1006 LINE",
"661 1117 LINE",
"671 1117 LINE",
"835 1007 LINE",
"884 1044 LINE",
"706 1229 LINE",
"651 1216 LINE"
);
}
);
width = 855;
}
);
note = acircumflex;
unicode = 00E2;
},
{
glyphname = atilde;
lastChange = "2016-08-10 08:57:17 +0000";
layers = (
{
layerId = "5ECBA62F-7A11-49B7-B673-3B0F38FC4DA3";
paths = (
{
closed = 1;
nodes = (
"746 101 OFFCURVE",
"735 117 OFFCURVE",
"735 162 CURVE",
"736 190 OFFCURVE",
"745 262 OFFCURVE",
"762 379 CURVE SMOOTH",
"833 834 LINE",
"816 852 LINE",
"779 875 OFFCURVE",
"718 887 OFFCURVE",
"631 887 CURVE SMOOTH",
"586 887 OFFCURVE",
"540 879 OFFCURVE",
"493 862 CURVE SMOOTH",
"394 826 OFFCURVE",
"309 759 OFFCURVE",
"237 661 CURVE SMOOTH",
"165 562 OFFCURVE",
"120 424 OFFCURVE",
"120 275 CURVE SMOOTH",
"120 90 OFFCURVE",
"198 -22 OFFCURVE",
"322 -22 CURVE SMOOTH",
"415 -22 OFFCURVE",
"507 41 OFFCURVE",
"558 132 CURVE",
"570 132 LINE",
"567 94 LINE",
"567 83 LINE SMOOTH",
"567 19 OFFCURVE",
"615 -15 OFFCURVE",
"686 -15 CURVE SMOOTH",
"733 -15 OFFCURVE",
"780 -5 OFFCURVE",
"826 15 CURVE",
"846 84 LINE",
"778 96 LINE SMOOTH"
);
},
{
closed = 1;
nodes = (
"515 135 OFFCURVE",
"470 106 OFFCURVE",
"403 106 CURVE SMOOTH",
"322 106 OFFCURVE",
"282 178 OFFCURVE",
"282 321 CURVE SMOOTH",
"282 469 OFFCURVE",
"323 621 OFFCURVE",
"406 713 CURVE SMOOTH",
"489 805 OFFCURVE",
"612 795 OFFCURVE",
"661 748 CURVE",
"575 202 LINE"
);
},
{
closed = 1;
nodes = (
"497 1031 LINE SMOOTH",
"509 1048 OFFCURVE",
"532 1067 OFFCURVE",
"548 1067 CURVE SMOOTH",
"552 1067 LINE",
"775 1036 LINE",
"787 1036 LINE SMOOTH",
"852 1036 OFFCURVE",
"896 1109 OFFCURVE",
"913 1164 CURVE",
"914 1165 OFFCURVE",
"914 1168 OFFCURVE",
"915 1172 CURVE SMOOTH",
"916 1176 OFFCURVE",
"916 1179 OFFCURVE",
"917 1180 CURVE",
"869 1181 LINE",
"861 1171 LINE SMOOTH",
"849 1156 OFFCURVE",
"828 1140 OFFCURVE",
"813 1140 CURVE SMOOTH",
"810 1140 LINE",
"586 1170 LINE",
"583 1170 OFFCURVE",
"581 1170 OFFCURVE",
"580 1171 CURVE",
"578 1171 OFFCURVE",
"576 1171 OFFCURVE",
"573 1171 CURVE SMOOTH",
"550 1171 OFFCURVE",
"529 1162 OFFCURVE",
"510 1143 CURVE SMOOTH",
"481 1112 OFFCURVE",
"460 1063 OFFCURVE",
"453 1036 CURVE",
"453 1033 OFFCURVE",
"452 1030 OFFCURVE",
"451 1027 CURVE",
"489 1019 LINE"
);
}
);
width = 855;
}
);
note = atilde;
unicode = 00E3;
},
{
glyphname = adieresis;
lastChange = "2016-08-10 08:57:17 +0000";
layers = (
{
layerId = "5ECBA62F-7A11-49B7-B673-3B0F38FC4DA3";
paths = (
{
closed = 1;
nodes = (
"746 101 OFFCURVE",
"735 117 OFFCURVE",
"735 162 CURVE",
"736 190 OFFCURVE",
"745 262 OFFCURVE",
"762 379 CURVE SMOOTH",
"833 834 LINE",
"816 852 LINE",
"779 875 OFFCURVE",
"718 887 OFFCURVE",
"631 887 CURVE SMOOTH",
"586 887 OFFCURVE",
"540 879 OFFCURVE",
"493 862 CURVE SMOOTH",
"394 826 OFFCURVE",
"309 759 OFFCURVE",
"237 661 CURVE SMOOTH",
"165 562 OFFCURVE",
"120 424 OFFCURVE",
"120 275 CURVE SMOOTH",
"120 90 OFFCURVE",
"198 -22 OFFCURVE",
"322 -22 CURVE SMOOTH",
"415 -22 OFFCURVE",
"507 41 OFFCURVE",
"558 132 CURVE",
"570 132 LINE",
"567 94 LINE",
"567 83 LINE SMOOTH",
"567 19 OFFCURVE",
"615 -15 OFFCURVE",
"686 -15 CURVE SMOOTH",
"733 -15 OFFCURVE",
"780 -5 OFFCURVE",
"826 15 CURVE",
"846 84 LINE",
"778 96 LINE SMOOTH"
);
},
{
closed = 1;
nodes = (
"515 135 OFFCURVE",
"470 106 OFFCURVE",
"403 106 CURVE SMOOTH",
"322 106 OFFCURVE",
"282 178 OFFCURVE",
"282 321 CURVE SMOOTH",
"282 469 OFFCURVE",
"323 621 OFFCURVE",
"406 713 CURVE SMOOTH",
"489 805 OFFCURVE",
"612 795 OFFCURVE",
"661 748 CURVE",
"575 202 LINE"
);
},
{
closed = 1;
nodes = (
"904 1157 OFFCURVE",
"864 1191 OFFCURVE",
"816 1191 CURVE SMOOTH",
"771 1191 OFFCURVE",
"732 1158 OFFCURVE",
"732 1113 CURVE SMOOTH",
"732 1068 OFFCURVE",
"769 1032 OFFCURVE",
"816 1032 CURVE SMOOTH",
"864 1032 OFFCURVE",
"904 1066 OFFCURVE",
"904 1113 CURVE SMOOTH"
);
},
{
closed = 1;
nodes = (
"634 1157 OFFCURVE",
"596 1191 OFFCURVE",
"548 1191 CURVE SMOOTH",
"503 1191 OFFCURVE",
"464 1158 OFFCURVE",
"464 1113 CURVE SMOOTH",
"464 1068 OFFCURVE",
"501 1032 OFFCURVE",
"548 1032 CURVE SMOOTH",
"596 1032 OFFCURVE",
"634 1066 OFFCURVE",
"634 1113 CURVE SMOOTH"
);
}
);
width = 855;
}
);
note = adieresis;
unicode = 00E4;
},
{
glyphname = aring;
lastChange = "2016-08-10 08:57:17 +0000";
layers = (
{
layerId = "5ECBA62F-7A11-49B7-B673-3B0F38FC4DA3";
paths = (
{
closed = 1;
nodes = (
"746 101 OFFCURVE",
"735 117 OFFCURVE",
"735 162 CURVE",
"736 190 OFFCURVE",
"745 262 OFFCURVE",
"762 379 CURVE SMOOTH",
"833 834 LINE",
"816 852 LINE",
"779 875 OFFCURVE",
"718 887 OFFCURVE",
"631 887 CURVE SMOOTH",
"586 887 OFFCURVE",
"540 879 OFFCURVE",
"493 862 CURVE SMOOTH",
"394 826 OFFCURVE",
"309 759 OFFCURVE",
"237 661 CURVE SMOOTH",
"165 562 OFFCURVE",
"120 424 OFFCURVE",
"120 275 CURVE SMOOTH",
"120 90 OFFCURVE",
"198 -22 OFFCURVE",
"322 -22 CURVE SMOOTH",
"415 -22 OFFCURVE",
"507 41 OFFCURVE",
"558 132 CURVE",
"570 132 LINE",
"567 94 LINE",
"567 83 LINE SMOOTH",
"567 19 OFFCURVE",
"615 -15 OFFCURVE",
"686 -15 CURVE SMOOTH",
"733 -15 OFFCURVE",
"780 -5 OFFCURVE",
"826 15 CURVE",
"846 84 LINE",
"778 96 LINE SMOOTH"
);
},
{
closed = 1;
nodes = (
"515 135 OFFCURVE",
"470 106 OFFCURVE",
"403 106 CURVE SMOOTH",
"322 106 OFFCURVE",
"282 178 OFFCURVE",
"282 321 CURVE SMOOTH",
"282 469 OFFCURVE",
"323 621 OFFCURVE",
"406 713 CURVE SMOOTH",
"489 805 OFFCURVE",
"612 795 OFFCURVE",
"661 748 CURVE",
"575 202 LINE"
);
},
{
closed = 1;
nodes = (
"593 1253 OFFCURVE",
"624 1300 OFFCURVE",
"679 1300 CURVE SMOOTH",
"736 1300 OFFCURVE",
"775 1245 OFFCURVE",
"775 1173 CURVE SMOOTH",
"775 1100 OFFCURVE",
"744 1060 OFFCURVE",
"689 1060 CURVE SMOOTH",
"630 1060 OFFCURVE",
"593 1117 OFFCURVE",
"593 1188 CURVE SMOOTH"
);
},
{
closed = 1;
nodes = (
"776 1333 OFFCURVE",
"738 1348 OFFCURVE",
"691 1348 CURVE SMOOTH",
"598 1348 OFFCURVE",
"522 1269 OFFCURVE",
"522 1176 CURVE SMOOTH",
"522 1075 OFFCURVE",
"584 1011 OFFCURVE",
"677 1011 CURVE SMOOTH",
"774 1011 OFFCURVE",
"846 1089 OFFCURVE",
"846 1186 CURVE SMOOTH",
"846 1235 OFFCURVE",
"832 1274 OFFCURVE",
"804 1304 CURVE SMOOTH"
);
}
);
width = 855;
}
);
note = aring;
unicode = 00E5;
},
{
glyphname = ae;
lastChange = "2016-08-10 08:57:17 +0000";
layers = (
{
layerId = "5ECBA62F-7A11-49B7-B673-3B0F38FC4DA3";
paths = (
{
closed = 1;
nodes = (
"802 610 OFFCURVE",
"830 682 OFFCURVE",
"867 729 CURVE SMOOTH",
"903 776 OFFCURVE",
"941 799 OFFCURVE",
"980 799 CURVE SMOOTH",
"1103 799 OFFCURVE",
"1084 594 OFFCURVE",
"1055 534 CURVE",
"782 513 LINE"
);
},
{
closed = 1;
nodes = (
"515 135 OFFCURVE",
"470 106 OFFCURVE",
"403 106 CURVE SMOOTH",
"322 106 OFFCURVE",
"282 178 OFFCURVE",
"282 321 CURVE SMOOTH",
"282 469 OFFCURVE",
"323 621 OFFCURVE",
"406 713 CURVE SMOOTH",
"489 805 OFFCURVE",
"612 795 OFFCURVE",
"661 748 CURVE",
"575 202 LINE"
);
},
{
closed = 1;
nodes = (
"955 892 OFFCURVE",
"876 860 OFFCURVE",
"803 797 CURVE",
"780 854 OFFCURVE",
"706 887 OFFCURVE",
"631 887 CURVE SMOOTH",
"586 887 OFFCURVE",
"540 879 OFFCURVE",
"493 862 CURVE SMOOTH",
"394 826 OFFCURVE",
"309 759 OFFCURVE",
"237 661 CURVE SMOOTH",
"165 562 OFFCURVE",
"120 424 OFFCURVE",
"120 275 CURVE SMOOTH",
"120 182 OFFCURVE",
"138 110 OFFCURVE",
"175 57 CURVE SMOOTH",
"247 -48 OFFCURVE",
"419 -60 OFFCURVE",
"568 96 CURVE SMOOTH",
"591 120 OFFCURVE",
"610 140 OFFCURVE",
"623 157 CURVE",
"660 32 OFFCURVE",
"744 -30 OFFCURVE",
"876 -30 CURVE SMOOTH",
"997 -30 OFFCURVE",
"1130 48 OFFCURVE",
"1185 132 CURVE",
"1159 177 LINE",
"1132 149 OFFCURVE",
"1018 103 OFFCURVE",
"970 103 CURVE SMOOTH",
"851 103 OFFCURVE",
"764 176 OFFCURVE",
"764 349 CURVE SMOOTH",
"765 381 OFFCURVE",
"767 411 OFFCURVE",
"772 440 CURVE",
"1181 458 LINE",
"1244 574 OFFCURVE",
"1292 892 OFFCURVE",
"1040 892 CURVE SMOOTH"
);
}
);
width = 1212;
}
);
note = ae;
unicode = 00E6;
},
{
glyphname = ccedilla;
lastChange = "2016-08-10 08:57:17 +0000";
layers = (
{
layerId = "5ECBA62F-7A11-49B7-B673-3B0F38FC4DA3";
paths = (
{
closed = 1;
nodes = (
"535 0 OFFCURVE",
"608 47 OFFCURVE",
"655 106 CURVE",
"632 156 LINE",
"564 111 OFFCURVE",
"519 93 OFFCURVE",
"448 93 CURVE SMOOTH",
"347 93 OFFCURVE",
"296 182 OFFCURVE",
"296 331 CURVE SMOOTH",
"296 467 OFFCURVE",
"327 598 OFFCURVE",
"374 679 CURVE SMOOTH",
"421 759 OFFCURVE",
"475 807 OFFCURVE",
"524 807 CURVE SMOOTH",
"580 807 OFFCURVE",
"597 727 OFFCURVE",
"604 644 CURVE",
"685 649 OFFCURVE",
"743 694 OFFCURVE",
"743 758 CURVE SMOOTH",
"743 846 OFFCURVE",
"679 902 OFFCURVE",
"574 902 CURVE SMOOTH",
"539 902 OFFCURVE",
"502 893 OFFCURVE",
"462 876 CURVE SMOOTH",
"381 840 OFFCURVE",
"297 768 OFFCURVE",
"233 676 CURVE SMOOTH",
"168 580 OFFCURVE",
"124 445 OFFCURVE",
"124 308 CURVE SMOOTH",
"124 97 OFFCURVE",
"219 -27 OFFCURVE",
"379 -30 CURVE",
"304 -137 LINE",
"353 -184 OFFCURVE",
"377 -221 OFFCURVE",
"377 -248 CURVE SMOOTH",
"377 -280 OFFCURVE",
"346 -312 OFFCURVE",
"291 -331 CURVE",
"311 -390 LINE",
"444 -350 OFFCURVE",
"511 -296 OFFCURVE",
"511 -227 CURVE SMOOTH",
"511 -178 OFFCURVE",
"481 -128 OFFCURVE",
"422 -76 CURVE",
"462 -20 LINE"
);
}
);
width = 669;
}
);
note = ccedilla;
unicode = 00E7;
},
{
glyphname = egrave;
lastChange = "2016-08-10 08:57:17 +0000";
layers = (
{
layerId = "5ECBA62F-7A11-49B7-B673-3B0F38FC4DA3";
paths = (
{
closed = 1;
nodes = (
"324 610 OFFCURVE",
"352 682 OFFCURVE",
"389 729 CURVE SMOOTH",
"425 776 OFFCURVE",
"462 799 OFFCURVE",
"501 799 CURVE SMOOTH",
"624 799 OFFCURVE",
"605 594 OFFCURVE",
"576 534 CURVE",
"304 513 LINE"
);
},
{
closed = 1;
nodes = (
"765 578 OFFCURVE",
"813 892 OFFCURVE",
"561 892 CURVE SMOOTH",
"480 892 OFFCURVE",
"406 865 OFFCURVE",
"339 811 CURVE SMOOTH",
"204 703 OFFCURVE",
"126 514 OFFCURVE",
"126 306 CURVE SMOOTH",
"126 86 OFFCURVE",
"228 -30 OFFCURVE",
"397 -30 CURVE SMOOTH",
"518 -30 OFFCURVE",
"651 48 OFFCURVE",
"706 132 CURVE",
"680 177 LINE",
"655 149 OFFCURVE",
"539 103 OFFCURVE",
"491 103 CURVE SMOOTH",
"372 103 OFFCURVE",
"285 176 OFFCURVE",
"285 349 CURVE SMOOTH",
"286 381 OFFCURVE",
"288 411 OFFCURVE",
"293 440 CURVE",
"701 458 LINE"
);
},
{
closed = 1;
nodes = (
"626 1012 LINE",
"494 1347 LINE",
"378 1309 LINE",
"568 978 LINE"
);
}
);
width = 733;
}
);
note = egrave;
unicode = 00E8;
},
{
glyphname = eacute;
lastChange = "2016-08-10 08:57:17 +0000";
layers = (
{
layerId = "5ECBA62F-7A11-49B7-B673-3B0F38FC4DA3";
paths = (
{
closed = 1;
nodes = (
"324 610 OFFCURVE",
"352 682 OFFCURVE",
"389 729 CURVE SMOOTH",
"425 776 OFFCURVE",
"462 799 OFFCURVE",
"501 799 CURVE SMOOTH",
"624 799 OFFCURVE",
"605 594 OFFCURVE",
"576 534 CURVE",
"304 513 LINE"
);
},
{
closed = 1;
nodes = (
"765 578 OFFCURVE",
"813 892 OFFCURVE",
"561 892 CURVE SMOOTH",
"480 892 OFFCURVE",
"406 865 OFFCURVE",
"339 811 CURVE SMOOTH",
"204 703 OFFCURVE",
"126 514 OFFCURVE",
"126 306 CURVE SMOOTH",
"126 86 OFFCURVE",
"228 -30 OFFCURVE",
"397 -30 CURVE SMOOTH",
"518 -30 OFFCURVE",
"651 48 OFFCURVE",
"706 132 CURVE",
"680 177 LINE",
"655 149 OFFCURVE",
"539 103 OFFCURVE",
"491 103 CURVE SMOOTH",
"372 103 OFFCURVE",
"285 176 OFFCURVE",
"285 349 CURVE SMOOTH",
"286 381 OFFCURVE",
"288 411 OFFCURVE",
"293 440 CURVE",
"701 458 LINE"
);
},
{
closed = 1;
nodes = (
"567 1021 LINE",
"618 989 LINE",
"801 1307 LINE",
"689 1347 LINE"
);
}
);
width = 733;
}
);
note = eacute;
unicode = 00E9;
},
{
glyphname = ecircumflex;
lastChange = "2016-08-10 08:57:17 +0000";
layers = (
{
layerId = "5ECBA62F-7A11-49B7-B673-3B0F38FC4DA3";
paths = (
{
closed = 1;
nodes = (
"324 610 OFFCURVE",
"352 682 OFFCURVE",
"389 729 CURVE SMOOTH",
"425 776 OFFCURVE",
"462 799 OFFCURVE",
"501 799 CURVE SMOOTH",
"624 799 OFFCURVE",
"605 594 OFFCURVE",
"576 534 CURVE",
"304 513 LINE"
);
},
{
closed = 1;
nodes = (
"765 578 OFFCURVE",
"813 892 OFFCURVE",
"561 892 CURVE SMOOTH",
"480 892 OFFCURVE",
"406 865 OFFCURVE",
"339 811 CURVE SMOOTH",
"204 703 OFFCURVE",
"126 514 OFFCURVE",
"126 306 CURVE SMOOTH",
"126 86 OFFCURVE",
"228 -30 OFFCURVE",
"397 -30 CURVE SMOOTH",
"518 -30 OFFCURVE",
"651 48 OFFCURVE",
"706 132 CURVE",
"680 177 LINE",
"655 149 OFFCURVE",
"539 103 OFFCURVE",
"491 103 CURVE SMOOTH",
"372 103 OFFCURVE",
"285 176 OFFCURVE",
"285 349 CURVE SMOOTH",
"286 381 OFFCURVE",
"288 411 OFFCURVE",
"293 440 CURVE",
"701 458 LINE"
);
},
{
closed = 1;
nodes = (
"367 1042 LINE",
"404 1012 LINE",
"545 1123 LINE",
"555 1123 LINE",
"719 1014 LINE",
"768 1050 LINE",
"590 1236 LINE",
"536 1222 LINE"
);
}
);
width = 733;
}
);
note = ecircumflex;
unicode = 00EA;
},
{
glyphname = edieresis;
lastChange = "2016-08-10 08:57:17 +0000";
layers = (
{
layerId = "5ECBA62F-7A11-49B7-B673-3B0F38FC4DA3";
paths = (
{
closed = 1;
nodes = (
"324 610 OFFCURVE",
"352 682 OFFCURVE",
"389 729 CURVE SMOOTH",
"425 776 OFFCURVE",
"462 799 OFFCURVE",
"501 799 CURVE SMOOTH",
"624 799 OFFCURVE",
"605 594 OFFCURVE",
"576 534 CURVE",
"304 513 LINE"
);
},
{
closed = 1;
nodes = (
"765 578 OFFCURVE",
"813 892 OFFCURVE",
"561 892 CURVE SMOOTH",
"480 892 OFFCURVE",
"406 865 OFFCURVE",
"339 811 CURVE SMOOTH",
"204 703 OFFCURVE",
"126 514 OFFCURVE",
"126 306 CURVE SMOOTH",
"126 86 OFFCURVE",
"228 -30 OFFCURVE",
"397 -30 CURVE SMOOTH",
"518 -30 OFFCURVE",
"651 48 OFFCURVE",
"706 132 CURVE",
"680 177 LINE",
"655 149 OFFCURVE",
"539 103 OFFCURVE",
"491 103 CURVE SMOOTH",
"372 103 OFFCURVE",
"285 176 OFFCURVE",
"285 349 CURVE SMOOTH",
"286 381 OFFCURVE",
"288 411 OFFCURVE",
"293 440 CURVE",
"701 458 LINE"
);
},
{
closed = 1;
nodes = (
"810 1157 OFFCURVE",
"770 1191 OFFCURVE",
"722 1191 CURVE SMOOTH",
"677 1191 OFFCURVE",
"638 1158 OFFCURVE",
"638 1113 CURVE SMOOTH",
"638 1068 OFFCURVE",
"675 1032 OFFCURVE",
"722 1032 CURVE SMOOTH",
"770 1032 OFFCURVE",
"810 1066 OFFCURVE",
"810 1113 CURVE SMOOTH"
);
},
{
closed = 1;
nodes = (
"541 1157 OFFCURVE",
"503 1191 OFFCURVE",
"455 1191 CURVE SMOOTH",
"410 1191 OFFCURVE",
"371 1158 OFFCURVE",
"371 1113 CURVE SMOOTH",
"371 1068 OFFCURVE",
"408 1032 OFFCURVE",
"455 1032 CURVE SMOOTH",
"502 1032 OFFCURVE",
"541 1066 OFFCURVE",
"541 1113 CURVE SMOOTH"
);
}
);
width = 733;
}
);
note = edieresis;
unicode = 00EB;
},
{
glyphname = igrave;
lastChange = "2016-08-10 08:57:17 +0000";
layers = (
{
layerId = "5ECBA62F-7A11-49B7-B673-3B0F38FC4DA3";
paths = (
{
closed = 1;
nodes = (
"60 0 LINE",
"469 0 LINE",
"486 71 LINE",
"360 103 LINE",
"476 847 LINE",
"456 870 LINE",
"181 845 LINE",
"171 769 LINE",
"302 748 LINE",
"201 106 LINE",
"79 73 LINE"
);
},
{
closed = 1;
nodes = (
"434 1012 LINE",
"303 1347 LINE",
"187 1309 LINE",
"377 978 LINE"
);
}
);
width = 497;
}
);
note = igrave;
unicode = 00EC;
},
{
glyphname = iacute;
lastChange = "2016-08-10 08:57:17 +0000";
layers = (
{
layerId = "5ECBA62F-7A11-49B7-B673-3B0F38FC4DA3";
paths = (
{
closed = 1;
nodes = (
"61 0 LINE",
"470 0 LINE",
"486 71 LINE",
"361 103 LINE",
"476 847 LINE",
"457 870 LINE",
"182 845 LINE",
"172 769 LINE",
"303 748 LINE",
"202 106 LINE",
"79 73 LINE"
);
},
{
closed = 1;
nodes = (
"385 1029 LINE",
"436 998 LINE",
"620 1315 LINE",
"507 1355 LINE"
);
}
);
width = 497;
}
);
note = iacute;
unicode = 00ED;
},
{
glyphname = icircumflex;
lastChange = "2016-08-10 08:57:17 +0000";
layers = (
{
layerId = "5ECBA62F-7A11-49B7-B673-3B0F38FC4DA3";
paths = (
{
closed = 1;
nodes = (
"61 0 LINE",
"470 0 LINE",
"486 71 LINE",
"361 103 LINE",
"476 847 LINE",
"457 870 LINE",
"182 845 LINE",
"172 769 LINE",
"303 748 LINE",
"202 106 LINE",
"79 73 LINE"
);
},
{
closed = 1;
nodes = (
"243 1036 LINE",
"281 1006 LINE",
"422 1117 LINE",
"432 1117 LINE",
"596 1007 LINE",
"645 1044 LINE",
"467 1229 LINE",
"412 1216 LINE"
);
}
);
width = 497;
}
);
note = icircumflex;
unicode = 00EE;
},
{
glyphname = idieresis;
lastChange = "2016-08-10 08:57:17 +0000";
layers = (
{
layerId = "5ECBA62F-7A11-49B7-B673-3B0F38FC4DA3";
paths = (
{
closed = 1;
nodes = (
"61 0 LINE",
"470 0 LINE",
"486 71 LINE",
"361 103 LINE",
"476 847 LINE",
"457 870 LINE",
"182 845 LINE",
"172 769 LINE",
"303 748 LINE",
"202 106 LINE",
"79 73 LINE"
);
},
{
closed = 1;
nodes = (
"665 1157 OFFCURVE",
"625 1191 OFFCURVE",
"577 1191 CURVE SMOOTH",
"532 1191 OFFCURVE",
"493 1158 OFFCURVE",
"493 1113 CURVE SMOOTH",
"493 1068 OFFCURVE",
"530 1032 OFFCURVE",
"577 1032 CURVE SMOOTH",
"625 1032 OFFCURVE",
"665 1066 OFFCURVE",
"665 1113 CURVE SMOOTH"
);
},
{
closed = 1;
nodes = (
"395 1157 OFFCURVE",
"357 1191 OFFCURVE",
"309 1191 CURVE SMOOTH",
"264 1191 OFFCURVE",
"225 1158 OFFCURVE",
"225 1113 CURVE SMOOTH",
"225 1068 OFFCURVE",
"262 1032 OFFCURVE",
"309 1032 CURVE SMOOTH",
"357 1032 OFFCURVE",
"395 1066 OFFCURVE",
"395 1113 CURVE SMOOTH"
);
}
);
width = 497;
}
);
note = idieresis;
unicode = 00EF;
},
{
glyphname = eth;
lastChange = "2016-08-10 08:57:17 +0000";
layers = (
{
layerId = "5ECBA62F-7A11-49B7-B673-3B0F38FC4DA3";
paths = (
{
closed = 1;
nodes = (
"906 1203 LINE",
"760 1171 LINE",
"723 1220 OFFCURVE",
"682 1264 OFFCURVE",
"636 1305 CURVE",
"525 1305 LINE",
"568 1254 OFFCURVE",
"603 1200 OFFCURVE",
"631 1141 CURVE",
"467 1108 LINE",
"444 1031 LINE",
"656 1072 LINE",
"697 961 OFFCURVE",
"723 874 OFFCURVE",
"732 809 CURVE",
"725 809 LINE",
"712 880 OFFCURVE",
"639 900 OFFCURVE",
"591 900 CURVE SMOOTH",
"550 900 OFFCURVE",
"509 893 OFFCURVE",
"467 880 CURVE SMOOTH",
"382 852 OFFCURVE",
"294 789 OFFCURVE",
"233 705 CURVE SMOOTH",
"168 617 OFFCURVE",
"128 482 OFFCURVE",
"128 331 CURVE SMOOTH",
"128 98 OFFCURVE",
"245 -26 OFFCURVE",
"434 -26 CURVE SMOOTH",
"477 -26 OFFCURVE",
"519 -19 OFFCURVE",
"561 -4 CURVE SMOOTH",
"646 27 OFFCURVE",
"734 99 OFFCURVE",
"795 199 CURVE SMOOTH",
"859 306 OFFCURVE",
"899 471 OFFCURVE",
"899 659 CURVE SMOOTH",
"899 846 OFFCURVE",
"870 973 OFFCURVE",
"797 1108 CURVE",
"883 1125 LINE"
);
},
{
closed = 1;
nodes = (
"456 787 OFFCURVE",
"507 807 OFFCURVE",
"567 807 CURVE SMOOTH",
"666 807 OFFCURVE",
"722 703 OFFCURVE",
"722 546 CURVE SMOOTH",
"722 250 OFFCURVE",
"623 71 OFFCURVE",
"471 71 CURVE SMOOTH",
"359 71 OFFCURVE",
"304 176 OFFCURVE",
"304 361 CURVE SMOOTH",
"304 489 OFFCURVE",
"322 658 OFFCURVE",
"414 747 CURVE SMOOTH"
);
}
);
width = 895;
}
);
note = eth;
unicode = 00F0;
},
{
glyphname = ntilde;
lastChange = "2016-08-10 08:57:17 +0000";
layers = (
{
layerId = "5ECBA62F-7A11-49B7-B673-3B0F38FC4DA3";
paths = (
{
closed = 1;
nodes = (
"885 657 OFFCURVE",
"888 693 OFFCURVE",
"888 723 CURVE SMOOTH",
"888 846 OFFCURVE",
"843 895 OFFCURVE",
"748 895 CURVE SMOOTH",
"653 895 OFFCURVE",
"529 815 OFFCURVE",
"460 723 CURVE",
"448 723 LINE",
"483 849 LINE",
"462 872 LINE",
"184 847 LINE",
"170 764 LINE",
"301 743 LINE",
"205 108 LINE",
"84 74 LINE",
"63 0 LINE",
"467 0 LINE",
"485 74 LINE",
"362 106 LINE",
"452 665 LINE",
"507 718 OFFCURVE",
"568 744 OFFCURVE",
"635 744 CURVE SMOOTH",
"692 744 OFFCURVE",
"718 716 OFFCURVE",
"718 639 CURVE SMOOTH",
"718 620 OFFCURVE",
"714 582 OFFCURVE",
"706 526 CURVE SMOOTH",
"624 15 LINE",
"635 3 LINE",
"902 3 LINE",
"923 76 LINE",
"799 104 LINE",
"878 614 LINE SMOOTH"
);
},
{
closed = 1;
nodes = (
"438 1031 LINE SMOOTH",
"450 1048 OFFCURVE",
"474 1067 OFFCURVE",
"490 1067 CURVE SMOOTH",
"493 1067 LINE",
"716 1036 LINE",
"728 1036 LINE SMOOTH",
"795 1036 OFFCURVE",
"837 1109 OFFCURVE",
"854 1164 CURVE",
"855 1165 OFFCURVE",
"856 1168 OFFCURVE",
"857 1172 CURVE SMOOTH",
"858 1176 OFFCURVE",
"858 1179 OFFCURVE",
"859 1180 CURVE",
"811 1181 LINE",
"802 1171 LINE",
"790 1156 OFFCURVE",
"769 1140 OFFCURVE",
"754 1140 CURVE SMOOTH",
"751 1140 LINE",
"528 1170 LINE",
"525 1170 OFFCURVE",
"523 1170 OFFCURVE",
"521 1171 CURVE",
"519 1171 OFFCURVE",
"517 1171 OFFCURVE",
"514 1171 CURVE SMOOTH",
"491 1171 OFFCURVE",
"471 1162 OFFCURVE",
"452 1143 CURVE SMOOTH",
"423 1112 OFFCURVE",
"402 1063 OFFCURVE",
"395 1036 CURVE",
"394 1033 OFFCURVE",
"393 1030 OFFCURVE",
"392 1027 CURVE",
"430 1019 LINE"
);
}
);
width = 927;
}
);
note = ntilde;
unicode = 00F1;
},
{
glyphname = ograve;
lastChange = "2016-08-10 08:57:17 +0000";
layers = (
{
layerId = "5ECBA62F-7A11-49B7-B673-3B0F38FC4DA3";
paths = (
{
closed = 1;
nodes = (
"614 154 OFFCURVE",
"530 48 OFFCURVE",
"438 48 CURVE SMOOTH",
"411 48 OFFCURVE",
"387 62 OFFCURVE",
"366 89 CURVE SMOOTH",
"326 142 OFFCURVE",
"306 220 OFFCURVE",
"306 323 CURVE SMOOTH",
"306 452 OFFCURVE",
"326 566 OFFCURVE",
"365 663 CURVE SMOOTH",
"404 759 OFFCURVE",
"469 817 OFFCURVE",
"548 817 CURVE SMOOTH",
"633 817 OFFCURVE",
"685 717 OFFCURVE",
"685 550 CURVE SMOOTH",
"685 466 OFFCURVE",
"675 386 OFFCURVE",
"655 310 CURVE SMOOTH"
);
},
{
closed = 1;
nodes = (
"807 258 OFFCURVE",
"854 399 OFFCURVE",
"854 536 CURVE SMOOTH",
"854 769 OFFCURVE",
"767 895 OFFCURVE",
"591 895 CURVE SMOOTH",
"526 895 OFFCURVE",
"465 879 OFFCURVE",
"406 847 CURVE SMOOTH",
"288 783 OFFCURVE",
"205 672 OFFCURVE",
"158 535 CURVE SMOOTH",
"110 398 OFFCURVE",
"113 255 OFFCURVE",
"154 148 CURVE SMOOTH",
"197 40 OFFCURVE",
"286 -26 OFFCURVE",
"405 -26 CURVE SMOOTH",
"529 -26 OFFCURVE",
"648 43 OFFCURVE",
"728 151 CURVE SMOOTH"
);
},
{
closed = 1;
nodes = (
"706 1012 LINE",
"574 1347 LINE",
"458 1309 LINE",
"648 978 LINE"
);
}
);
width = 842;
}
);
note = ograve;
unicode = 00F2;
},
{
glyphname = oacute;
lastChange = "2016-08-10 08:57:17 +0000";
layers = (
{
layerId = "5ECBA62F-7A11-49B7-B673-3B0F38FC4DA3";
paths = (
{
closed = 1;
nodes = (
"614 154 OFFCURVE",
"530 48 OFFCURVE",
"438 48 CURVE SMOOTH",
"411 48 OFFCURVE",
"387 62 OFFCURVE",
"366 89 CURVE SMOOTH",
"326 142 OFFCURVE",
"306 220 OFFCURVE",
"306 323 CURVE SMOOTH",
"306 452 OFFCURVE",
"326 566 OFFCURVE",
"365 663 CURVE SMOOTH",
"404 759 OFFCURVE",
"469 817 OFFCURVE",
"548 817 CURVE SMOOTH",
"633 817 OFFCURVE",
"685 717 OFFCURVE",
"685 550 CURVE SMOOTH",
"685 466 OFFCURVE",
"675 386 OFFCURVE",
"655 310 CURVE SMOOTH"
);
},
{
closed = 1;
nodes = (
"807 258 OFFCURVE",
"854 399 OFFCURVE",
"854 536 CURVE SMOOTH",
"854 769 OFFCURVE",
"767 895 OFFCURVE",
"591 895 CURVE SMOOTH",
"526 895 OFFCURVE",
"465 879 OFFCURVE",
"406 847 CURVE SMOOTH",
"288 783 OFFCURVE",
"205 672 OFFCURVE",
"158 535 CURVE SMOOTH",
"110 398 OFFCURVE",
"113 255 OFFCURVE",
"154 148 CURVE SMOOTH",
"197 40 OFFCURVE",
"286 -26 OFFCURVE",
"405 -26 CURVE SMOOTH",
"529 -26 OFFCURVE",
"648 43 OFFCURVE",
"728 151 CURVE SMOOTH"
);
},
{
closed = 1;
nodes = (
"605 1029 LINE",
"657 998 LINE",
"840 1315 LINE",
"728 1355 LINE"
);
}
);
width = 842;
}
);
note = oacute;
unicode = 00F3;
},
{
glyphname = ocircumflex;
lastChange = "2016-08-10 08:57:17 +0000";
layers = (
{
layerId = "5ECBA62F-7A11-49B7-B673-3B0F38FC4DA3";
paths = (
{
closed = 1;
nodes = (
"614 154 OFFCURVE",
"530 48 OFFCURVE",
"438 48 CURVE SMOOTH",
"411 48 OFFCURVE",
"387 62 OFFCURVE",
"366 89 CURVE SMOOTH",
"326 142 OFFCURVE",
"306 220 OFFCURVE",
"306 323 CURVE SMOOTH",
"306 452 OFFCURVE",
"326 566 OFFCURVE",
"365 663 CURVE SMOOTH",
"404 759 OFFCURVE",
"469 817 OFFCURVE",
"548 817 CURVE SMOOTH",
"633 817 OFFCURVE",
"685 717 OFFCURVE",
"685 550 CURVE SMOOTH",
"685 466 OFFCURVE",
"675 386 OFFCURVE",
"655 310 CURVE SMOOTH"
);
},
{
closed = 1;
nodes = (
"807 258 OFFCURVE",
"854 399 OFFCURVE",
"854 536 CURVE SMOOTH",
"854 769 OFFCURVE",
"767 895 OFFCURVE",
"591 895 CURVE SMOOTH",
"526 895 OFFCURVE",
"465 879 OFFCURVE",
"406 847 CURVE SMOOTH",
"288 783 OFFCURVE",
"205 672 OFFCURVE",
"158 535 CURVE SMOOTH",
"110 398 OFFCURVE",
"113 255 OFFCURVE",
"154 148 CURVE SMOOTH",
"197 40 OFFCURVE",
"286 -26 OFFCURVE",
"405 -26 CURVE SMOOTH",
"529 -26 OFFCURVE",
"648 43 OFFCURVE",
"728 151 CURVE SMOOTH"
);
},
{
closed = 1;
nodes = (
"380 1036 LINE",
"419 1006 LINE",
"559 1117 LINE",
"569 1117 LINE",
"733 1007 LINE",
"782 1044 LINE",
"604 1229 LINE",
"549 1216 LINE"
);
}
);
width = 842;
}
);
note = ocircumflex;
unicode = 00F4;
},
{
glyphname = otilde;
lastChange = "2016-08-10 08:57:17 +0000";
layers = (
{
layerId = "5ECBA62F-7A11-49B7-B673-3B0F38FC4DA3";
paths = (
{
closed = 1;
nodes = (
"614 154 OFFCURVE",
"530 48 OFFCURVE",
"438 48 CURVE SMOOTH",
"411 48 OFFCURVE",
"387 62 OFFCURVE",
"366 89 CURVE SMOOTH",
"326 142 OFFCURVE",
"306 220 OFFCURVE",
"306 323 CURVE SMOOTH",
"306 452 OFFCURVE",
"326 566 OFFCURVE",
"365 663 CURVE SMOOTH",
"404 759 OFFCURVE",
"469 817 OFFCURVE",
"548 817 CURVE SMOOTH",
"633 817 OFFCURVE",
"685 717 OFFCURVE",
"685 550 CURVE SMOOTH",
"685 466 OFFCURVE",
"675 386 OFFCURVE",
"655 310 CURVE SMOOTH"
);
},
{
closed = 1;
nodes = (
"807 258 OFFCURVE",
"854 399 OFFCURVE",
"854 536 CURVE SMOOTH",
"854 769 OFFCURVE",
"767 895 OFFCURVE",
"591 895 CURVE SMOOTH",
"526 895 OFFCURVE",
"465 879 OFFCURVE",
"406 847 CURVE SMOOTH",
"288 783 OFFCURVE",
"205 672 OFFCURVE",
"158 535 CURVE SMOOTH",
"110 398 OFFCURVE",
"113 255 OFFCURVE",
"154 148 CURVE SMOOTH",
"197 40 OFFCURVE",
"286 -26 OFFCURVE",
"405 -26 CURVE SMOOTH",
"529 -26 OFFCURVE",
"648 43 OFFCURVE",
"728 151 CURVE SMOOTH"
);
},
{
closed = 1;
nodes = (
"395 1031 LINE SMOOTH",
"407 1048 OFFCURVE",
"431 1067 OFFCURVE",
"447 1067 CURVE SMOOTH",
"450 1067 LINE",
"673 1036 LINE",
"685 1036 LINE SMOOTH",
"752 1036 OFFCURVE",
"794 1109 OFFCURVE",
"811 1164 CURVE",
"812 1165 OFFCURVE",
"813 1168 OFFCURVE",
"814 1172 CURVE SMOOTH",
"815 1176 OFFCURVE",
"815 1179 OFFCURVE",
"816 1180 CURVE",
"768 1181 LINE",
"759 1171 LINE",
"747 1156 OFFCURVE",
"726 1140 OFFCURVE",
"711 1140 CURVE SMOOTH",
"708 1140 LINE",
"485 1170 LINE",
"482 1170 OFFCURVE",
"480 1170 OFFCURVE",
"478 1171 CURVE",
"476 1171 OFFCURVE",
"474 1171 OFFCURVE",
"471 1171 CURVE SMOOTH",
"448 1171 OFFCURVE",
"428 1162 OFFCURVE",
"409 1143 CURVE SMOOTH",
"380 1112 OFFCURVE",
"359 1063 OFFCURVE",
"352 1036 CURVE",
"351 1033 OFFCURVE",
"350 1030 OFFCURVE",
"349 1027 CURVE",
"387 1019 LINE"
);
}
);
width = 842;
}
);
note = otilde;
unicode = 00F5;
},
{
glyphname = odieresis;
lastChange = "2016-08-10 08:57:17 +0000";
layers = (
{
layerId = "5ECBA62F-7A11-49B7-B673-3B0F38FC4DA3";
paths = (
{
closed = 1;
nodes = (
"614 154 OFFCURVE",
"530 48 OFFCURVE",
"438 48 CURVE SMOOTH",
"411 48 OFFCURVE",
"387 62 OFFCURVE",
"366 89 CURVE SMOOTH",
"326 142 OFFCURVE",
"306 220 OFFCURVE",
"306 323 CURVE SMOOTH",
"306 452 OFFCURVE",
"326 566 OFFCURVE",
"365 663 CURVE SMOOTH",
"404 759 OFFCURVE",
"469 817 OFFCURVE",
"548 817 CURVE SMOOTH",
"633 817 OFFCURVE",
"685 717 OFFCURVE",
"685 550 CURVE SMOOTH",
"685 466 OFFCURVE",
"675 386 OFFCURVE",
"655 310 CURVE SMOOTH"
);
},
{
closed = 1;
nodes = (
"807 258 OFFCURVE",
"854 399 OFFCURVE",
"854 536 CURVE SMOOTH",
"854 769 OFFCURVE",
"767 895 OFFCURVE",
"591 895 CURVE SMOOTH",
"526 895 OFFCURVE",
"465 879 OFFCURVE",
"406 847 CURVE SMOOTH",
"288 783 OFFCURVE",
"205 672 OFFCURVE",
"158 535 CURVE SMOOTH",
"110 398 OFFCURVE",
"113 255 OFFCURVE",
"154 148 CURVE SMOOTH",
"197 40 OFFCURVE",
"286 -26 OFFCURVE",
"405 -26 CURVE SMOOTH",
"529 -26 OFFCURVE",
"648 43 OFFCURVE",
"728 151 CURVE SMOOTH"
);
},
{
closed = 1;
nodes = (
"802 1157 OFFCURVE",
"763 1191 OFFCURVE",
"715 1191 CURVE SMOOTH",
"670 1191 OFFCURVE",
"630 1158 OFFCURVE",
"630 1113 CURVE SMOOTH",
"630 1068 OFFCURVE",
"668 1032 OFFCURVE",
"715 1032 CURVE SMOOTH",
"762 1032 OFFCURVE",
"802 1066 OFFCURVE",
"802 1113 CURVE SMOOTH"
);
},
{
closed = 1;
nodes = (
"533 1157 OFFCURVE",
"495 1191 OFFCURVE",
"447 1191 CURVE SMOOTH",
"402 1191 OFFCURVE",
"362 1158 OFFCURVE",
"362 1113 CURVE SMOOTH",
"362 1068 OFFCURVE",
"400 1032 OFFCURVE",
"447 1032 CURVE SMOOTH",
"494 1032 OFFCURVE",
"533 1066 OFFCURVE",
"533 1113 CURVE SMOOTH"
);
}
);
width = 842;
}
);
note = odieresis;
unicode = 00F6;
},
{
glyphname = divide;
lastChange = "2016-08-10 08:57:17 +0000";
layers = (
{
layerId = "5ECBA62F-7A11-49B7-B673-3B0F38FC4DA3";
paths = (
{
closed = 1;
nodes = (
"540 903 OFFCURVE",
"481 844 OFFCURVE",
"481 768 CURVE SMOOTH",
"481 717 OFFCURVE",
"531 667 OFFCURVE",
"583 667 CURVE SMOOTH",
"658 667 OFFCURVE",
"715 724 OFFCURVE",
"715 801 CURVE SMOOTH",
"715 857 OFFCURVE",
"673 903 OFFCURVE",
"616 903 CURVE SMOOTH"
);
},
{
closed = 1;
nodes = (
"456 341 OFFCURVE",
"396 281 OFFCURVE",
"396 205 CURVE SMOOTH",
"396 154 OFFCURVE",
"445 104 OFFCURVE",
"497 104 CURVE SMOOTH",
"572 104 OFFCURVE",
"629 161 OFFCURVE",
"629 238 CURVE SMOOTH",
"629 295 OFFCURVE",
"589 341 OFFCURVE",
"532 341 CURVE SMOOTH"
);
},
{
closed = 1;
nodes = (
"960 455 LINE",
"988 561 LINE",
"175 561 LINE",
"146 455 LINE"
);
}
);
width = 976;
}
);
note = divide;
unicode = 00F7;
},
{
glyphname = oslash;
lastChange = "2016-08-10 08:57:17 +0000";
layers = (
{
layerId = "5ECBA62F-7A11-49B7-B673-3B0F38FC4DA3";
paths = (
{
closed = 1;
nodes = (
"308 254 OFFCURVE",
"306 288 OFFCURVE",
"306 323 CURVE SMOOTH",
"306 452 OFFCURVE",
"326 566 OFFCURVE",
"365 663 CURVE SMOOTH",
"404 759 OFFCURVE",
"469 817 OFFCURVE",
"548 817 CURVE SMOOTH",
"594 817 OFFCURVE",
"629 791 OFFCURVE",
"653 738 CURVE",
"313 223 LINE"
);
},
{
closed = 1;
nodes = (
"614 154 OFFCURVE",
"530 48 OFFCURVE",
"438 48 CURVE SMOOTH",
"383 48 OFFCURVE",
"350 103 OFFCURVE",
"334 147 CURVE",
"676 663 LINE",
"682 633 OFFCURVE",
"685 595 OFFCURVE",
"685 550 CURVE SMOOTH",
"685 466 OFFCURVE",
"675 386 OFFCURVE",
"655 310 CURVE SMOOTH"
);
},
{
closed = 1;
nodes = (
"807 258 OFFCURVE",
"854 399 OFFCURVE",
"854 536 CURVE SMOOTH",
"854 651 OFFCURVE",
"833 738 OFFCURVE",
"791 799 CURVE",
"889 949 LINE",
"761 940 LINE",
"713 868 LINE",
"678 886 OFFCURVE",
"638 895 OFFCURVE",
"591 895 CURVE SMOOTH",
"526 895 OFFCURVE",
"465 879 OFFCURVE",
"406 847 CURVE SMOOTH",
"288 783 OFFCURVE",
"205 672 OFFCURVE",
"158 535 CURVE SMOOTH",
"110 398 OFFCURVE",
"113 255 OFFCURVE",
"154 148 CURVE SMOOTH",
"164 122 OFFCURVE",
"177 99 OFFCURVE",
"193 78 CURVE",
"88 -83 LINE",
"213 -74 LINE",
"268 10 LINE",
"309 -14 OFFCURVE",
"354 -26 OFFCURVE",
"405 -26 CURVE SMOOTH",
"529 -26 OFFCURVE",
"648 43 OFFCURVE",
"728 151 CURVE SMOOTH"
);
}
);
width = 842;
}
);
note = oslash;
unicode = 00F8;
},
{
glyphname = ugrave;
lastChange = "2016-08-10 08:57:17 +0000";
layers = (
{
layerId = "5ECBA62F-7A11-49B7-B673-3B0F38FC4DA3";
paths = (
{
closed = 1;
nodes = (
"795 101 OFFCURVE",
"784 118 OFFCURVE",
"784 170 CURVE SMOOTH",
"784 204 OFFCURVE",
"792 271 OFFCURVE",
"807 371 CURVE SMOOTH",
"883 847 LINE",
"864 870 LINE",
"577 845 LINE",
"567 771 LINE",
"701 748 LINE",
"619 200 LINE",
"564 145 OFFCURVE",
"503 117 OFFCURVE",
"438 117 CURVE SMOOTH",
"381 117 OFFCURVE",
"358 148 OFFCURVE",
"358 223 CURVE SMOOTH",
"358 260 OFFCURVE",
"363 311 OFFCURVE",
"374 376 CURVE SMOOTH",
"453 847 LINE",
"433 870 LINE",
"151 845 LINE",
"141 771 LINE",
"271 748 LINE",
"199 265 LINE SMOOTH",
"193 225 OFFCURVE",
"190 191 OFFCURVE",
"190 164 CURVE SMOOTH",
"190 41 OFFCURVE",
"241 -20 OFFCURVE",
"344 -20 CURVE SMOOTH",
"456 -20 OFFCURVE",
"566 56 OFFCURVE",
"607 131 CURVE",
"617 131 LINE",
"616 121 OFFCURVE",
"615 110 OFFCURVE",
"615 99 CURVE SMOOTH",
"615 22 OFFCURVE",
"655 -15 OFFCURVE",
"735 -15 CURVE SMOOTH",
"782 -15 OFFCURVE",
"829 -5 OFFCURVE",
"875 15 CURVE",
"893 84 LINE",
"827 96 LINE SMOOTH"
);
},
{
closed = 1;
nodes = (
"677 1012 LINE",
"544 1347 LINE",
"428 1309 LINE",
"619 978 LINE"
);
}
);
width = 906;
}
);
note = ugrave;
unicode = 00F9;
},
{
glyphname = uacute;
lastChange = "2016-08-10 08:57:17 +0000";
layers = (
{
layerId = "5ECBA62F-7A11-49B7-B673-3B0F38FC4DA3";
paths = (
{
closed = 1;
nodes = (
"795 101 OFFCURVE",
"784 118 OFFCURVE",
"784 170 CURVE SMOOTH",
"784 204 OFFCURVE",
"792 271 OFFCURVE",
"807 371 CURVE SMOOTH",
"883 847 LINE",
"864 870 LINE",
"577 845 LINE",
"567 771 LINE",
"701 748 LINE",
"619 200 LINE",
"564 145 OFFCURVE",
"503 117 OFFCURVE",
"438 117 CURVE SMOOTH",
"381 117 OFFCURVE",
"358 148 OFFCURVE",
"358 223 CURVE SMOOTH",
"358 260 OFFCURVE",
"363 311 OFFCURVE",
"374 376 CURVE SMOOTH",
"453 847 LINE",
"433 870 LINE",
"151 845 LINE",
"141 771 LINE",
"271 748 LINE",
"199 265 LINE SMOOTH",
"193 225 OFFCURVE",
"190 191 OFFCURVE",
"190 164 CURVE SMOOTH",
"190 41 OFFCURVE",
"241 -20 OFFCURVE",
"344 -20 CURVE SMOOTH",
"456 -20 OFFCURVE",
"566 56 OFFCURVE",
"607 131 CURVE",
"617 131 LINE",
"616 121 OFFCURVE",
"615 110 OFFCURVE",
"615 99 CURVE SMOOTH",
"615 22 OFFCURVE",
"655 -15 OFFCURVE",
"735 -15 CURVE SMOOTH",
"782 -15 OFFCURVE",
"829 -5 OFFCURVE",
"875 15 CURVE",
"893 84 LINE",
"827 96 LINE SMOOTH"
);
},
{
closed = 1;
nodes = (
"576 1029 LINE",
"627 998 LINE",
"811 1315 LINE",
"698 1355 LINE"
);
}
);
width = 906;
}
);
note = uacute;
unicode = 00FA;
},
{
glyphname = ucircumflex;
lastChange = "2016-08-10 08:57:17 +0000";
layers = (
{
layerId = "5ECBA62F-7A11-49B7-B673-3B0F38FC4DA3";
paths = (
{
closed = 1;
nodes = (
"795 101 OFFCURVE",
"784 118 OFFCURVE",
"784 170 CURVE SMOOTH",
"784 204 OFFCURVE",
"792 271 OFFCURVE",
"807 371 CURVE SMOOTH",
"883 847 LINE",
"864 870 LINE",
"577 845 LINE",
"567 771 LINE",
"701 748 LINE",
"619 200 LINE",
"564 145 OFFCURVE",
"503 117 OFFCURVE",
"438 117 CURVE SMOOTH",
"381 117 OFFCURVE",
"358 148 OFFCURVE",
"358 223 CURVE SMOOTH",
"358 260 OFFCURVE",
"363 311 OFFCURVE",
"374 376 CURVE SMOOTH",
"453 847 LINE",
"433 870 LINE",
"151 845 LINE",
"141 771 LINE",
"271 748 LINE",
"199 265 LINE SMOOTH",
"193 225 OFFCURVE",
"190 191 OFFCURVE",
"190 164 CURVE SMOOTH",
"190 41 OFFCURVE",
"241 -20 OFFCURVE",
"344 -20 CURVE SMOOTH",
"456 -20 OFFCURVE",
"566 56 OFFCURVE",
"607 131 CURVE",
"617 131 LINE",
"616 121 OFFCURVE",
"615 110 OFFCURVE",
"615 99 CURVE SMOOTH",
"615 22 OFFCURVE",
"655 -15 OFFCURVE",
"735 -15 CURVE SMOOTH",
"782 -15 OFFCURVE",
"829 -5 OFFCURVE",
"875 15 CURVE",
"893 84 LINE",
"827 96 LINE SMOOTH"
);
},
{
closed = 1;
nodes = (
"367 1036 LINE",
"405 1006 LINE",
"546 1117 LINE",
"556 1117 LINE",
"720 1007 LINE",
"769 1044 LINE",
"591 1229 LINE",
"536 1216 LINE"
);
}
);
width = 906;
}
);
note = ucircumflex;
unicode = 00FB;
},
{
glyphname = udieresis;
lastChange = "2016-08-10 08:57:17 +0000";
layers = (
{
layerId = "5ECBA62F-7A11-49B7-B673-3B0F38FC4DA3";
paths = (
{
closed = 1;
nodes = (
"795 101 OFFCURVE",
"784 118 OFFCURVE",
"784 170 CURVE SMOOTH",
"784 204 OFFCURVE",
"792 271 OFFCURVE",
"807 371 CURVE SMOOTH",
"883 847 LINE",
"864 870 LINE",
"577 845 LINE",
"567 771 LINE",
"701 748 LINE",
"619 200 LINE",
"564 145 OFFCURVE",
"503 117 OFFCURVE",
"438 117 CURVE SMOOTH",
"381 117 OFFCURVE",
"358 148 OFFCURVE",
"358 223 CURVE SMOOTH",
"358 260 OFFCURVE",
"363 311 OFFCURVE",
"374 376 CURVE SMOOTH",
"453 847 LINE",
"433 870 LINE",
"151 845 LINE",
"141 771 LINE",
"271 748 LINE",
"199 265 LINE SMOOTH",
"193 225 OFFCURVE",
"190 191 OFFCURVE",
"190 164 CURVE SMOOTH",
"190 41 OFFCURVE",
"241 -20 OFFCURVE",
"344 -20 CURVE SMOOTH",
"456 -20 OFFCURVE",
"566 56 OFFCURVE",
"607 131 CURVE",
"617 131 LINE",
"616 121 OFFCURVE",
"615 110 OFFCURVE",
"615 99 CURVE SMOOTH",
"615 22 OFFCURVE",
"655 -15 OFFCURVE",
"735 -15 CURVE SMOOTH",
"782 -15 OFFCURVE",
"829 -5 OFFCURVE",
"875 15 CURVE",
"893 84 LINE",
"827 96 LINE SMOOTH"
);
},
{
closed = 1;
nodes = (
"773 1157 OFFCURVE",
"733 1191 OFFCURVE",
"685 1191 CURVE SMOOTH",
"640 1191 OFFCURVE",
"601 1158 OFFCURVE",
"601 1113 CURVE SMOOTH",
"601 1068 OFFCURVE",
"638 1032 OFFCURVE",
"685 1032 CURVE SMOOTH",
"732 1032 OFFCURVE",
"773 1066 OFFCURVE",
"773 1113 CURVE SMOOTH"
);
},
{
closed = 1;
nodes = (
"503 1157 OFFCURVE",
"465 1191 OFFCURVE",
"417 1191 CURVE SMOOTH",
"372 1191 OFFCURVE",
"333 1158 OFFCURVE",
"333 1113 CURVE SMOOTH",
"333 1068 OFFCURVE",
"370 1032 OFFCURVE",
"417 1032 CURVE SMOOTH",
"464 1032 OFFCURVE",
"503 1066 OFFCURVE",
"503 1113 CURVE SMOOTH"
);
}
);
width = 906;
}
);
note = udieresis;
unicode = 00FC;
},
{
glyphname = yacute;
lastChange = "2016-08-10 08:57:17 +0000";
layers = (
{
layerId = "5ECBA62F-7A11-49B7-B673-3B0F38FC4DA3";
paths = (
{
closed = 1;
nodes = (
"506 806 LINE",
"524 875 LINE",
"139 875 LINE",
"122 804 LINE",
"217 773 LINE",
"344 -15 LINE",
"326 -50 LINE SMOOTH",
"295 -107 OFFCURVE",
"268 -146 OFFCURVE",
"243 -165 CURVE SMOOTH",
"194 -205 OFFCURVE",
"106 -214 OFFCURVE",
"15 -141 CURVE",
"-32 -178 OFFCURVE",
"-56 -221 OFFCURVE",
"-56 -268 CURVE SMOOTH",
"-56 -337 OFFCURVE",
"-13 -380 OFFCURVE",
"74 -380 CURVE SMOOTH",
"214 -380 OFFCURVE",
"307 -298 OFFCURVE",
"435 -53 CURVE SMOOTH",
"864 769 LINE",
"959 801 LINE",
"979 875 LINE",
"645 875 LINE",
"625 804 LINE",
"748 771 LINE",
"467 225 LINE",
"382 766 LINE"
);
},
{
closed = 1;
nodes = (
"614 1029 LINE",
"665 998 LINE",
"849 1315 LINE",
"736 1355 LINE"
);
}
);
width = 832;
}
);
note = yacute;
unicode = 00FD;
},
{
glyphname = thorn;
lastChange = "2016-08-10 08:57:17 +0000";
layers = (
{
layerId = "5ECBA62F-7A11-49B7-B673-3B0F38FC4DA3";
paths = (
{
closed = 1;
nodes = (
"386 723 LINE",
"414 847 LINE",
"469 1246 LINE",
"447 1269 LINE",
"173 1244 LINE",
"163 1168 LINE",
"297 1145 LINE",
"97 -261 LINE",
"-24 -294 LINE",
"-44 -369 LINE",
"388 -369 LINE",
"406 -294 LINE",
"251 -263 LINE",
"390 662 LINE",
"463 729 OFFCURVE",
"502 748 OFFCURVE",
"577 748 CURVE SMOOTH",
"650 748 OFFCURVE",
"709 642 OFFCURVE",
"709 486 CURVE SMOOTH",
"709 381 OFFCURVE",
"696 251 OFFCURVE",
"629 172 CURVE SMOOTH",
"612 152 OFFCURVE",
"596 137 OFFCURVE",
"580 127 CURVE SMOOTH",
"548 107 OFFCURVE",
"496 89 OFFCURVE",
"424 89 CURVE SMOOTH",
"401 89 OFFCURVE",
"356 99 OFFCURVE",
"337 108 CURVE",
"315 -7 LINE",
"334 -14 OFFCURVE",
"365 -18 OFFCURVE",
"408 -18 CURVE SMOOTH",
"528 -18 OFFCURVE",
"646 34 OFFCURVE",
"735 126 CURVE SMOOTH",
"826 219 OFFCURVE",
"883 368 OFFCURVE",
"883 533 CURVE SMOOTH",
"883 734 OFFCURVE",
"778 892 OFFCURVE",
"646 892 CURVE SMOOTH",
"559 892 OFFCURVE",
"445 808 OFFCURVE",
"400 721 CURVE",
"398 721 LINE",
"398 723 LINE"
);
}
);
width = 873;
}
);
note = thorn;
unicode = 00FE;
},
{
glyphname = ydieresis;
lastChange = "2016-08-10 08:57:17 +0000";
layers = (
{
layerId = "5ECBA62F-7A11-49B7-B673-3B0F38FC4DA3";
paths = (
{
closed = 1;
nodes = (
"506 806 LINE",
"524 875 LINE",
"139 875 LINE",
"122 804 LINE",
"217 773 LINE",
"344 -15 LINE",
"326 -50 LINE SMOOTH",
"295 -107 OFFCURVE",
"268 -146 OFFCURVE",
"243 -165 CURVE SMOOTH",
"194 -205 OFFCURVE",
"106 -214 OFFCURVE",
"15 -141 CURVE",
"-32 -178 OFFCURVE",
"-56 -221 OFFCURVE",
"-56 -268 CURVE SMOOTH",
"-56 -337 OFFCURVE",
"-13 -380 OFFCURVE",
"74 -380 CURVE SMOOTH",
"214 -380 OFFCURVE",
"307 -298 OFFCURVE",
"435 -53 CURVE SMOOTH",
"864 769 LINE",
"959 801 LINE",
"979 875 LINE",
"645 875 LINE",
"625 804 LINE",
"748 771 LINE",
"467 225 LINE",
"382 766 LINE"
);
},
{
closed = 1;
nodes = (
"811 1157 OFFCURVE",
"771 1191 OFFCURVE",
"723 1191 CURVE SMOOTH",
"678 1191 OFFCURVE",
"639 1158 OFFCURVE",
"639 1113 CURVE SMOOTH",
"639 1068 OFFCURVE",
"676 1032 OFFCURVE",
"723 1032 CURVE SMOOTH",
"770 1032 OFFCURVE",
"811 1066 OFFCURVE",
"811 1113 CURVE SMOOTH"
);
},
{
closed = 1;
nodes = (
"541 1157 OFFCURVE",
"503 1191 OFFCURVE",
"455 1191 CURVE SMOOTH",
"410 1191 OFFCURVE",
"371 1158 OFFCURVE",
"371 1113 CURVE SMOOTH",
"371 1068 OFFCURVE",
"408 1032 OFFCURVE",
"455 1032 CURVE SMOOTH",
"502 1032 OFFCURVE",
"541 1066 OFFCURVE",
"541 1113 CURVE SMOOTH"
);
}
);
width = 832;
}
);
note = ydieresis;
unicode = 00FF;
},
{
glyphname = Amacron;
lastChange = "2016-08-10 08:57:17 +0000";
layers = (
{
layerId = "5ECBA62F-7A11-49B7-B673-3B0F38FC4DA3";
paths = (
{
closed = 1;
nodes = (
"135 129 LINE",
"-14 74 LINE",
"-32 0 LINE",
"414 0 LINE",
"436 81 LINE",
"266 124 LINE",
"419 433 LINE",
"820 433 LINE",
"876 129 LINE",
"704 74 LINE",
"684 0 LINE",
"1169 0 LINE",
"1187 81 LINE",
"1063 124 LINE",
"874 1270 LINE",
"727 1239 LINE"
);
},
{
closed = 1;
nodes = (
"806 534 LINE",
"471 534 LINE",
"727 1036 LINE"
);
},
{
closed = 1;
nodes = (
"1023 1381 LINE",
"1036 1481 LINE",
"595 1481 LINE",
"581 1381 LINE"
);
}
);
width = 1159;
}
);
note = Amacron;
unicode = 0100;
},
{
glyphname = amacron;
lastChange = "2016-08-10 08:57:17 +0000";
layers = (
{
layerId = "5ECBA62F-7A11-49B7-B673-3B0F38FC4DA3";
paths = (
{
closed = 1;
nodes = (
"746 101 OFFCURVE",
"735 117 OFFCURVE",
"735 162 CURVE",
"736 190 OFFCURVE",
"745 262 OFFCURVE",
"762 379 CURVE SMOOTH",
"833 834 LINE",
"816 852 LINE",
"779 875 OFFCURVE",
"718 887 OFFCURVE",
"631 887 CURVE SMOOTH",
"586 887 OFFCURVE",
"540 879 OFFCURVE",
"493 862 CURVE SMOOTH",
"394 826 OFFCURVE",
"309 759 OFFCURVE",
"237 661 CURVE SMOOTH",
"165 562 OFFCURVE",
"120 424 OFFCURVE",
"120 275 CURVE SMOOTH",
"120 90 OFFCURVE",
"198 -22 OFFCURVE",
"322 -22 CURVE SMOOTH",
"415 -22 OFFCURVE",
"507 41 OFFCURVE",
"558 132 CURVE",
"570 132 LINE",
"567 94 LINE",
"567 83 LINE SMOOTH",
"567 19 OFFCURVE",
"615 -15 OFFCURVE",
"686 -15 CURVE SMOOTH",
"733 -15 OFFCURVE",
"780 -5 OFFCURVE",
"826 15 CURVE",
"846 84 LINE",
"778 96 LINE SMOOTH"
);
},
{
closed = 1;
nodes = (
"515 135 OFFCURVE",
"470 106 OFFCURVE",
"403 106 CURVE SMOOTH",
"322 106 OFFCURVE",
"282 178 OFFCURVE",
"282 321 CURVE SMOOTH",
"282 469 OFFCURVE",
"323 621 OFFCURVE",
"406 713 CURVE SMOOTH",
"489 805 OFFCURVE",
"612 795 OFFCURVE",
"661 748 CURVE",
"575 202 LINE"
);
},
{
closed = 1;
nodes = (
"897 1027 LINE",
"911 1128 LINE",
"469 1128 LINE",
"456 1027 LINE"
);
}
);
width = 855;
}
);
note = amacron;
unicode = 0101;
},
